<?xml version="1.0" standalone="no"?>
<!DOCTYPE svg PUBLIC "-//W3C//DTD SVG 1.1//EN" "http://www.w3.org/Graphics/SVG/1.1/DTD/svg11.dtd" >
<svg>
<metadata>
Created by FontForge 20120731 at Mon Jan 15 07:50:36 2018
 By www
(c) 2014 Apple Inc. All rights reserved.
</metadata>
<defs>
<font id="SanFranciscoDisplay-Light" horiz-adv-x="0" >
  <font-face 
    font-family="San Francisco Display"
    font-weight="300"
    font-stretch="normal"
    units-per-em="2048"
    panose-1="2 11 3 4 3 2 2 6 2 4"
    ascent="1638"
    descent="-410"
    x-height="1043"
    cap-height="1363"
    bbox="-422 -492 2048 1945"
    underline-thickness="50"
    underline-position="-25"
    stemh="110"
    stemv="124"
    unicode-range="U+0020-FB02"
  />
<missing-glyph horiz-adv-x="1293" 
d="M120 0v1365h1053v-1365h-1053zM501 313c0 -63 49 -107 120 -107c74 0 122 43 122 107c0 65 -48 108 -122 108c-72 0 -120 -44 -120 -108zM339 888h169c1 79 49 130 125 130c72 0 120 -43 120 -110c0 -51 -20 -78 -103 -138c-92 -65 -125 -129 -118 -221l1 -18h166v15
c0 64 15 87 107 153c97 70 133 130 133 218c0 151 -117 250 -296 250c-190 0 -310 -109 -304 -279z" />
    <glyph glyph-name=".notdef" horiz-adv-x="1293" 
d="M120 0v1365h1053v-1365h-1053zM501 313c0 -63 49 -107 120 -107c74 0 122 43 122 107c0 65 -48 108 -122 108c-72 0 -120 -44 -120 -108zM339 888h169c1 79 49 130 125 130c72 0 120 -43 120 -110c0 -51 -20 -78 -103 -138c-92 -65 -125 -129 -118 -221l1 -18h166v15
c0 64 15 87 107 153c97 70 133 130 133 218c0 151 -117 250 -296 250c-190 0 -310 -109 -304 -279z" />
    <glyph glyph-name=".null" 
 />
    <glyph glyph-name="nonmarkingreturn" 
 />
    <glyph glyph-name="space" unicode=" " horiz-adv-x="415" 
 />
    <glyph glyph-name="A" unicode="A" horiz-adv-x="1185" 
d="M171 0h-131l489 1363h127l489 -1363h-137l-149 436h-537zM592 1206h-4l-230 -665h464z" />
    <glyph glyph-name="Agrave" unicode="&#xc0;" horiz-adv-x="1185" 
d="M171 0h-131l489 1363h127l489 -1363h-137l-149 436h-537zM592 1206h-4l-230 -665h464zM654 1513h-102l-233 280h134z" />
    <glyph glyph-name="Aacute" unicode="&#xc1;" horiz-adv-x="1185" 
d="M171 0h-131l489 1363h127l489 -1363h-137l-149 436h-537zM592 1206h-4l-230 -665h464zM634 1513h-102l201 280h134z" />
    <glyph glyph-name="Adieresis" unicode="&#xc4;" horiz-adv-x="1185" 
d="M171 0h-131l489 1363h127l489 -1363h-137l-149 436h-537zM592 1206h-4l-230 -665h464zM443 1503c-42 0 -75 34 -75 78c0 45 33 78 75 78c43 0 76 -33 76 -78c0 -44 -33 -78 -76 -78zM739 1503c-42 0 -75 34 -75 78c0 45 33 78 75 78c44 0 76 -33 76 -78
c0 -44 -32 -78 -76 -78z" />
    <glyph glyph-name="Adieresismacron" unicode="&#x1de;" horiz-adv-x="1185" 
d="M171 0h-131l489 1363h127l489 -1363h-137l-149 436h-537zM592 1206h-4l-230 -665h464zM446 1503c-42 0 -75 34 -75 78c0 45 33 78 75 78c43 0 76 -33 76 -78c0 -44 -33 -78 -76 -78zM742 1503c-42 0 -75 34 -75 78c0 45 33 78 75 78c44 0 76 -33 76 -78
c0 -44 -32 -78 -76 -78zM860 1801h-534v85h534v-85z" />
    <glyph glyph-name="Aring" unicode="&#xc5;" horiz-adv-x="1185" 
d="M171 0h-131l489 1363h127l489 -1363h-137l-149 436h-537zM592 1206h-4l-230 -665h464zM593 1503c-100 0 -180 78 -180 178s80 177 180 177s181 -77 181 -177s-81 -178 -181 -178zM485 1680c0 -60 48 -110 108 -110c62 0 109 50 109 110c0 62 -47 110 -109 110
c-60 0 -108 -48 -108 -110z" />
    <glyph glyph-name="Aringacute" unicode="&#x1fa;" horiz-adv-x="1185" 
d="M171 0h-131l489 1363h127l489 -1363h-137l-149 436h-537zM592 1206h-4l-230 -665h464zM541 1810l121 135h138l-155 -135h-104zM593 1429c-94 0 -169 73 -169 167c0 93 75 165 169 165c93 0 170 -72 170 -165c0 -94 -77 -167 -170 -167zM495 1596c0 -56 44 -101 99 -101
c56 0 98 45 98 101s-42 100 -98 100c-55 0 -99 -44 -99 -100z" />
    <glyph glyph-name="Atilde" unicode="&#xc3;" horiz-adv-x="1185" 
d="M171 0h-131l489 1363h127l489 -1363h-137l-149 436h-537zM592 1206h-4l-230 -665h464zM702 1494c-123 0 -153 112 -228 112c-50 0 -69 -53 -70 -102h-84c0 102 54 181 154 181c122 0 152 -113 228 -113c49 0 71 48 74 103h84c0 -90 -50 -181 -158 -181z" />
    <glyph glyph-name="Abrevegrave" unicode="&#x1eb0;" horiz-adv-x="1185" 
d="M171 0h-131l489 1363h127l489 -1363h-137l-149 436h-537zM592 1206h-4l-230 -665h464zM895 1719c0 -110 -112 -223 -302 -223s-298 113 -298 223h98c0 -68 64 -140 200 -140c137 0 204 72 204 140h98zM669 1734h-106l-210 211h130z" />
    <glyph glyph-name="Adotmacron" unicode="&#x1e0;" horiz-adv-x="1185" 
d="M171 0h-131l489 1363h127l489 -1363h-137l-149 436h-537zM592 1206h-4l-230 -665h464zM503 1588c0 50 40 90 90 90s90 -40 90 -90c0 -49 -40 -89 -90 -89s-90 40 -90 89zM860 1801h-534v85h534v-85z" />
    <glyph glyph-name="Aringbelow" unicode="&#x1e00;" horiz-adv-x="1185" 
d="M171 0h-131l489 1363h127l489 -1363h-137l-149 436h-537zM592 1206h-4l-230 -665h464zM593 -492c-100 0 -180 78 -180 178s80 177 180 177s181 -77 181 -177s-81 -178 -181 -178zM485 -315c0 -60 48 -110 108 -110c62 0 109 50 109 110c0 62 -47 110 -109 110
c-60 0 -108 -48 -108 -110z" />
    <glyph glyph-name="Acircumflex" unicode="&#xc2;" horiz-adv-x="1185" 
d="M171 0h-131l489 1363h127l489 -1363h-137l-149 436h-537zM592 1206h-4l-230 -665h464zM328 1513l229 270h70l229 -270h-116l-147 176h-2l-147 -176h-116z" />
    <glyph glyph-name="Acircumflexdotbelow" unicode="&#x1eac;" horiz-adv-x="1185" 
d="M171 0h-131l489 1363h127l489 -1363h-137l-149 436h-537zM592 1206h-4l-230 -665h464zM515 -279c0 49 35 84 79 84c47 0 82 -35 82 -84c0 -46 -35 -82 -82 -82c-44 0 -79 36 -79 82zM328 1513l229 270h70l229 -270h-116l-147 176h-2l-147 -176h-116z" />
    <glyph glyph-name="Acircumflexacute" unicode="&#x1ea4;" horiz-adv-x="1185" 
d="M171 0h-131l489 1363h127l489 -1363h-137l-149 436h-537zM592 1206h-4l-230 -665h464zM281 1513l279 205h66l279 -205h-137l-173 127h-4l-173 -127h-137zM765 1717l214 220h142l-255 -220h-101z" />
    <glyph glyph-name="Acircumflextilde" unicode="&#x1eaa;" horiz-adv-x="1185" 
d="M171 0h-131l489 1363h127l489 -1363h-137l-149 436h-537zM592 1206h-4l-230 -665h464zM281 1513l279 205h66l279 -205h-137l-173 127h-4l-173 -127h-137zM419 1784h-87c0 93 62 155 151 155c102 0 132 -90 207 -90c45 0 72 28 75 77h87c0 -83 -64 -159 -161 -159
c-101 0 -129 92 -202 92c-39 0 -69 -26 -70 -75z" />
    <glyph glyph-name="Acircumflexgrave" unicode="&#x1ea6;" horiz-adv-x="1185" 
d="M171 0h-131l489 1363h127l489 -1363h-137l-149 436h-537zM592 1206h-4l-230 -665h464zM281 1513l279 205h66l279 -205h-137l-173 127h-4l-173 -127h-137zM1013 1709h-100l-279 228h142z" />
    <glyph glyph-name="Acircumflexhookabove" unicode="&#x1ea8;" horiz-adv-x="1185" 
d="M171 0h-131l489 1363h127l489 -1363h-137l-149 436h-537zM592 1206h-4l-230 -665h464zM281 1513l279 205h66l279 -205h-137l-173 127h-4l-173 -127h-137zM706 1857v68c23 9 51 17 81 17c88 0 152 -52 152 -130c0 -67 -49 -110 -103 -129l-46 62c42 14 67 34 67 65
c0 38 -41 62 -82 62c-26 0 -47 -6 -69 -15z" />
    <glyph glyph-name="Abreve" unicode="&#x102;" horiz-adv-x="1185" 
d="M171 0h-131l489 1363h127l489 -1363h-137l-149 436h-537zM592 1206h-4l-230 -665h464zM316 1755h94c0 -92 60 -167 183 -167s180 75 180 167h95c-1 -117 -81 -253 -275 -253s-278 135 -277 253z" />
    <glyph glyph-name="Abreveacute" unicode="&#x1eae;" horiz-adv-x="1185" 
d="M171 0h-131l489 1363h127l489 -1363h-137l-149 436h-537zM592 1206h-4l-230 -665h464zM893 1719c0 -110 -112 -223 -302 -223c-189 0 -298 113 -298 223h98c0 -68 64 -140 200 -140c137 0 204 72 204 140h98zM512 1734l186 211h130l-210 -211h-106z" />
    <glyph glyph-name="Abrevetilde" unicode="&#x1eb4;" horiz-adv-x="1185" 
d="M171 0h-131l489 1363h127l489 -1363h-137l-149 436h-537zM592 1206h-4l-230 -665h464zM893 1719c0 -110 -111 -223 -301 -223s-298 113 -298 223h97c0 -68 65 -140 201 -140s204 72 204 140h97zM419 1784h-87c0 93 62 155 151 155c102 0 132 -90 207 -90
c45 0 72 28 75 77h87c0 -83 -64 -159 -161 -159c-101 0 -129 92 -202 92c-39 0 -69 -26 -70 -75z" />
    <glyph glyph-name="Abrevehookabove" unicode="&#x1eb2;" horiz-adv-x="1185" 
d="M171 0h-131l489 1363h127l489 -1363h-137l-149 436h-537zM592 1206h-4l-230 -665h464zM893 1719c0 -110 -111 -223 -301 -223s-298 113 -298 223h97c0 -68 65 -140 201 -140s204 72 204 140h97zM476 1857v68c23 9 51 17 81 17c88 0 152 -52 152 -130
c0 -67 -49 -110 -103 -129l-46 62c42 14 67 34 67 65c0 38 -41 62 -82 62c-26 0 -47 -6 -69 -15z" />
    <glyph glyph-name="Abrevedotbelow" unicode="&#x1eb6;" horiz-adv-x="1185" 
d="M171 0h-131l489 1363h127l489 -1363h-137l-149 436h-537zM592 1206h-4l-230 -665h464zM515 -279c0 49 35 84 79 84c47 0 82 -35 82 -84c0 -46 -35 -82 -82 -82c-44 0 -79 36 -79 82zM316 1755h94c0 -92 60 -167 183 -167s180 75 180 167h95c-1 -117 -81 -253 -275 -253
s-278 135 -277 253z" />
    <glyph glyph-name="Ainvertedbreve" unicode="&#x202;" horiz-adv-x="1185" 
d="M171 0h-131l489 1363h127l489 -1363h-137l-149 436h-537zM592 1206h-4l-230 -665h464zM593 1688c-123 0 -183 -79 -183 -171h-94c-1 118 83 257 277 257s274 -140 275 -257h-95c0 92 -57 171 -180 171z" />
    <glyph glyph-name="Acaron" unicode="&#x1cd;" horiz-adv-x="1185" 
d="M171 0h-131l489 1363h127l489 -1363h-137l-149 436h-537zM592 1206h-4l-230 -665h464zM326 1782h116l147 -176h2l147 176h116l-229 -270h-70z" />
    <glyph glyph-name="Adotaccent" unicode="&#x226;" horiz-adv-x="1185" 
d="M171 0h-131l489 1363h127l489 -1363h-137l-149 436h-537zM592 1206h-4l-230 -665h464zM503 1642c0 50 40 90 90 90s90 -40 90 -90c0 -49 -40 -89 -90 -89s-90 40 -90 89z" />
    <glyph glyph-name="Adotbelow" unicode="&#x1ea0;" horiz-adv-x="1185" 
d="M171 0h-131l489 1363h127l489 -1363h-137l-149 436h-537zM592 1206h-4l-230 -665h464zM512 -279c0 49 35 84 79 84c47 0 82 -35 82 -84c0 -46 -35 -82 -82 -82c-44 0 -79 36 -79 82z" />
    <glyph glyph-name="Ahookabove" unicode="&#x1ea2;" horiz-adv-x="1185" 
d="M171 0h-131l489 1363h127l489 -1363h-137l-149 436h-537zM592 1206h-4l-230 -665h464zM472 1657v73c15 8 53 19 95 19c99 0 179 -50 179 -137c0 -88 -85 -128 -126 -145l-50 64c38 14 83 39 83 77c0 45 -43 64 -92 64c-40 0 -67 -7 -89 -15z" />
    <glyph glyph-name="Adblgrave" unicode="&#x200;" horiz-adv-x="1185" 
d="M171 0h-131l489 1363h127l489 -1363h-137l-149 436h-537zM592 1206h-4l-230 -665h464zM533 1513h-104l-258 264h139zM803 1513h-103l-258 264h139z" />
    <glyph glyph-name="Amacron" unicode="&#x100;" horiz-adv-x="1185" 
d="M171 0h-131l489 1363h127l489 -1363h-137l-149 436h-537zM592 1206h-4l-230 -665h464zM859 1531h-534v85h534v-85z" />
    <glyph glyph-name="Aogonek" unicode="&#x104;" horiz-adv-x="1179" 
d="M171 0h-131l489 1363h127l486 -1355c-71 -24 -180 -86 -184 -180c-4 -74 47 -111 111 -111c27 0 59 4 83 11v-89c-17 -9 -53 -19 -115 -19c-99 0 -200 55 -200 180c0 117 89 190 159 235l-137 401h-537zM593 1206h-6l-229 -665h464z" />
    <glyph glyph-name="B" unicode="B" horiz-adv-x="1213" 
d="M177 0v1363h477c232 0 383 -124 383 -335c0 -179 -109 -274 -223 -307v-6c181 -23 301 -144 301 -339c0 -239 -181 -376 -465 -376h-473zM304 1246v-487h265c208 0 338 72 338 249c0 163 -112 238 -272 238h-331zM304 643v-527h291c230 0 389 61 389 257
c0 185 -137 270 -320 270h-360z" />
    <glyph glyph-name="Blinebelow" unicode="&#x1e06;" horiz-adv-x="1213" 
d="M177 0v1363h477c232 0 383 -124 383 -335c0 -179 -109 -274 -223 -307v-6c181 -23 301 -144 301 -339c0 -239 -181 -376 -465 -376h-473zM304 1246v-487h265c208 0 338 72 338 249c0 163 -112 238 -272 238h-331zM304 643v-527h291c230 0 389 61 389 257
c0 185 -137 270 -320 270h-360zM848 -318h-545v90h545v-90z" />
    <glyph glyph-name="Bdotbelow" unicode="&#x1e04;" horiz-adv-x="1213" 
d="M497 -279c0 49 35 84 79 84c47 0 82 -35 82 -84c0 -46 -35 -82 -82 -82c-44 0 -79 36 -79 82zM177 0v1363h477c232 0 383 -124 383 -335c0 -179 -109 -274 -223 -307v-6c181 -23 301 -144 301 -339c0 -239 -181 -376 -465 -376h-473zM304 1246v-487h265
c208 0 338 72 338 249c0 163 -112 238 -272 238h-331zM304 643v-527h291c230 0 389 61 389 257c0 185 -137 270 -320 270h-360z" />
    <glyph glyph-name="Bdotaccent" unicode="&#x1e02;" horiz-adv-x="1213" 
d="M485 1642c0 50 40 90 90 90s90 -40 90 -90c0 -49 -40 -89 -90 -89s-90 40 -90 89zM177 0v1363h477c232 0 383 -124 383 -335c0 -179 -109 -274 -223 -307v-6c181 -23 301 -144 301 -339c0 -239 -181 -376 -465 -376h-473zM304 1246v-487h265c208 0 338 72 338 249
c0 163 -112 238 -272 238h-331zM304 643v-527h291c230 0 389 61 389 257c0 185 -137 270 -320 270h-360z" />
    <glyph glyph-name="C" unicode="C" horiz-adv-x="1244" 
d="M249 782v-208c0 -311 143 -488 400 -488c230 0 359 143 359 308h126v-1c0 -195 -158 -423 -490 -423c-336 0 -522 229 -522 606v205c0 377 191 612 522 612c325 0 486 -235 486 -440v-1h-126c0 151 -125 325 -360 325c-249 0 -395 -185 -395 -495z" />
    <glyph glyph-name="Cacute" unicode="&#x106;" horiz-adv-x="1244" 
d="M684 1513h-102l201 280h134zM249 782v-208c0 -311 143 -488 400 -488c230 0 359 143 359 308h126v-1c0 -195 -158 -423 -490 -423c-336 0 -522 229 -522 606v205c0 377 191 612 522 612c325 0 486 -235 486 -440v-1h-126c0 151 -125 325 -360 325
c-249 0 -395 -185 -395 -495z" />
    <glyph glyph-name="Ccaron" unicode="&#x10c;" horiz-adv-x="1244" 
d="M249 782v-208c0 -311 143 -488 400 -488c230 0 359 143 359 308h126v-1c0 -195 -158 -423 -490 -423c-336 0 -522 229 -522 606v205c0 377 191 612 522 612c325 0 486 -235 486 -440v-1h-126c0 151 -125 325 -360 325c-249 0 -395 -185 -395 -495zM379 1782h116l147 -176
h2l147 176h116l-229 -270h-70z" />
    <glyph glyph-name="Ccircumflex" unicode="&#x108;" horiz-adv-x="1244" 
d="M249 782v-208c0 -311 143 -488 400 -488c230 0 359 143 359 308h126v-1c0 -195 -158 -423 -490 -423c-336 0 -522 229 -522 606v205c0 377 191 612 522 612c325 0 486 -235 486 -440v-1h-126c0 151 -125 325 -360 325c-249 0 -395 -185 -395 -495zM379 1513l229 270h70
l229 -270h-116l-147 176h-2l-147 -176h-116z" />
    <glyph glyph-name="Cdotaccent" unicode="&#x10a;" horiz-adv-x="1244" 
d="M553 1642c0 50 40 90 90 90s90 -40 90 -90c0 -49 -40 -89 -90 -89s-90 40 -90 89zM249 782v-208c0 -311 143 -488 400 -488c230 0 359 143 359 308h126v-1c0 -195 -158 -423 -490 -423c-336 0 -522 229 -522 606v205c0 377 191 612 522 612c325 0 486 -235 486 -440v-1
h-126c0 151 -125 325 -360 325c-249 0 -395 -185 -395 -495z" />
    <glyph glyph-name="Ccedilla" unicode="&#xc7;" horiz-adv-x="1244" 
d="M631 -481c-57 -2 -114 8 -140 16v85c26 -8 80 -14 118 -14c62 0 132 23 132 90c0 70 -70 82 -151 82h-52v64l52 131c-304 22 -468 249 -468 603v205c0 377 191 612 522 612c325 0 486 -235 486 -440v-1h-126c0 151 -125 325 -360 325c-249 0 -395 -185 -395 -495v-208
c0 -311 143 -488 400 -488c230 0 359 143 359 308h126v-1c0 -187 -146 -404 -450 -422l-44 -114c119 0 212 -47 212 -157c0 -124 -106 -177 -221 -181z" />
    <glyph glyph-name="Ccedillaacute" unicode="&#x1e08;" horiz-adv-x="1244" 
d="M684 1513h-102l201 280h134zM631 -481c-57 -2 -114 8 -140 16v85c26 -8 80 -14 118 -14c62 0 132 23 132 90c0 70 -70 82 -151 82h-52v64l52 131c-304 22 -468 249 -468 603v205c0 377 191 612 522 612c325 0 486 -235 486 -440v-1h-126c0 151 -125 325 -360 325
c-249 0 -395 -185 -395 -495v-208c0 -311 143 -488 400 -488c230 0 359 143 359 308h126v-1c0 -187 -146 -404 -450 -422l-44 -114c119 0 212 -47 212 -157c0 -124 -106 -177 -221 -181z" />
    <glyph glyph-name="D" unicode="D" horiz-adv-x="1289" 
d="M177 1363h402c437 0 602 -280 602 -682c0 -395 -157 -681 -602 -681h-402v1363zM304 1246v-1130h271c333 0 475 211 475 565c0 347 -138 565 -475 565h-271z" />
    <glyph glyph-name="Ddotaccent" unicode="&#x1e0a;" horiz-adv-x="1289" 
d="M502 1642c0 50 40 90 90 90s90 -40 90 -90c0 -49 -40 -89 -90 -89s-90 40 -90 89zM177 1363h402c437 0 602 -280 602 -682c0 -395 -157 -681 -602 -681h-402v1363zM304 1246v-1130h271c333 0 475 211 475 565c0 347 -138 565 -475 565h-271z" />
    <glyph glyph-name="Dcircumflexbelow" unicode="&#x1e12;" horiz-adv-x="1289" 
d="M177 1363h402c437 0 602 -280 602 -682c0 -395 -157 -681 -602 -681h-402v1363zM304 1246v-1130h271c333 0 475 211 475 565c0 347 -138 565 -475 565h-271zM337 -409l214 288h82l214 -288h-108l-146 208h-2l-146 -208h-108z" />
    <glyph glyph-name="Dcommaaccent" unicode="&#x1e10;" horiz-adv-x="1289" 
d="M553 -486h-100l85 335h129zM177 1363h402c437 0 602 -280 602 -682c0 -395 -157 -681 -602 -681h-402v1363zM304 1246v-1130h271c333 0 475 211 475 565c0 347 -138 565 -475 565h-271z" />
    <glyph glyph-name="Dlinebelow" unicode="&#x1e0e;" horiz-adv-x="1289" 
d="M865 -318h-545v90h545v-90zM177 1363h402c437 0 602 -280 602 -682c0 -395 -157 -681 -602 -681h-402v1363zM304 1246v-1130h271c333 0 475 211 475 565c0 347 -138 565 -475 565h-271z" />
    <glyph glyph-name="Dcaron" unicode="&#x10e;" horiz-adv-x="1289" 
d="M328 1782h116l147 -176h2l147 176h116l-229 -270h-70zM177 1363h402c437 0 602 -280 602 -682c0 -395 -157 -681 -602 -681h-402v1363zM304 1246v-1130h271c333 0 475 211 475 565c0 347 -138 565 -475 565h-271z" />
    <glyph glyph-name="Ddotbelow" unicode="&#x1e0c;" horiz-adv-x="1289" 
d="M514 -279c0 49 35 84 79 84c47 0 82 -35 82 -84c0 -46 -35 -82 -82 -82c-44 0 -79 36 -79 82zM177 1363h402c437 0 602 -280 602 -682c0 -395 -157 -681 -602 -681h-402v1363zM304 1246v-1130h271c333 0 475 211 475 565c0 347 -138 565 -475 565h-271z" />
    <glyph glyph-name="Dcroat" unicode="&#x110;" horiz-adv-x="1358" 
d="M648 0h-403v642h-159v113h159v608h403c437 0 602 -280 602 -682c0 -395 -157 -681 -602 -681zM373 116h271c333 0 475 211 475 565c0 347 -138 565 -475 565h-271v-491h335v-113h-335v-526z" />
    <glyph glyph-name="E" unicode="E" horiz-adv-x="1093" 
d="M972 116v-116h-795v1363h795v-117h-668v-491h633v-115h-633v-524h668z" />
    <glyph glyph-name="Egrave" unicode="&#xc8;" horiz-adv-x="1093" 
d="M632 1513h-102l-233 280h134zM972 116v-116h-795v1363h795v-117h-668v-491h633v-115h-633v-524h668z" />
    <glyph glyph-name="Edblgrave" unicode="&#x204;" horiz-adv-x="1093" 
d="M511 1513h-104l-258 264h139zM781 1513h-103l-258 264h139zM972 116v-116h-795v1363h795v-117h-668v-491h633v-115h-633v-524h668z" />
    <glyph glyph-name="Eacute" unicode="&#xc9;" horiz-adv-x="1093" 
d="M612 1513h-102l201 280h134zM972 116v-116h-795v1363h795v-117h-668v-491h633v-115h-633v-524h668z" />
    <glyph glyph-name="Ecircumflex" unicode="&#xca;" horiz-adv-x="1093" 
d="M307 1513l229 270h70l229 -270h-116l-147 176h-2l-147 -176h-116zM972 116v-116h-795v1363h795v-117h-668v-491h633v-115h-633v-524h668z" />
    <glyph glyph-name="Ecircumflexhookabove" unicode="&#x1ec2;" horiz-adv-x="1093" 
d="M972 116v-116h-795v1363h795v-117h-668v-491h633v-115h-633v-524h668zM259 1513l279 205h66l279 -205h-137l-173 127h-4l-173 -127h-137zM684 1857v68c23 9 51 17 81 17c88 0 152 -52 152 -130c0 -67 -49 -110 -103 -129l-46 62c42 14 67 34 67 65c0 38 -41 62 -82 62
c-26 0 -47 -6 -69 -15z" />
    <glyph glyph-name="Ecircumflexgrave" unicode="&#x1ec0;" horiz-adv-x="1093" 
d="M972 116v-116h-795v1363h795v-117h-668v-491h633v-115h-633v-524h668zM259 1513l279 205h66l279 -205h-137l-173 127h-4l-173 -127h-137zM991 1709h-100l-279 228h142z" />
    <glyph glyph-name="Ecircumflextilde" unicode="&#x1ec4;" horiz-adv-x="1093" 
d="M259 1513l279 205h66l279 -205h-137l-173 127h-4l-173 -127h-137zM397 1784h-87c0 93 62 155 151 155c102 0 132 -90 207 -90c45 0 72 28 75 77h87c0 -83 -64 -159 -161 -159c-101 0 -129 92 -202 92c-39 0 -69 -26 -70 -75zM972 116v-116h-795v1363h795v-117h-668v-491
h633v-115h-633v-524h668z" />
    <glyph glyph-name="Ecircumflexdotbelow" unicode="&#x1ec6;" horiz-adv-x="1093" 
d="M493 -279c0 49 35 84 79 84c47 0 82 -35 82 -84c0 -46 -35 -82 -82 -82c-44 0 -79 36 -79 82zM307 1513l229 270h70l229 -270h-116l-147 176h-2l-147 -176h-116zM972 116v-116h-795v1363h795v-117h-668v-491h633v-115h-633v-524h668z" />
    <glyph glyph-name="Ecircumflexacute" unicode="&#x1ebe;" horiz-adv-x="1093" 
d="M972 116v-116h-795v1363h795v-117h-668v-491h633v-115h-633v-524h668zM259 1513l279 205h66l279 -205h-137l-173 127h-4l-173 -127h-137zM743 1717l214 220h142l-255 -220h-101z" />
    <glyph glyph-name="Edieresis" unicode="&#xcb;" horiz-adv-x="1093" 
d="M424 1503c-42 0 -75 34 -75 78c0 45 33 78 75 78c43 0 76 -33 76 -78c0 -44 -33 -78 -76 -78zM720 1503c-42 0 -75 34 -75 78c0 45 33 78 75 78c44 0 76 -33 76 -78c0 -44 -32 -78 -76 -78zM972 116v-116h-795v1363h795v-117h-668v-491h633v-115h-633v-524h668z" />
    <glyph glyph-name="Edotbelow" unicode="&#x1eb8;" horiz-adv-x="1093" 
d="M493 -279c0 49 35 84 79 84c47 0 82 -35 82 -84c0 -46 -35 -82 -82 -82c-44 0 -79 36 -79 82zM972 116v-116h-795v1363h795v-117h-668v-491h633v-115h-633v-524h668z" />
    <glyph glyph-name="Einvertedbreve" unicode="&#x206;" horiz-adv-x="1093" 
d="M972 116v-116h-795v1363h795v-117h-668v-491h633v-115h-633v-524h668zM571 1688c-123 0 -183 -79 -183 -171h-94c-1 118 83 257 277 257s274 -140 275 -257h-95c0 92 -57 171 -180 171z" />
    <glyph glyph-name="Ehookabove" unicode="&#x1eba;" horiz-adv-x="1093" 
d="M972 116v-116h-795v1363h795v-117h-668v-491h633v-115h-633v-524h668zM450 1657v73c15 8 53 19 95 19c99 0 179 -50 179 -137c0 -88 -85 -128 -126 -145l-50 64c38 14 83 39 83 77c0 45 -43 64 -92 64c-40 0 -67 -7 -89 -15z" />
    <glyph glyph-name="Ecaron" unicode="&#x11a;" horiz-adv-x="1093" 
d="M307 1782h116l147 -176h2l147 176h116l-229 -270h-70zM972 116v-116h-795v1363h795v-117h-668v-491h633v-115h-633v-524h668z" />
    <glyph glyph-name="Emacron" unicode="&#x112;" horiz-adv-x="1093" 
d="M972 116v-116h-795v1363h795v-117h-668v-491h633v-115h-633v-524h668zM838 1531h-534v85h534v-85z" />
    <glyph glyph-name="Emacrongrave" unicode="&#x1e14;" horiz-adv-x="1093" 
d="M648 1723h-126l-297 210h155zM838 1531h-534v85h534v-85zM972 116v-116h-795v1363h795v-117h-668v-491h633v-115h-633v-524h668z" />
    <glyph glyph-name="Emacronacute" unicode="&#x1e16;" horiz-adv-x="1093" 
d="M494 1723l268 210h155l-297 -210h-126zM838 1531h-534v85h534v-85zM972 116v-116h-795v1363h795v-117h-668v-491h633v-115h-633v-524h668z" />
    <glyph glyph-name="Etilde" unicode="&#x1ebc;" horiz-adv-x="1093" 
d="M972 116v-116h-795v1363h795v-117h-668v-491h633v-115h-633v-524h668zM680 1494c-123 0 -153 112 -228 112c-50 0 -69 -53 -70 -102h-84c0 102 54 181 154 181c122 0 152 -113 228 -113c49 0 71 48 74 103h84c0 -90 -50 -181 -158 -181z" />
    <glyph glyph-name="Ecircumflexbelow" unicode="&#x1e18;" horiz-adv-x="1093" 
d="M972 116v-116h-795v1363h795v-117h-668v-491h633v-115h-633v-524h668zM316 -409l214 288h82l214 -288h-108l-146 208h-2l-146 -208h-108z" />
    <glyph glyph-name="Ebreve" unicode="&#x114;" horiz-adv-x="1093" 
d="M972 116v-116h-795v1363h795v-117h-668v-491h633v-115h-633v-524h668zM294 1755h94c0 -92 60 -167 183 -167s180 75 180 167h95c-1 -117 -81 -253 -275 -253s-278 135 -277 253z" />
    <glyph glyph-name="Etildebelow" unicode="&#x1e1a;" horiz-adv-x="1093" 
d="M684 -375c-130 0 -161 137 -240 137c-51 0 -74 -62 -75 -120h-87c0 113 57 203 162 203c130 0 160 -137 240 -137c52 0 77 61 80 122h87c0 -99 -53 -205 -167 -205zM972 116v-116h-795v1363h795v-117h-668v-491h633v-115h-633v-524h668z" />
    <glyph glyph-name="Edotaccent" unicode="&#x116;" horiz-adv-x="1093" 
d="M481 1642c0 50 40 90 90 90s90 -40 90 -90c0 -49 -40 -89 -90 -89s-90 40 -90 89zM972 116v-116h-795v1363h795v-117h-668v-491h633v-115h-633v-524h668z" />
    <glyph glyph-name="Ecedilla" unicode="&#x228;" horiz-adv-x="1093" 
d="M558 -464c-58 -2 -114 8 -141 15v86c27 -8 81 -14 119 -14c62 0 132 23 132 90c0 70 -70 82 -152 82h-51v64l56 141h-344v1363h795v-117h-668v-491h633v-115h-633v-524h668v-116h-356l-49 -126c119 0 212 -47 212 -157c0 -124 -106 -177 -221 -181z" />
    <glyph glyph-name="Ecedillabreve" unicode="&#x1e1c;" horiz-adv-x="1093" 
d="M558 -464c-58 -2 -114 8 -141 15v86c27 -8 81 -14 119 -14c62 0 132 23 132 90c0 70 -70 82 -152 82h-51v64l56 141h-344v1363h795v-117h-668v-491h633v-115h-633v-524h668v-116h-356l-49 -126c119 0 212 -47 212 -157c0 -124 -106 -177 -221 -181zM294 1755h94
c0 -92 60 -167 183 -167s180 75 180 167h95c-1 -117 -81 -253 -275 -253s-278 135 -277 253z" />
    <glyph glyph-name="Eogonek" unicode="&#x118;" horiz-adv-x="1094" 
d="M973 -362c-23 -9 -62 -18 -106 -18c-107 0 -200 55 -200 180c0 88 50 154 126 200h-616v1363h795v-117h-669v-491h634v-115h-633v-524h668v-106c-98 -27 -193 -88 -193 -189c0 -67 45 -104 114 -104c30 0 60 5 80 11v-90z" />
    <glyph glyph-name="F" unicode="F" horiz-adv-x="1029" 
d="M304 0h-127v1363h783v-117h-656v-513h602v-116h-602v-617z" />
    <glyph glyph-name="Fdotaccent" unicode="&#x1e1e;" horiz-adv-x="1029" 
d="M457 1642c0 50 40 90 90 90s90 -40 90 -90c0 -49 -40 -89 -90 -89s-90 40 -90 89zM304 0h-127v1363h783v-117h-656v-513h602v-116h-602v-617z" />
    <glyph glyph-name="G" unicode="G" horiz-adv-x="1266" 
d="M1136 972h-125c-22 181 -162 305 -363 305c-231 0 -399 -159 -399 -488v-205c0 -302 132 -498 399 -498c215 0 372 128 372 327v158h-382v116h506v-274c0 -205 -148 -443 -495 -443c-356 0 -527 246 -527 614v205c0 378 204 604 528 604c310 0 472 -206 486 -421z" />
    <glyph glyph-name="Gacute" unicode="&#x1f4;" horiz-adv-x="1266" 
d="M687 1513h-102l201 280h134zM1136 972h-125c-22 181 -162 305 -363 305c-231 0 -399 -159 -399 -488v-205c0 -302 132 -498 399 -498c215 0 372 128 372 327v158h-382v116h506v-274c0 -205 -148 -443 -495 -443c-356 0 -527 246 -527 614v205c0 378 204 604 528 604
c310 0 472 -206 486 -421z" />
    <glyph glyph-name="Gcaron" unicode="&#x1e6;" horiz-adv-x="1266" 
d="M382 1782h116l147 -176h2l147 176h116l-229 -270h-70zM1136 972h-125c-22 181 -162 305 -363 305c-231 0 -399 -159 -399 -488v-205c0 -302 132 -498 399 -498c215 0 372 128 372 327v158h-382v116h506v-274c0 -205 -148 -443 -495 -443c-356 0 -527 246 -527 614v205
c0 378 204 604 528 604c310 0 472 -206 486 -421z" />
    <glyph glyph-name="Gcircumflex" unicode="&#x11c;" horiz-adv-x="1266" 
d="M382 1513l229 270h70l229 -270h-116l-147 176h-2l-147 -176h-116zM1136 972h-125c-22 181 -162 305 -363 305c-231 0 -399 -159 -399 -488v-205c0 -302 132 -498 399 -498c215 0 372 128 372 327v158h-382v116h506v-274c0 -205 -148 -443 -495 -443
c-356 0 -527 246 -527 614v205c0 378 204 604 528 604c310 0 472 -206 486 -421z" />
    <glyph glyph-name="Gbreve" unicode="&#x11e;" horiz-adv-x="1266" 
d="M1136 972h-125c-22 181 -162 305 -363 305c-231 0 -399 -159 -399 -488v-205c0 -302 132 -498 399 -498c215 0 372 128 372 327v158h-382v116h506v-274c0 -205 -148 -443 -495 -443c-356 0 -527 246 -527 614v205c0 378 204 604 528 604c310 0 472 -206 486 -421z
M369 1755h94c0 -92 60 -167 183 -167s180 75 180 167h95c-1 -117 -81 -253 -275 -253s-278 135 -277 253z" />
    <glyph glyph-name="Gmacron" unicode="&#x1e20;" horiz-adv-x="1266" 
d="M1136 972h-125c-22 181 -162 305 -363 305c-231 0 -399 -159 -399 -488v-205c0 -302 132 -498 399 -498c215 0 372 128 372 327v158h-382v116h506v-274c0 -205 -148 -443 -495 -443c-356 0 -527 246 -527 614v205c0 378 204 604 528 604c310 0 472 -206 486 -421z
M913 1531h-534v85h534v-85z" />
    <glyph glyph-name="Gdotaccent" unicode="&#x120;" horiz-adv-x="1266" 
d="M556 1642c0 50 40 90 90 90s90 -40 90 -90c0 -49 -40 -89 -90 -89s-90 40 -90 89zM1136 972h-125c-22 181 -162 305 -363 305c-231 0 -399 -159 -399 -488v-205c0 -302 132 -498 399 -498c215 0 372 128 372 327v158h-382v116h506v-274c0 -205 -148 -443 -495 -443
c-356 0 -527 246 -527 614v205c0 378 204 604 528 604c310 0 472 -206 486 -421z" />
    <glyph glyph-name="Gcommaaccent" unicode="&#x122;" horiz-adv-x="1266" 
d="M607 -486h-100l85 335h129zM1136 972h-125c-22 181 -162 305 -363 305c-231 0 -399 -159 -399 -488v-205c0 -302 132 -498 399 -498c215 0 372 128 372 327v158h-382v116h506v-274c0 -205 -148 -443 -495 -443c-356 0 -527 246 -527 614v205c0 378 204 604 528 604
c310 0 472 -206 486 -421z" />
    <glyph glyph-name="H" unicode="H" horiz-adv-x="1348" 
d="M1171 0h-127v652h-740v-652h-127v1363h127v-595h740v595h127v-1363z" />
    <glyph glyph-name="Hdieresis" unicode="&#x1e26;" horiz-adv-x="1348" 
d="M1171 0h-127v652h-740v-652h-127v1363h127v-595h740v595h127v-1363zM525 1503c-42 0 -75 34 -75 78c0 45 33 78 75 78c43 0 76 -33 76 -78c0 -44 -33 -78 -76 -78zM821 1503c-42 0 -75 34 -75 78c0 45 33 78 75 78c44 0 76 -33 76 -78c0 -44 -32 -78 -76 -78z" />
    <glyph glyph-name="Hcaron" unicode="&#x21e;" horiz-adv-x="1348" 
d="M1171 0h-127v652h-740v-652h-127v1363h127v-595h740v595h127v-1363zM408 1782h116l147 -176h2l147 176h116l-229 -270h-70z" />
    <glyph glyph-name="Hcircumflex" unicode="&#x124;" horiz-adv-x="1348" 
d="M1171 0h-127v652h-740v-652h-127v1363h127v-595h740v595h127v-1363zM408 1513l229 270h70l229 -270h-116l-147 176h-2l-147 -176h-116z" />
    <glyph glyph-name="Hdotbelow" unicode="&#x1e24;" horiz-adv-x="1348" 
d="M1171 0h-127v652h-740v-652h-127v1363h127v-595h740v595h127v-1363zM594 -279c0 49 35 84 79 84c47 0 82 -35 82 -84c0 -46 -35 -82 -82 -82c-44 0 -79 36 -79 82z" />
    <glyph glyph-name="Hdotaccent" unicode="&#x1e22;" horiz-adv-x="1348" 
d="M1171 0h-127v652h-740v-652h-127v1363h127v-595h740v595h127v-1363zM583 1642c0 50 40 90 90 90s90 -40 90 -90c0 -49 -40 -89 -90 -89s-90 40 -90 89z" />
    <glyph glyph-name="Hbrevebelow" unicode="&#x1e2a;" horiz-adv-x="1348" 
d="M382 -150c0 -122 87 -256 291 -256s282 138 282 256h-96c0 -92 -61 -170 -186 -170s-189 78 -189 170h-102zM1171 0h-127v652h-740v-652h-127v1363h127v-595h740v595h127v-1363z" />
    <glyph glyph-name="Hcedilla" unicode="&#x1e28;" horiz-adv-x="1348" 
d="M247 -464c-57 -2 -114 8 -140 15v86c26 -8 80 -14 118 -14c62 0 132 23 132 90c0 70 -70 82 -151 82h-52v64l57 141h-34v1363h127v-595h740v595h127v-1363h-127v652h-740v-652l-48 -126c119 0 212 -47 212 -157c0 -124 -106 -177 -221 -181z" />
    <glyph glyph-name="Hbar" unicode="&#x126;" horiz-adv-x="1351" 
d="M304 747h740v263h-740v-263zM304 632v-632h-127v1010h-122v102h122v251h127v-251h740v251h127v-251h125v-102h-125v-1010h-127v632h-740z" />
    <glyph glyph-name="I" unicode="I" horiz-adv-x="493" 
d="M310 0h-127v1363h127v-1363z" />
    <glyph glyph-name="Idotaccent" unicode="&#x130;" horiz-adv-x="493" 
d="M310 0h-127v1363h127v-1363zM156 1642c0 50 40 90 90 90s90 -40 90 -90c0 -49 -40 -89 -90 -89s-90 40 -90 89z" />
    <glyph glyph-name="Igrave" unicode="&#xcc;" horiz-adv-x="493" 
d="M310 0h-127v1363h127v-1363zM307 1513h-102l-233 280h134z" />
    <glyph glyph-name="Idblgrave" unicode="&#x208;" horiz-adv-x="493" 
d="M310 0h-127v1363h127v-1363zM186 1513h-104l-258 264h139zM456 1513h-103l-258 264h139z" />
    <glyph glyph-name="Iacute" unicode="&#xcd;" horiz-adv-x="493" 
d="M310 0h-127v1363h127v-1363zM287 1513h-102l201 280h134z" />
    <glyph glyph-name="Icircumflex" unicode="&#xce;" horiz-adv-x="497" 
d="M312 0h-127v1363h127v-1363zM-17 1513l229 270h70l229 -270h-116l-147 176h-2l-147 -176h-116z" />
    <glyph glyph-name="Icaron" unicode="&#x1cf;" horiz-adv-x="496" 
d="M312 0h-127v1363h127v-1363zM-18 1782h116l147 -176h2l147 176h116l-229 -270h-70z" />
    <glyph glyph-name="Idieresis" unicode="&#xcf;" horiz-adv-x="493" 
d="M310 0h-127v1363h127v-1363zM99 1503c-42 0 -75 34 -75 78c0 45 33 78 75 78c43 0 76 -33 76 -78c0 -44 -33 -78 -76 -78zM395 1503c-42 0 -75 34 -75 78c0 45 33 78 75 78c44 0 76 -33 76 -78c0 -44 -32 -78 -76 -78z" />
    <glyph glyph-name="Idieresisacute" unicode="&#x1e2e;" horiz-adv-x="493" 
d="M310 0h-127v1363h127v-1363zM175 1723l268 210h155l-297 -210h-126zM99 1503c-42 0 -75 34 -75 78c0 45 33 78 75 78c43 0 76 -33 76 -78c0 -44 -33 -78 -76 -78zM395 1503c-42 0 -75 34 -75 78c0 45 33 78 75 78c44 0 76 -33 76 -78c0 -44 -32 -78 -76 -78z" />
    <glyph glyph-name="Ibreve" unicode="&#x12c;" horiz-adv-x="493" 
d="M310 0h-127v1363h127v-1363zM-31 1755h94c0 -92 60 -167 183 -167s180 75 180 167h95c-1 -117 -81 -253 -275 -253s-278 135 -277 253z" />
    <glyph glyph-name="Idotbelow" unicode="&#x1eca;" horiz-adv-x="494" 
d="M310 0h-127v1363h127v-1363zM168 -279c0 49 35 84 79 84c47 0 82 -35 82 -84c0 -46 -35 -82 -82 -82c-44 0 -79 36 -79 82z" />
    <glyph glyph-name="Iinvertedbreve" unicode="&#x20a;" horiz-adv-x="493" 
d="M310 0h-127v1363h127v-1363zM246 1688c-123 0 -183 -79 -183 -171h-94c-1 118 83 257 277 257s274 -140 275 -257h-95c0 92 -57 171 -180 171z" />
    <glyph glyph-name="Imacron" unicode="&#x12a;" horiz-adv-x="493" 
d="M310 0h-127v1363h127v-1363zM513 1531h-534v85h534v-85z" />
    <glyph glyph-name="Itildebelow" unicode="&#x1e2c;" horiz-adv-x="493" 
d="M309 0h-127v1363h127v-1363zM359 -375c-130 0 -161 137 -240 137c-51 0 -74 -62 -75 -120h-87c0 113 57 203 162 203c130 0 160 -137 240 -137c52 0 77 61 80 122h87c0 -99 -53 -205 -167 -205z" />
    <glyph glyph-name="Ihookabove" unicode="&#x1ec8;" horiz-adv-x="493" 
d="M310 0h-127v1363h127v-1363zM125 1657v73c15 8 53 19 95 19c99 0 179 -50 179 -137c0 -88 -85 -128 -126 -145l-50 64c38 14 83 39 83 77c0 45 -43 64 -92 64c-40 0 -67 -7 -89 -15z" />
    <glyph glyph-name="Itilde" unicode="&#x128;" horiz-adv-x="493" 
d="M310 0h-127v1363h127v-1363zM359 1494c-123 0 -153 112 -228 112c-50 0 -69 -53 -70 -102h-84c0 102 54 181 154 181c122 0 152 -113 228 -113c49 0 71 48 74 103h84c0 -90 -50 -181 -158 -181z" />
    <glyph glyph-name="Iogonek" unicode="&#x12e;" horiz-adv-x="493" 
d="M342 -361c-17 -9 -56 -19 -110 -19c-113 0 -199 58 -199 181c0 119 81 189 150 229v1333h127v-1363c-78 -31 -163 -87 -163 -179c0 -68 46 -104 113 -104c26 0 58 4 82 11v-89z" />
    <glyph glyph-name="J" unicode="J" horiz-adv-x="941" 
d="M38 299h126c3 -112 89 -208 232 -208c144 0 251 81 251 274v998h127v-985c0 -275 -156 -403 -378 -403c-232 0 -358 150 -358 324z" />
    <glyph glyph-name="Jcircumflex" unicode="&#x134;" horiz-adv-x="941" 
d="M38 299h126c3 -112 89 -208 232 -208c144 0 251 81 251 274v998h127v-985c0 -275 -156 -403 -378 -403c-232 0 -358 150 -358 324zM445 1513l229 270h70l229 -270h-116l-147 176h-2l-147 -176h-116z" />
    <glyph glyph-name="K" unicode="K" horiz-adv-x="1157" 
d="M1101 1363l-531 -590l561 -773h-164l-492 685l-171 -184v-501h-127v1363h127v-693h5l637 693h155z" />
    <glyph glyph-name="Kacute" unicode="&#x1e30;" horiz-adv-x="1157" 
d="M597 1513h-102l201 280h134zM1101 1363l-531 -590l561 -773h-164l-492 685l-171 -184v-501h-127v1363h127v-693h5l637 693h155z" />
    <glyph glyph-name="Kcaron" unicode="&#x1e8;" horiz-adv-x="1157" 
d="M1101 1363l-531 -590l561 -773h-164l-492 685l-171 -184v-501h-127v1363h127v-693h5l637 693h155zM292 1782h116l147 -176h2l147 176h116l-229 -270h-70z" />
    <glyph glyph-name="Kdotbelow" unicode="&#x1e32;" horiz-adv-x="1157" 
d="M495 -279c0 49 35 84 79 84c47 0 82 -35 82 -84c0 -46 -35 -82 -82 -82c-44 0 -79 36 -79 82zM1101 1363l-531 -590l561 -773h-164l-492 685l-171 -184v-501h-127v1363h127v-693h5l637 693h155z" />
    <glyph glyph-name="Klinebelow" unicode="&#x1e34;" horiz-adv-x="1157" 
d="M1101 1363l-531 -590l561 -773h-164l-492 685l-171 -184v-501h-127v1363h127v-693h5l637 693h155zM846 -318h-545v90h545v-90z" />
    <glyph glyph-name="Kcommaaccent" unicode="&#x136;" horiz-adv-x="1157" 
d="M1101 1363l-531 -590l561 -773h-164l-492 685l-171 -184v-501h-127v1363h127v-693h5l637 693h155zM534 -486h-100l85 335h129z" />
    <glyph glyph-name="L" unicode="L" horiz-adv-x="996" 
d="M960 116v-116h-783v1363h127v-1247h656z" />
    <glyph glyph-name="Lacute" unicode="&#x139;" horiz-adv-x="996" 
d="M280 1513h-102l201 280h134zM960 116v-116h-783v1363h127v-1247h656z" />
    <glyph glyph-name="Lcircumflexbelow" unicode="&#x1e3c;" horiz-adv-x="996" 
d="M960 116v-116h-783v1363h127v-1247h656zM255 -409l214 288h82l214 -288h-108l-146 208h-2l-146 -208h-108z" />
    <glyph glyph-name="Ldotbelow" unicode="&#x1e36;" horiz-adv-x="996" 
d="M432 -279c0 49 35 84 79 84c47 0 82 -35 82 -84c0 -46 -35 -82 -82 -82c-44 0 -79 36 -79 82zM960 116v-116h-783v1363h127v-1247h656z" />
    <glyph glyph-name="Ldotbelowmacron" unicode="&#x1e38;" horiz-adv-x="996" 
d="M432 -279c0 49 35 84 79 84c47 0 82 -35 82 -84c0 -46 -35 -82 -82 -82c-44 0 -79 36 -79 82zM960 116v-116h-783v1363h127v-1247h656zM506 1531h-534v85h534v-85z" />
    <glyph glyph-name="Llinebelow" unicode="&#x1e3a;" horiz-adv-x="996" 
d="M783 -318h-545v90h545v-90zM960 116v-116h-783v1363h127v-1247h656z" />
    <glyph glyph-name="Lcommaaccent" unicode="&#x13b;" horiz-adv-x="996" 
d="M471 -486h-100l85 335h129zM960 116v-116h-783v1363h127v-1247h656z" />
    <glyph glyph-name="Lcaron" unicode="&#x13d;" horiz-adv-x="996" 
d="M584 1437h127l-41 -488h-86v488zM960 116v-116h-783v1363h127v-1247h656z" />
    <glyph glyph-name="Lslash" unicode="&#x141;" horiz-adv-x="996" 
d="M960 0h-783v560l-139 -81v127l139 81v676h127v-602l411 242v-129l-411 -241v-517h656v-116z" />
    <glyph glyph-name="M" unicode="M" horiz-adv-x="1576" 
d="M297 0h-117v1363h124l482 -1115h4l483 1115h123v-1363h-116v1077h-4l-430 -972h-116l-429 972h-4v-1077z" />
    <glyph glyph-name="Macute" unicode="&#x1e3e;" horiz-adv-x="1576" 
d="M829 1513h-102l201 280h134zM297 0h-117v1363h124l482 -1115h4l483 1115h123v-1363h-116v1077h-4l-430 -972h-116l-429 972h-4v-1077z" />
    <glyph glyph-name="Mdotaccent" unicode="&#x1e40;" horiz-adv-x="1576" 
d="M698 1642c0 50 40 90 90 90s90 -40 90 -90c0 -49 -40 -89 -90 -89s-90 40 -90 89zM297 0h-117v1363h124l482 -1115h4l483 1115h123v-1363h-116v1077h-4l-430 -972h-116l-429 972h-4v-1077z" />
    <glyph glyph-name="Mdotbelow" unicode="&#x1e42;" horiz-adv-x="1576" 
d="M708 -279c0 49 35 84 79 84c47 0 82 -35 82 -84c0 -46 -35 -82 -82 -82c-44 0 -79 36 -79 82zM297 0h-117v1363h124l482 -1115h4l483 1115h123v-1363h-116v1077h-4l-430 -972h-116l-429 972h-4v-1077z" />
    <glyph glyph-name="N" unicode="N" horiz-adv-x="1348" 
d="M300 0h-123v1363h128l739 -1143h4v1143h123v-1363h-128l-740 1143h-3v-1143z" />
    <glyph glyph-name="Ngrave" unicode="&#x1f8;" horiz-adv-x="1348" 
d="M734 1513h-102l-233 280h134zM300 0h-123v1363h128l739 -1143h4v1143h123v-1363h-128l-740 1143h-3v-1143z" />
    <glyph glyph-name="Nacute" unicode="&#x143;" horiz-adv-x="1348" 
d="M714 1513h-102l201 280h134zM300 0h-123v1363h128l739 -1143h4v1143h123v-1363h-128l-740 1143h-3v-1143z" />
    <glyph glyph-name="Ntilde" unicode="&#xd1;" horiz-adv-x="1348" 
d="M782 1494c-123 0 -153 112 -228 112c-50 0 -69 -53 -70 -102h-84c0 102 54 181 154 181c122 0 152 -113 228 -113c49 0 71 48 74 103h84c0 -90 -50 -181 -158 -181zM300 0h-123v1363h128l739 -1143h4v1143h123v-1363h-128l-740 1143h-3v-1143z" />
    <glyph glyph-name="Ndotbelow" unicode="&#x1e46;" horiz-adv-x="1348" 
d="M595 -279c0 49 35 84 79 84c47 0 82 -35 82 -84c0 -46 -35 -82 -82 -82c-44 0 -79 36 -79 82zM300 0h-123v1363h128l739 -1143h4v1143h123v-1363h-128l-740 1143h-3v-1143z" />
    <glyph glyph-name="Ndotaccent" unicode="&#x1e44;" horiz-adv-x="1348" 
d="M583 1642c0 50 40 90 90 90s90 -40 90 -90c0 -49 -40 -89 -90 -89s-90 40 -90 89zM300 0h-123v1363h128l739 -1143h4v1143h123v-1363h-128l-740 1143h-3v-1143z" />
    <glyph glyph-name="Ncaron" unicode="&#x147;" horiz-adv-x="1348" 
d="M409 1782h116l147 -176h2l147 176h116l-229 -270h-70zM300 0h-123v1363h128l739 -1143h4v1143h123v-1363h-128l-740 1143h-3v-1143z" />
    <glyph glyph-name="Ncircumflexbelow" unicode="&#x1e4a;" horiz-adv-x="1348" 
d="M300 0h-123v1363h128l739 -1143h4v1143h123v-1363h-128l-740 1143h-3v-1143zM418 -409l214 288h82l214 -288h-108l-146 208h-2l-146 -208h-108z" />
    <glyph glyph-name="Nlinebelow" unicode="&#x1e48;" horiz-adv-x="1348" 
d="M946 -318h-545v90h545v-90zM300 0h-123v1363h128l739 -1143h4v1143h123v-1363h-128l-740 1143h-3v-1143z" />
    <glyph glyph-name="Ncommaaccent" unicode="&#x145;" horiz-adv-x="1348" 
d="M634 -486h-100l85 335h129zM300 0h-123v1363h128l739 -1143h4v1143h123v-1363h-128l-740 1143h-3v-1143z" />
    <glyph glyph-name="O" unicode="O" horiz-adv-x="1309" 
d="M249 789v-225c0 -311 167 -478 405 -478c239 0 406 167 406 478v225c0 311 -168 488 -406 488c-237 0 -405 -177 -405 -488zM122 566v221c0 376 207 606 534 606s531 -231 531 -607v-220c0 -375 -207 -596 -534 -596s-531 221 -531 596z" />
    <glyph glyph-name="Odieresis" unicode="&#xd6;" horiz-adv-x="1309" 
d="M506 1503c-42 0 -75 34 -75 78c0 45 33 78 75 78c43 0 76 -33 76 -78c0 -44 -33 -78 -76 -78zM802 1503c-42 0 -75 34 -75 78c0 45 33 78 75 78c44 0 76 -33 76 -78c0 -44 -32 -78 -76 -78zM249 789v-225c0 -311 167 -478 405 -478c239 0 406 167 406 478v225
c0 311 -168 488 -406 488c-237 0 -405 -177 -405 -488zM122 566v221c0 376 207 606 534 606s531 -231 531 -607v-220c0 -375 -207 -596 -534 -596s-531 221 -531 596z" />
    <glyph glyph-name="Oslash" unicode="&#xd8;" horiz-adv-x="1307" 
d="M652 -30c-167 0 -301 58 -392 165l-106 -129l-75 62l122 149c-51 93 -79 211 -79 349v221c0 376 205 606 532 606c162 0 293 -57 384 -158l107 129l79 -56l-127 -153c57 -98 88 -222 88 -368v-221c0 -375 -206 -596 -533 -596zM248 564c0 -92 15 -171 42 -238l666 809
c-71 91 -176 142 -303 142c-238 0 -405 -177 -405 -488v-225zM653 86c239 0 405 167 405 478v225c0 100 -17 186 -49 257l-668 -812c72 -96 180 -148 312 -148z" />
    <glyph glyph-name="Otilde" unicode="&#xd5;" horiz-adv-x="1309" 
d="M249 789v-225c0 -311 167 -478 405 -478c239 0 406 167 406 478v225c0 311 -168 488 -406 488c-237 0 -405 -177 -405 -488zM122 566v221c0 376 207 606 534 606s531 -231 531 -607v-220c0 -375 -207 -596 -534 -596s-531 221 -531 596zM762 1494
c-123 0 -153 112 -228 112c-50 0 -69 -53 -70 -102h-84c0 102 54 181 154 181c122 0 152 -113 228 -113c49 0 71 48 74 103h84c0 -90 -50 -181 -158 -181z" />
    <glyph glyph-name="Oacute" unicode="&#xd3;" horiz-adv-x="1309" 
d="M694 1513h-102l201 280h134zM249 789v-225c0 -311 167 -478 405 -478c239 0 406 167 406 478v225c0 311 -168 488 -406 488c-237 0 -405 -177 -405 -488zM122 566v221c0 376 207 606 534 606s531 -231 531 -607v-220c0 -375 -207 -596 -534 -596s-531 221 -531 596z" />
    <glyph glyph-name="Ocircumflex" unicode="&#xd4;" horiz-adv-x="1309" 
d="M388 1513l229 270h70l229 -270h-116l-147 176h-2l-147 -176h-116zM249 789v-225c0 -311 167 -478 405 -478c239 0 406 167 406 478v225c0 311 -168 488 -406 488c-237 0 -405 -177 -405 -488zM122 566v221c0 376 207 606 534 606s531 -231 531 -607v-220
c0 -375 -207 -596 -534 -596s-531 221 -531 596z" />
    <glyph glyph-name="Ograve" unicode="&#xd2;" horiz-adv-x="1309" 
d="M714 1513h-102l-233 280h134zM249 789v-225c0 -311 167 -478 405 -478c239 0 406 167 406 478v225c0 311 -168 488 -406 488c-237 0 -405 -177 -405 -488zM122 566v221c0 376 207 606 534 606s531 -231 531 -607v-220c0 -375 -207 -596 -534 -596s-531 221 -531 596z" />
    <glyph glyph-name="Ocircumflexhookabove" unicode="&#x1ed4;" horiz-adv-x="1309" 
d="M341 1513l279 205h66l279 -205h-137l-173 127h-4l-173 -127h-137zM766 1857v68c23 9 51 17 81 17c88 0 152 -52 152 -130c0 -67 -49 -110 -103 -129l-46 62c42 14 67 34 67 65c0 38 -41 62 -82 62c-26 0 -47 -6 -69 -15zM249 789v-225c0 -311 167 -478 405 -478
c239 0 406 167 406 478v225c0 311 -168 488 -406 488c-237 0 -405 -177 -405 -488zM122 566v221c0 376 207 606 534 606s531 -231 531 -607v-220c0 -375 -207 -596 -534 -596s-531 221 -531 596z" />
    <glyph glyph-name="Ocircumflexgrave" unicode="&#x1ed2;" horiz-adv-x="1309" 
d="M341 1513l279 205h66l279 -205h-137l-173 127h-4l-173 -127h-137zM1073 1709h-100l-279 228h142zM249 789v-225c0 -311 167 -478 405 -478c239 0 406 167 406 478v225c0 311 -168 488 -406 488c-237 0 -405 -177 -405 -488zM122 566v221c0 376 207 606 534 606
s531 -231 531 -607v-220c0 -375 -207 -596 -534 -596s-531 221 -531 596z" />
    <glyph glyph-name="Odotbelow" unicode="&#x1ecc;" horiz-adv-x="1309" 
d="M574 -279c0 49 35 84 79 84c47 0 82 -35 82 -84c0 -46 -35 -82 -82 -82c-44 0 -79 36 -79 82zM249 789v-225c0 -311 167 -478 405 -478c239 0 406 167 406 478v225c0 311 -168 488 -406 488c-237 0 -405 -177 -405 -488zM122 566v221c0 376 207 606 534 606
s531 -231 531 -607v-220c0 -375 -207 -596 -534 -596s-531 221 -531 596z" />
    <glyph glyph-name="Odblgrave" unicode="&#x20c;" horiz-adv-x="1309" 
d="M593 1513h-104l-258 264h139zM863 1513h-103l-258 264h139zM249 789v-225c0 -311 167 -478 405 -478c239 0 406 167 406 478v225c0 311 -168 488 -406 488c-237 0 -405 -177 -405 -488zM122 566v221c0 376 207 606 534 606s531 -231 531 -607v-220
c0 -375 -207 -596 -534 -596s-531 221 -531 596z" />
    <glyph glyph-name="Otildeacute" unicode="&#x1e4c;" horiz-adv-x="1309" 
d="M249 789v-225c0 -311 167 -478 405 -478c239 0 406 167 406 478v225c0 311 -168 488 -406 488c-237 0 -405 -177 -405 -488zM122 566v221c0 376 207 606 534 606s531 -231 531 -607v-220c0 -375 -207 -596 -534 -596s-531 221 -531 596zM567 1723l268 210h156l-298 -210
h-126zM762 1494c-123 0 -153 112 -228 112c-50 0 -69 -53 -70 -102h-84c0 102 54 181 154 181c122 0 152 -113 228 -113c49 0 71 48 74 103h84c0 -90 -50 -181 -158 -181z" />
    <glyph glyph-name="Omacronacute" unicode="&#x1e52;" horiz-adv-x="1309" 
d="M576 1723l268 210h155l-297 -210h-126zM920 1531h-534v85h534v-85zM249 789v-225c0 -311 167 -478 405 -478c239 0 406 167 406 478v225c0 311 -168 488 -406 488c-237 0 -405 -177 -405 -488zM122 566v221c0 376 207 606 534 606s531 -231 531 -607v-220
c0 -375 -207 -596 -534 -596s-531 221 -531 596z" />
    <glyph glyph-name="Ocircumflextilde" unicode="&#x1ed6;" horiz-adv-x="1309" 
d="M341 1513l279 205h66l279 -205h-137l-173 127h-4l-173 -127h-137zM479 1784h-87c0 93 62 155 151 155c102 0 132 -90 207 -90c45 0 72 28 75 77h87c0 -83 -64 -159 -161 -159c-101 0 -129 92 -202 92c-39 0 -69 -26 -70 -75zM249 789v-225c0 -311 167 -478 405 -478
c239 0 406 167 406 478v225c0 311 -168 488 -406 488c-237 0 -405 -177 -405 -488zM122 566v221c0 376 207 606 534 606s531 -231 531 -607v-220c0 -375 -207 -596 -534 -596s-531 221 -531 596z" />
    <glyph glyph-name="Odotaccentmacron" unicode="&#x230;" horiz-adv-x="1309" 
d="M563 1588c0 50 40 90 90 90s90 -40 90 -90c0 -49 -40 -89 -90 -89s-90 40 -90 89zM920 1801h-534v85h534v-85zM249 789v-225c0 -311 167 -478 405 -478c239 0 406 167 406 478v225c0 311 -168 488 -406 488c-237 0 -405 -177 -405 -488zM122 566v221
c0 376 207 606 534 606s531 -231 531 -607v-220c0 -375 -207 -596 -534 -596s-531 221 -531 596z" />
    <glyph glyph-name="Omacrongrave" unicode="&#x1e50;" horiz-adv-x="1309" 
d="M730 1723h-126l-297 210h155zM920 1531h-534v85h534v-85zM249 789v-225c0 -311 167 -478 405 -478c239 0 406 167 406 478v225c0 311 -168 488 -406 488c-237 0 -405 -177 -405 -488zM122 566v221c0 376 207 606 534 606s531 -231 531 -607v-220
c0 -375 -207 -596 -534 -596s-531 221 -531 596z" />
    <glyph glyph-name="Ocaron" unicode="&#x1d1;" horiz-adv-x="1309" 
d="M388 1782h116l147 -176h2l147 176h116l-229 -270h-70zM249 789v-225c0 -311 167 -478 405 -478c239 0 406 167 406 478v225c0 311 -168 488 -406 488c-237 0 -405 -177 -405 -488zM122 566v221c0 376 207 606 534 606s531 -231 531 -607v-220c0 -375 -207 -596 -534 -596
s-531 221 -531 596z" />
    <glyph glyph-name="Oslashacute" unicode="&#x1fe;" horiz-adv-x="1307" 
d="M652 -30c-167 0 -301 58 -392 165l-106 -129l-75 62l122 149c-51 93 -79 211 -79 349v221c0 376 205 606 532 606c162 0 293 -57 384 -158l107 129l79 -56l-127 -153c57 -98 88 -222 88 -368v-221c0 -375 -206 -596 -533 -596zM248 564c0 -92 15 -171 42 -238l666 809
c-71 91 -176 142 -303 142c-238 0 -405 -177 -405 -488v-225zM653 86c239 0 405 167 405 478v225c0 100 -17 186 -49 257l-668 -812c72 -96 180 -148 312 -148zM694 1513h-102l201 280h134z" />
    <glyph glyph-name="Ohungarumlaut" unicode="&#x150;" horiz-adv-x="1309" 
d="M439 1513l223 264h139l-255 -264h-107zM710 1513l222 264h139l-255 -264h-106zM249 789v-225c0 -311 167 -478 405 -478c239 0 406 167 406 478v225c0 311 -168 488 -406 488c-237 0 -405 -177 -405 -488zM122 566v221c0 376 207 606 534 606s531 -231 531 -607v-220
c0 -375 -207 -596 -534 -596s-531 221 -531 596z" />
    <glyph glyph-name="Obreve" unicode="&#x14e;" horiz-adv-x="1309" 
d="M249 789v-225c0 -311 167 -478 405 -478c239 0 406 167 406 478v225c0 311 -168 488 -406 488c-237 0 -405 -177 -405 -488zM122 566v221c0 376 207 606 534 606s531 -231 531 -607v-220c0 -375 -207 -596 -534 -596s-531 221 -531 596zM376 1755h94
c0 -92 60 -167 183 -167s180 75 180 167h95c-1 -117 -81 -253 -275 -253s-278 135 -277 253z" />
    <glyph glyph-name="Oinvertedbreve" unicode="&#x20e;" horiz-adv-x="1309" 
d="M653 1688c-123 0 -183 -79 -183 -171h-94c-1 118 83 257 277 257s274 -140 275 -257h-95c0 92 -57 171 -180 171zM249 789v-225c0 -311 167 -478 405 -478c239 0 406 167 406 478v225c0 311 -168 488 -406 488c-237 0 -405 -177 -405 -488zM122 566v221
c0 376 207 606 534 606s531 -231 531 -607v-220c0 -375 -207 -596 -534 -596s-531 221 -531 596z" />
    <glyph glyph-name="Ohookabove" unicode="&#x1ece;" horiz-adv-x="1309" 
d="M532 1657v73c15 8 53 19 95 19c99 0 179 -50 179 -137c0 -88 -85 -128 -126 -145l-50 64c38 14 83 39 83 77c0 45 -43 64 -92 64c-40 0 -67 -7 -89 -15zM249 789v-225c0 -311 167 -478 405 -478c239 0 406 167 406 478v225c0 311 -168 488 -406 488
c-237 0 -405 -177 -405 -488zM122 566v221c0 376 207 606 534 606s531 -231 531 -607v-220c0 -375 -207 -596 -534 -596s-531 221 -531 596z" />
    <glyph glyph-name="Odieresismacron" unicode="&#x22a;" horiz-adv-x="1309" 
d="M249 789v-225c0 -311 167 -478 405 -478c239 0 406 167 406 478v225c0 311 -168 488 -406 488c-237 0 -405 -177 -405 -488zM122 566v221c0 376 207 606 534 606s531 -231 531 -607v-220c0 -375 -207 -596 -534 -596s-531 221 -531 596zM506 1503c-42 0 -75 34 -75 78
c0 45 33 78 75 78c43 0 76 -33 76 -78c0 -44 -33 -78 -76 -78zM802 1503c-42 0 -75 34 -75 78c0 45 33 78 75 78c44 0 76 -33 76 -78c0 -44 -32 -78 -76 -78zM920 1801h-534v85h534v-85z" />
    <glyph glyph-name="Otildemacron" unicode="&#x22c;" horiz-adv-x="1309" 
d="M762 1494c-123 0 -153 112 -228 112c-50 0 -69 -53 -70 -102h-84c0 102 54 181 154 181c122 0 152 -113 228 -113c49 0 71 48 74 103h84c0 -90 -50 -181 -158 -181zM920 1801h-534v85h534v-85zM249 789v-225c0 -311 167 -478 405 -478c239 0 406 167 406 478v225
c0 311 -168 488 -406 488c-237 0 -405 -177 -405 -488zM122 566v221c0 376 207 606 534 606s531 -231 531 -607v-220c0 -375 -207 -596 -534 -596s-531 221 -531 596z" />
    <glyph glyph-name="Odotaccent" unicode="&#x22e;" horiz-adv-x="1309" 
d="M563 1642c0 50 40 90 90 90s90 -40 90 -90c0 -49 -40 -89 -90 -89s-90 40 -90 89zM249 789v-225c0 -311 167 -478 405 -478c239 0 406 167 406 478v225c0 311 -168 488 -406 488c-237 0 -405 -177 -405 -488zM122 566v221c0 376 207 606 534 606s531 -231 531 -607v-220
c0 -375 -207 -596 -534 -596s-531 221 -531 596z" />
    <glyph glyph-name="Ocircumflexdotbelow" unicode="&#x1ed8;" horiz-adv-x="1309" 
d="M574 -279c0 49 35 84 79 84c47 0 82 -35 82 -84c0 -46 -35 -82 -82 -82c-44 0 -79 36 -79 82zM388 1513l229 270h70l229 -270h-116l-147 176h-2l-147 -176h-116zM249 789v-225c0 -311 167 -478 405 -478c239 0 406 167 406 478v225c0 311 -168 488 -406 488
c-237 0 -405 -177 -405 -488zM122 566v221c0 376 207 606 534 606s531 -231 531 -607v-220c0 -375 -207 -596 -534 -596s-531 221 -531 596z" />
    <glyph glyph-name="Ocircumflexacute" unicode="&#x1ed0;" horiz-adv-x="1309" 
d="M341 1513l279 205h66l279 -205h-137l-173 127h-4l-173 -127h-137zM825 1717l214 220h142l-255 -220h-101zM249 789v-225c0 -311 167 -478 405 -478c239 0 406 167 406 478v225c0 311 -168 488 -406 488c-237 0 -405 -177 -405 -488zM122 566v221c0 376 207 606 534 606
s531 -231 531 -607v-220c0 -375 -207 -596 -534 -596s-531 221 -531 596z" />
    <glyph glyph-name="Otildedieresis" unicode="&#x1e4e;" horiz-adv-x="1309" 
d="M506 1749c-42 0 -75 34 -75 78c0 45 33 78 75 78c43 0 76 -33 76 -78c0 -44 -33 -78 -76 -78zM802 1749c-42 0 -75 34 -75 78c0 45 33 78 75 78c44 0 76 -33 76 -78c0 -44 -32 -78 -76 -78zM762 1494c-123 0 -153 112 -228 112c-50 0 -69 -53 -70 -102h-84
c0 102 54 181 154 181c122 0 152 -113 228 -113c49 0 71 48 74 103h84c0 -90 -50 -181 -158 -181zM249 789v-225c0 -311 167 -478 405 -478c239 0 406 167 406 478v225c0 311 -168 488 -406 488c-237 0 -405 -177 -405 -488zM122 566v221c0 376 207 606 534 606
s531 -231 531 -607v-220c0 -375 -207 -596 -534 -596s-531 221 -531 596z" />
    <glyph glyph-name="Omacron" unicode="&#x14c;" horiz-adv-x="1309" 
d="M249 789v-225c0 -311 167 -478 405 -478c239 0 406 167 406 478v225c0 311 -168 488 -406 488c-237 0 -405 -177 -405 -488zM122 566v221c0 376 207 606 534 606s531 -231 531 -607v-220c0 -375 -207 -596 -534 -596s-531 221 -531 596zM921 1531h-534v85h534v-85z" />
    <glyph glyph-name="Oogonek" unicode="&#x1ea;" horiz-adv-x="1309" 
d="M249 789v-225c0 -311 166 -478 405 -478s406 167 406 478v225c0 311 -168 488 -406 488s-405 -177 -405 -488zM643 -30c-314 0 -521 222 -521 596v221c0 376 206 606 533 606s532 -231 532 -607v-220c0 -245 -83 -389 -183 -491c-82 -87 -164 -155 -164 -246
c0 -72 51 -108 123 -108c25 0 54 4 78 12l-1 -94c-13 -7 -45 -19 -106 -19c-106 0 -207 58 -207 185c0 77 37 148 108 205l-3 6c-61 -33 -118 -46 -189 -46z" />
    <glyph glyph-name="Oogonekmacron" unicode="&#x1ec;" horiz-adv-x="1307" 
d="M249 789v-225c0 -311 166 -478 405 -478s406 167 406 478v225c0 311 -168 488 -406 488s-405 -177 -405 -488zM643 -30c-314 0 -521 222 -521 596v221c0 376 206 606 533 606s532 -231 532 -607v-220c0 -245 -83 -389 -183 -491c-82 -87 -164 -155 -164 -246
c0 -72 51 -108 123 -108c25 0 54 4 78 12l-1 -94c-13 -7 -45 -19 -106 -19c-106 0 -207 58 -207 185c0 77 37 148 108 205l-3 6c-61 -33 -118 -46 -189 -46zM920 1531h-534v85h534v-85z" />
    <glyph glyph-name="Ohorn" unicode="&#x1a0;" horiz-adv-x="1307" 
d="M1185 566c0 -375 -206 -596 -533 -596c-328 0 -530 221 -530 596v221c0 376 206 606 532 606c186 0 277 -86 403 -86c105 0 142 62 142 156v92h116v-90c0 -183 -103 -260 -262 -249l-3 -6c73 -82 135 -242 135 -424v-220zM248 789v-225c0 -311 167 -478 405 -478
c239 0 405 167 405 478v225c0 311 -167 488 -405 488c-237 0 -405 -177 -405 -488z" />
    <glyph glyph-name="Ohorndotbelow" unicode="&#x1ee2;" horiz-adv-x="1307" 
d="M575 -279c0 49 35 84 79 84c47 0 82 -35 82 -84c0 -46 -35 -82 -82 -82c-44 0 -79 36 -79 82zM1185 566c0 -375 -206 -596 -533 -596c-328 0 -530 221 -530 596v221c0 376 206 606 532 606c186 0 277 -86 403 -86c105 0 142 62 142 156v92h116v-90
c0 -183 -103 -260 -262 -249l-3 -6c73 -82 135 -242 135 -424v-220zM248 789v-225c0 -311 167 -478 405 -478c239 0 405 167 405 478v225c0 311 -167 488 -405 488c-237 0 -405 -177 -405 -488z" />
    <glyph glyph-name="Ohornhookabove" unicode="&#x1ede;" horiz-adv-x="1307" 
d="M532 1657v73c15 8 53 19 95 19c99 0 179 -50 179 -137c0 -88 -85 -128 -126 -145l-50 64c38 14 83 39 83 77c0 45 -43 64 -92 64c-40 0 -67 -7 -89 -15zM1185 566c0 -375 -206 -596 -533 -596c-328 0 -530 221 -530 596v221c0 376 206 606 532 606c186 0 277 -86 403 -86
c105 0 142 62 142 156v92h116v-90c0 -183 -103 -260 -262 -249l-3 -6c73 -82 135 -242 135 -424v-220zM248 789v-225c0 -311 167 -478 405 -478c239 0 405 167 405 478v225c0 311 -167 488 -405 488c-237 0 -405 -177 -405 -488z" />
    <glyph glyph-name="Ohorntilde" unicode="&#x1ee0;" horiz-adv-x="1307" 
d="M1185 566c0 -375 -206 -596 -533 -596c-328 0 -530 221 -530 596v221c0 376 206 606 532 606c186 0 277 -86 403 -86c105 0 142 62 142 156v92h116v-90c0 -183 -103 -260 -262 -249l-3 -6c73 -82 135 -242 135 -424v-220zM248 789v-225c0 -311 167 -478 405 -478
c239 0 405 167 405 478v225c0 311 -167 488 -405 488c-237 0 -405 -177 -405 -488zM762 1494c-123 0 -153 112 -228 112c-50 0 -69 -53 -70 -102h-84c0 102 54 181 154 181c122 0 152 -113 228 -113c49 0 71 48 74 103h84c0 -90 -50 -181 -158 -181z" />
    <glyph glyph-name="Ohorngrave" unicode="&#x1edc;" horiz-adv-x="1307" 
d="M714 1513h-102l-233 280h134zM1185 566c0 -375 -206 -596 -533 -596c-328 0 -530 221 -530 596v221c0 376 206 606 532 606c186 0 277 -86 403 -86c105 0 142 62 142 156v92h116v-90c0 -183 -103 -260 -262 -249l-3 -6c73 -82 135 -242 135 -424v-220zM248 789v-225
c0 -311 167 -478 405 -478c239 0 405 167 405 478v225c0 311 -167 488 -405 488c-237 0 -405 -177 -405 -488z" />
    <glyph glyph-name="Ohornacute" unicode="&#x1eda;" horiz-adv-x="1307" 
d="M694 1513h-102l201 280h134zM1185 566c0 -375 -206 -596 -533 -596c-328 0 -530 221 -530 596v221c0 376 206 606 532 606c186 0 277 -86 403 -86c105 0 142 62 142 156v92h116v-90c0 -183 -103 -260 -262 -249l-3 -6c73 -82 135 -242 135 -424v-220zM248 789v-225
c0 -311 167 -478 405 -478c239 0 405 167 405 478v225c0 311 -167 488 -405 488c-237 0 -405 -177 -405 -488z" />
    <glyph glyph-name="P" unicode="P" horiz-adv-x="1141" 
d="M177 1363h468c261 0 427 -163 427 -412c0 -251 -166 -412 -427 -412h-341v-539h-127v1363zM304 1246v-591h260c239 0 377 70 377 296c0 187 -110 295 -301 295h-336z" />
    <glyph glyph-name="Pdotaccent" unicode="&#x1e56;" horiz-adv-x="1141" 
d="M177 1363h468c261 0 427 -163 427 -412c0 -251 -166 -412 -427 -412h-341v-539h-127v1363zM304 1246v-591h260c239 0 377 70 377 296c0 187 -110 295 -301 295h-336zM456 1642c0 50 40 90 90 90s90 -40 90 -90c0 -49 -40 -89 -90 -89s-90 40 -90 89z" />
    <glyph glyph-name="Pacute" unicode="&#x1e54;" horiz-adv-x="1141" 
d="M587 1513h-102l201 280h134zM177 1363h468c261 0 427 -163 427 -412c0 -251 -166 -412 -427 -412h-341v-539h-127v1363zM304 1246v-591h260c239 0 377 70 377 296c0 187 -110 295 -301 295h-336z" />
    <glyph glyph-name="Q" unicode="Q" horiz-adv-x="1309" 
d="M122 575v217c0 375 203 601 531 601c327 0 532 -226 532 -601v-217c0 -213 -66 -378 -184 -480l187 -257h-147l-139 190c-71 -35 -155 -54 -249 -54c-328 0 -531 225 -531 601zM248 793v-219c0 -312 166 -484 405 -484c66 0 124 13 175 37l-188 256h151l136 -185
c83 81 131 209 131 376v219c0 310 -167 484 -405 484s-405 -174 -405 -484z" />
    <glyph glyph-name="R" unicode="R" horiz-adv-x="1198" 
d="M646 1363c283 0 423 -179 423 -394c0 -220 -130 -334 -269 -376l293 -593h-147l-274 567h-368v-567h-127v1363h469zM304 683h320c202 0 314 103 314 278c0 185 -120 286 -309 286h-325v-564z" />
    <glyph glyph-name="Rcaron" unicode="&#x158;" horiz-adv-x="1198" 
d="M646 1363c283 0 423 -179 423 -394c0 -220 -130 -334 -269 -376l293 -593h-147l-274 567h-368v-567h-127v1363h469zM304 683h320c202 0 314 103 314 278c0 185 -120 286 -309 286h-325v-564zM307 1782h116l147 -176h2l147 176h116l-229 -270h-70z" />
    <glyph glyph-name="Rlinebelow" unicode="&#x1e5e;" horiz-adv-x="1198" 
d="M646 1363c283 0 423 -179 423 -394c0 -220 -130 -334 -269 -376l293 -593h-147l-274 567h-368v-567h-127v1363h469zM304 683h320c202 0 314 103 314 278c0 185 -120 286 -309 286h-325v-564zM844 -318h-545v90h545v-90z" />
    <glyph glyph-name="Rdotbelowmacron" unicode="&#x1e5c;" horiz-adv-x="1198" 
d="M493 -279c0 49 35 84 79 84c47 0 82 -35 82 -84c0 -46 -35 -82 -82 -82c-44 0 -79 36 -79 82zM646 1363c283 0 423 -179 423 -394c0 -220 -130 -334 -269 -376l293 -593h-147l-274 567h-368v-567h-127v1363h469zM304 683h320c202 0 314 103 314 278
c0 185 -120 286 -309 286h-325v-564zM838 1531h-534v85h534v-85z" />
    <glyph glyph-name="Rdblgrave" unicode="&#x210;" horiz-adv-x="1198" 
d="M511 1513h-104l-258 264h139zM781 1513h-103l-258 264h139zM646 1363c283 0 423 -179 423 -394c0 -220 -130 -334 -269 -376l293 -593h-147l-274 567h-368v-567h-127v1363h469zM304 683h320c202 0 314 103 314 278c0 185 -120 286 -309 286h-325v-564z" />
    <glyph glyph-name="Rinvertedbreve" unicode="&#x212;" horiz-adv-x="1198" 
d="M646 1363c283 0 423 -179 423 -394c0 -220 -130 -334 -269 -376l293 -593h-147l-274 567h-368v-567h-127v1363h469zM304 683h320c202 0 314 103 314 278c0 185 -120 286 -309 286h-325v-564zM571 1688c-123 0 -183 -79 -183 -171h-94c-1 118 83 257 277 257
s274 -140 275 -257h-95c0 92 -57 171 -180 171z" />
    <glyph glyph-name="Racute" unicode="&#x154;" horiz-adv-x="1198" 
d="M612 1513h-102l201 280h134zM646 1363c283 0 423 -179 423 -394c0 -220 -130 -334 -269 -376l293 -593h-147l-274 567h-368v-567h-127v1363h469zM304 683h320c202 0 314 103 314 278c0 185 -120 286 -309 286h-325v-564z" />
    <glyph glyph-name="Rdotbelow" unicode="&#x1e5a;" horiz-adv-x="1198" 
d="M493 -279c0 49 35 84 79 84c47 0 82 -35 82 -84c0 -46 -35 -82 -82 -82c-44 0 -79 36 -79 82zM646 1363c283 0 423 -179 423 -394c0 -220 -130 -334 -269 -376l293 -593h-147l-274 567h-368v-567h-127v1363h469zM304 683h320c202 0 314 103 314 278
c0 185 -120 286 -309 286h-325v-564z" />
    <glyph glyph-name="Rdotaccent" unicode="&#x1e58;" horiz-adv-x="1198" 
d="M481 1642c0 50 40 90 90 90s90 -40 90 -90c0 -49 -40 -89 -90 -89s-90 40 -90 89zM646 1363c283 0 423 -179 423 -394c0 -220 -130 -334 -269 -376l293 -593h-147l-274 567h-368v-567h-127v1363h469zM304 683h320c202 0 314 103 314 278c0 185 -120 286 -309 286h-325
v-564z" />
    <glyph glyph-name="Rcommaaccent" unicode="&#x156;" horiz-adv-x="1198" 
d="M646 1363c283 0 423 -179 423 -394c0 -220 -130 -334 -269 -376l293 -593h-147l-274 567h-368v-567h-127v1363h469zM304 683h320c202 0 314 103 314 278c0 185 -120 286 -309 286h-325v-564zM532 -486h-100l85 335h129z" />
    <glyph glyph-name="S" unicode="S" horiz-adv-x="1150" 
d="M79 357h130c10 -132 119 -270 363 -270c207 0 344 106 344 268c0 138 -87 205 -262 252l-218 57c-170 46 -313 147 -313 351c0 241 207 381 454 381c240 0 447 -131 451 -369h-128c-10 131 -111 252 -326 252c-191 0 -321 -96 -321 -256c0 -122 74 -196 222 -235l212 -58
c221 -60 360 -150 360 -366c0 -255 -215 -394 -490 -394c-352 0 -474 220 -478 387z" />
    <glyph glyph-name="Scaron" unicode="&#x160;" horiz-adv-x="1150" 
d="M79 357h130c10 -132 119 -270 363 -270c207 0 344 106 344 268c0 138 -87 205 -262 252l-218 57c-170 46 -313 147 -313 351c0 241 207 381 454 381c240 0 447 -131 451 -369h-128c-10 131 -111 252 -326 252c-191 0 -321 -96 -321 -256c0 -122 74 -196 222 -235l212 -58
c221 -60 360 -150 360 -366c0 -255 -215 -394 -490 -394c-352 0 -474 220 -478 387zM305 1782h116l147 -176h2l147 176h116l-229 -270h-70z" />
    <glyph glyph-name="Scedilla" unicode="&#x15e;" horiz-adv-x="1150" 
d="M566 -463c-57 -2 -114 7 -140 15v86c27 -8 81 -15 118 -15c63 0 132 23 132 91c0 70 -63 81 -145 81h-51v64l48 112c-330 11 -445 224 -449 386h130c10 -132 119 -270 363 -270c207 0 344 106 344 268c0 138 -87 205 -262 252l-218 57c-170 46 -313 147 -313 351
c0 241 207 381 454 381c240 0 447 -131 451 -369h-128c-10 131 -111 252 -326 252c-191 0 -321 -96 -321 -256c0 -122 74 -196 222 -235l212 -58c221 -60 360 -150 360 -366c0 -234 -181 -370 -424 -391l-41 -98c119 0 205 -48 205 -158c0 -123 -106 -176 -221 -180z" />
    <glyph glyph-name="Sdotaccent" unicode="&#x1e60;" horiz-adv-x="1150" 
d="M482 1642c0 50 40 90 90 90s90 -40 90 -90c0 -49 -40 -89 -90 -89s-90 40 -90 89zM79 357h130c10 -132 119 -270 363 -270c207 0 344 106 344 268c0 138 -87 205 -262 252l-218 57c-170 46 -313 147 -313 351c0 241 207 381 454 381c240 0 447 -131 451 -369h-128
c-10 131 -111 252 -326 252c-191 0 -321 -96 -321 -256c0 -122 74 -196 222 -235l212 -58c221 -60 360 -150 360 -366c0 -255 -215 -394 -490 -394c-352 0 -474 220 -478 387z" />
    <glyph glyph-name="Sdotbelow" unicode="&#x1e62;" horiz-adv-x="1150" 
d="M475 -279c0 49 35 84 79 84c47 0 82 -35 82 -84c0 -46 -35 -82 -82 -82c-44 0 -79 36 -79 82zM79 357h130c10 -132 119 -270 363 -270c207 0 344 106 344 268c0 138 -87 205 -262 252l-218 57c-170 46 -313 147 -313 351c0 241 207 381 454 381c240 0 447 -131 451 -369
h-128c-10 131 -111 252 -326 252c-191 0 -321 -96 -321 -256c0 -122 74 -196 222 -235l212 -58c221 -60 360 -150 360 -366c0 -255 -215 -394 -490 -394c-352 0 -474 220 -478 387z" />
    <glyph glyph-name="Scommaaccent" unicode="&#x218;" horiz-adv-x="1150" 
d="M79 357h130c10 -132 119 -270 363 -270c207 0 344 106 344 268c0 138 -87 205 -262 252l-218 57c-170 46 -313 147 -313 351c0 241 207 381 454 381c240 0 447 -131 451 -369h-128c-10 131 -111 252 -326 252c-191 0 -321 -96 -321 -256c0 -122 74 -196 222 -235l212 -58
c221 -60 360 -150 360 -366c0 -255 -215 -394 -490 -394c-352 0 -474 220 -478 387zM514 -486h-100l85 335h129z" />
    <glyph glyph-name="Sdotbelowdotaccent" unicode="&#x1e68;" horiz-adv-x="1150" 
d="M478 -279c0 49 35 84 79 84c47 0 82 -35 82 -84c0 -46 -35 -82 -82 -82c-44 0 -79 36 -79 82zM79 357h130c10 -132 119 -270 363 -270c207 0 344 106 344 268c0 138 -87 205 -262 252l-218 57c-170 46 -313 147 -313 351c0 241 207 381 454 381c240 0 447 -131 451 -369
h-128c-10 131 -111 252 -326 252c-191 0 -321 -96 -321 -256c0 -122 74 -196 222 -235l212 -58c221 -60 360 -150 360 -366c0 -255 -215 -394 -490 -394c-352 0 -474 220 -478 387zM482 1642c0 50 40 90 90 90s90 -40 90 -90c0 -49 -40 -89 -90 -89s-90 40 -90 89z" />
    <glyph glyph-name="Scarondotaccent" unicode="&#x1e66;" horiz-adv-x="1150" 
d="M260 1716h137l173 -126h4l173 126h137l-279 -204h-66zM489 1837c0 45 37 83 83 83s83 -38 83 -83s-37 -83 -83 -83s-83 38 -83 83zM79 357h130c10 -132 119 -270 363 -270c207 0 344 106 344 268c0 138 -87 205 -262 252l-218 57c-170 46 -313 147 -313 351
c0 241 207 381 454 381c240 0 447 -131 451 -369h-128c-10 131 -111 252 -326 252c-191 0 -321 -96 -321 -256c0 -122 74 -196 222 -235l212 -58c221 -60 360 -150 360 -366c0 -255 -215 -394 -490 -394c-352 0 -474 220 -478 387z" />
    <glyph glyph-name="Scircumflex" unicode="&#x15c;" horiz-adv-x="1150" 
d="M79 357h130c10 -132 119 -270 363 -270c207 0 344 106 344 268c0 138 -87 205 -262 252l-218 57c-170 46 -313 147 -313 351c0 241 207 381 454 381c240 0 447 -131 451 -369h-128c-10 131 -111 252 -326 252c-191 0 -321 -96 -321 -256c0 -122 74 -196 222 -235l212 -58
c221 -60 360 -150 360 -366c0 -255 -215 -394 -490 -394c-352 0 -474 220 -478 387zM305 1513l229 270h70l229 -270h-116l-147 176h-2l-147 -176h-116z" />
    <glyph glyph-name="Sacutedotaccent" unicode="&#x1e64;" horiz-adv-x="1150" 
d="M670 1513h-102l201 280h134zM297 1699c0 50 40 90 90 90s90 -40 90 -90c0 -49 -40 -89 -90 -89s-90 40 -90 89zM79 357h130c10 -132 119 -270 363 -270c207 0 344 106 344 268c0 138 -87 205 -262 252l-218 57c-170 46 -313 147 -313 351c0 241 207 381 454 381
c240 0 447 -131 451 -369h-128c-10 131 -111 252 -326 252c-191 0 -321 -96 -321 -256c0 -122 74 -196 222 -235l212 -58c221 -60 360 -150 360 -366c0 -255 -215 -394 -490 -394c-352 0 -474 220 -478 387z" />
    <glyph glyph-name="Sacute" unicode="&#x15a;" horiz-adv-x="1150" 
d="M610 1513h-102l201 280h134zM79 357h130c10 -132 119 -270 363 -270c207 0 344 106 344 268c0 138 -87 205 -262 252l-218 57c-170 46 -313 147 -313 351c0 241 207 381 454 381c240 0 447 -131 451 -369h-128c-10 131 -111 252 -326 252c-191 0 -321 -96 -321 -256
c0 -122 74 -196 222 -235l212 -58c221 -60 360 -150 360 -366c0 -255 -215 -394 -490 -394c-352 0 -474 220 -478 387z" />
    <glyph glyph-name="T" unicode="T" horiz-adv-x="1050" 
d="M588 0h-126v1247h-429v116h984v-116h-429v-1247z" />
    <glyph glyph-name="Tcircumflexbelow" unicode="&#x1e70;" horiz-adv-x="1050" 
d="M588 0h-126v1247h-429v116h984v-116h-429v-1247zM270 -409l214 288h82l214 -288h-108l-146 208h-2l-146 -208h-108z" />
    <glyph glyph-name="Tdotbelow" unicode="&#x1e6c;" horiz-adv-x="1050" 
d="M445 -279c0 49 35 84 79 84c47 0 82 -35 82 -84c0 -46 -35 -82 -82 -82c-44 0 -79 36 -79 82zM588 0h-126v1247h-429v116h984v-116h-429v-1247z" />
    <glyph glyph-name="Tcommaaccent" unicode="&#x21a;" horiz-adv-x="1050" 
d="M486 -486h-100l85 335h129zM588 0h-126v1247h-429v116h984v-116h-429v-1247z" />
    <glyph glyph-name="Tdotaccent" unicode="&#x1e6a;" horiz-adv-x="1050" 
d="M435 1642c0 50 40 90 90 90s90 -40 90 -90c0 -49 -40 -89 -90 -89s-90 40 -90 89zM588 0h-126v1247h-429v116h984v-116h-429v-1247z" />
    <glyph glyph-name="Tcedilla" unicode="&#x162;" horiz-adv-x="1050" 
d="M525 -478c-58 -2 -114 8 -141 16v85c27 -8 81 -14 119 -14c62 0 132 23 132 90c0 71 -70 82 -152 82h-51v64l61 155h-31v1247h-429v116h984v-116h-429v-1247l-54 -140c119 0 212 -47 212 -157c0 -123 -106 -177 -221 -181z" />
    <glyph glyph-name="Tlinebelow" unicode="&#x1e6e;" horiz-adv-x="1050" 
d="M802 -318h-545v90h545v-90zM588 0h-126v1247h-429v116h984v-116h-429v-1247z" />
    <glyph glyph-name="Tcaron" unicode="&#x164;" horiz-adv-x="1050" 
d="M259 1782h116l147 -176h2l147 176h116l-229 -270h-70zM588 0h-126v1247h-429v116h984v-116h-429v-1247z" />
    <glyph glyph-name="Tbar" unicode="&#x166;" horiz-adv-x="1050" 
d="M835 669h-247v-669h-126v669h-247v102h247v476h-429v116h984v-116h-429v-476h247v-102z" />
    <glyph glyph-name="U" unicode="U" horiz-adv-x="1326" 
d="M288 1363v-891c0 -233 141 -385 375 -385c235 0 375 151 375 385v891h127v-906c0 -287 -185 -487 -502 -487c-316 0 -501 200 -501 487v906h126z" />
    <glyph glyph-name="Ugrave" unicode="&#xd9;" horiz-adv-x="1326" 
d="M724 1513h-102l-233 280h134zM288 1363v-891c0 -233 141 -385 375 -385c235 0 375 151 375 385v891h127v-906c0 -287 -185 -487 -502 -487c-316 0 -501 200 -501 487v906h126z" />
    <glyph glyph-name="Udblgrave" unicode="&#x214;" horiz-adv-x="1326" 
d="M603 1513h-104l-258 264h139zM873 1513h-103l-258 264h139zM288 1363v-891c0 -233 141 -385 375 -385c235 0 375 151 375 385v891h127v-906c0 -287 -185 -487 -502 -487c-316 0 -501 200 -501 487v906h126z" />
    <glyph glyph-name="Uacute" unicode="&#xda;" horiz-adv-x="1326" 
d="M704 1513h-102l201 280h134zM288 1363v-891c0 -233 141 -385 375 -385c235 0 375 151 375 385v891h127v-906c0 -287 -185 -487 -502 -487c-316 0 -501 200 -501 487v906h126z" />
    <glyph glyph-name="Uhungarumlaut" unicode="&#x170;" horiz-adv-x="1326" 
d="M288 1363v-891c0 -233 141 -385 375 -385c235 0 375 151 375 385v891h127v-906c0 -287 -185 -487 -502 -487c-316 0 -501 200 -501 487v906h126zM449 1513l223 264h139l-255 -264h-107zM720 1513l222 264h139l-255 -264h-106z" />
    <glyph glyph-name="Ucircumflex" unicode="&#xdb;" horiz-adv-x="1326" 
d="M397 1513l229 270h70l229 -270h-116l-147 176h-2l-147 -176h-116zM288 1363v-891c0 -233 141 -385 375 -385c235 0 375 151 375 385v891h127v-906c0 -287 -185 -487 -502 -487c-316 0 -501 200 -501 487v906h126z" />
    <glyph glyph-name="Ucaron" unicode="&#x1d3;" horiz-adv-x="1326" 
d="M397 1782h116l147 -176h2l147 176h116l-229 -270h-70zM288 1363v-891c0 -233 141 -385 375 -385c235 0 375 151 375 385v891h127v-906c0 -287 -185 -487 -502 -487c-316 0 -501 200 -501 487v906h126z" />
    <glyph glyph-name="Ucircumflexbelow" unicode="&#x1e76;" horiz-adv-x="1326" 
d="M288 1363v-891c0 -233 141 -385 375 -385c235 0 375 151 375 385v891h127v-906c0 -287 -185 -487 -502 -487c-316 0 -501 200 -501 487v906h126zM408 -409l214 288h82l214 -288h-108l-146 208h-2l-146 -208h-108z" />
    <glyph glyph-name="Udieresis" unicode="&#xdc;" horiz-adv-x="1326" 
d="M515 1503c-42 0 -75 34 -75 78c0 45 33 78 75 78c43 0 76 -33 76 -78c0 -44 -33 -78 -76 -78zM811 1503c-42 0 -75 34 -75 78c0 45 33 78 75 78c44 0 76 -33 76 -78c0 -44 -32 -78 -76 -78zM288 1363v-891c0 -233 141 -385 375 -385c235 0 375 151 375 385v891h127v-906
c0 -287 -185 -487 -502 -487c-316 0 -501 200 -501 487v906h126z" />
    <glyph glyph-name="Udieresisgrave" unicode="&#x1db;" horiz-adv-x="1326" 
d="M734 1723h-126l-297 210h155zM516 1503c-42 0 -75 34 -75 78c0 45 33 78 75 78c43 0 76 -33 76 -78c0 -44 -33 -78 -76 -78zM812 1503c-42 0 -75 34 -75 78c0 45 33 78 75 78c44 0 76 -33 76 -78c0 -44 -32 -78 -76 -78zM288 1363v-891c0 -233 141 -385 375 -385
c235 0 375 151 375 385v891h127v-906c0 -287 -185 -487 -502 -487c-316 0 -501 200 -501 487v906h126z" />
    <glyph glyph-name="Udieresisacute" unicode="&#x1d7;" horiz-adv-x="1326" 
d="M592 1723l268 210h155l-297 -210h-126zM516 1503c-42 0 -75 34 -75 78c0 45 33 78 75 78c43 0 76 -33 76 -78c0 -44 -33 -78 -76 -78zM812 1503c-42 0 -75 34 -75 78c0 45 33 78 75 78c44 0 76 -33 76 -78c0 -44 -32 -78 -76 -78zM288 1363v-891
c0 -233 141 -385 375 -385c235 0 375 151 375 385v891h127v-906c0 -287 -185 -487 -502 -487c-316 0 -501 200 -501 487v906h126z" />
    <glyph glyph-name="Udieresismacron" unicode="&#x1d5;" horiz-adv-x="1326" 
d="M288 1363v-891c0 -233 141 -385 375 -385c235 0 375 151 375 385v891h127v-906c0 -287 -185 -487 -502 -487c-316 0 -501 200 -501 487v906h126zM516 1503c-42 0 -75 34 -75 78c0 45 33 78 75 78c43 0 76 -33 76 -78c0 -44 -33 -78 -76 -78zM812 1503
c-42 0 -75 34 -75 78c0 45 33 78 75 78c44 0 76 -33 76 -78c0 -44 -32 -78 -76 -78zM930 1801h-534v85h534v-85z" />
    <glyph glyph-name="Udieresiscaron" unicode="&#x1d9;" horiz-adv-x="1326" 
d="M442 1579c0 46 34 80 76 80c45 0 78 -34 78 -80c0 -44 -33 -79 -78 -79c-42 0 -76 35 -76 79zM735 1579c0 46 34 80 76 80c45 0 78 -34 78 -80c0 -44 -33 -79 -78 -79c-42 0 -76 35 -76 79zM351 1927h137l173 -127h4l173 127h137l-279 -205h-66zM288 1363v-891
c0 -233 141 -385 375 -385c235 0 375 151 375 385v891h127v-906c0 -287 -185 -487 -502 -487c-316 0 -501 200 -501 487v906h126z" />
    <glyph glyph-name="Udieresisbelow" unicode="&#x1e72;" horiz-adv-x="1326" 
d="M288 1363v-891c0 -233 141 -385 375 -385c235 0 375 151 375 385v891h127v-906c0 -287 -185 -487 -502 -487c-316 0 -501 200 -501 487v906h126zM500 -371c-44 0 -78 35 -78 80c0 47 34 82 78 82c45 0 79 -35 79 -82c0 -45 -34 -80 -79 -80zM822 -371
c-43 0 -78 35 -78 80c0 47 35 82 78 82c46 0 80 -35 80 -82c0 -45 -34 -80 -80 -80z" />
    <glyph glyph-name="Utildebelow" unicode="&#x1e74;" horiz-adv-x="1326" 
d="M776 -375c-130 0 -161 137 -240 137c-51 0 -74 -62 -75 -120h-87c0 113 57 203 162 203c130 0 160 -137 240 -137c52 0 77 61 80 122h87c0 -99 -53 -205 -167 -205zM288 1363v-891c0 -233 141 -385 375 -385c235 0 375 151 375 385v891h127v-906
c0 -287 -185 -487 -502 -487c-316 0 -501 200 -501 487v906h126z" />
    <glyph glyph-name="Uhookabove" unicode="&#x1ee6;" horiz-adv-x="1326" 
d="M288 1363v-891c0 -233 141 -385 375 -385c235 0 375 151 375 385v891h127v-906c0 -287 -185 -487 -502 -487c-316 0 -501 200 -501 487v906h126zM542 1657v73c15 8 53 19 95 19c99 0 179 -50 179 -137c0 -88 -85 -128 -126 -145l-50 64c38 14 83 39 83 77
c0 45 -43 64 -92 64c-40 0 -67 -7 -89 -15z" />
    <glyph glyph-name="Ubreve" unicode="&#x16c;" horiz-adv-x="1326" 
d="M288 1363v-891c0 -233 141 -385 375 -385c235 0 375 151 375 385v891h127v-906c0 -287 -185 -487 -502 -487c-316 0 -501 200 -501 487v906h126zM386 1755h94c0 -92 60 -167 183 -167s180 75 180 167h95c-1 -117 -81 -253 -275 -253s-278 135 -277 253z" />
    <glyph glyph-name="Uinvertedbreve" unicode="&#x216;" horiz-adv-x="1326" 
d="M288 1363v-891c0 -233 141 -385 375 -385c235 0 375 151 375 385v891h127v-906c0 -287 -185 -487 -502 -487c-316 0 -501 200 -501 487v906h126zM663 1688c-123 0 -183 -79 -183 -171h-94c-1 118 83 257 277 257s274 -140 275 -257h-95c0 92 -57 171 -180 171z" />
    <glyph glyph-name="Utildeacute" unicode="&#x1e78;" horiz-adv-x="1326" 
d="M288 1363v-891c0 -233 141 -385 375 -385c235 0 375 151 375 385v891h127v-906c0 -287 -185 -487 -502 -487c-316 0 -501 200 -501 487v906h126zM577 1723l268 210h156l-298 -210h-126zM772 1494c-123 0 -153 112 -228 112c-50 0 -69 -53 -70 -102h-84
c0 102 54 181 154 181c122 0 152 -113 228 -113c49 0 71 48 74 103h84c0 -90 -50 -181 -158 -181z" />
    <glyph glyph-name="Udotbelow" unicode="&#x1ee4;" horiz-adv-x="1326" 
d="M585 -279c0 49 35 84 79 84c47 0 82 -35 82 -84c0 -46 -35 -82 -82 -82c-44 0 -79 36 -79 82zM288 1363v-891c0 -233 141 -385 375 -385c235 0 375 151 375 385v891h127v-906c0 -287 -185 -487 -502 -487c-316 0 -501 200 -501 487v906h126z" />
    <glyph glyph-name="Utilde" unicode="&#x168;" horiz-adv-x="1326" 
d="M288 1363v-891c0 -233 141 -385 375 -385c235 0 375 151 375 385v891h127v-906c0 -287 -185 -487 -502 -487c-316 0 -501 200 -501 487v906h126zM772 1494c-123 0 -153 112 -228 112c-50 0 -69 -53 -70 -102h-84c0 102 54 181 154 181c122 0 152 -113 228 -113
c49 0 71 48 74 103h84c0 -90 -50 -181 -158 -181z" />
    <glyph glyph-name="Umacron" unicode="&#x16a;" horiz-adv-x="1326" 
d="M288 1363v-891c0 -233 141 -385 375 -385c235 0 375 151 375 385v891h127v-906c0 -287 -185 -487 -502 -487c-316 0 -501 200 -501 487v906h126zM929 1531h-534v85h534v-85z" />
    <glyph glyph-name="Umacrondieresis" unicode="&#x1e7a;" horiz-adv-x="1326" 
d="M516 1749c-42 0 -75 34 -75 78c0 45 33 78 75 78c43 0 76 -33 76 -78c0 -44 -33 -78 -76 -78zM812 1749c-42 0 -75 34 -75 78c0 45 33 78 75 78c44 0 76 -33 76 -78c0 -44 -32 -78 -76 -78zM930 1531h-534v85h534v-85zM288 1363v-891c0 -233 141 -385 375 -385
c235 0 375 151 375 385v891h127v-906c0 -287 -185 -487 -502 -487c-316 0 -501 200 -501 487v906h126z" />
    <glyph glyph-name="Uring" unicode="&#x16e;" horiz-adv-x="1326" 
d="M663 1503c-100 0 -180 78 -180 178s80 177 180 177s181 -77 181 -177s-81 -178 -181 -178zM555 1680c0 -60 48 -110 108 -110c62 0 109 50 109 110c0 62 -47 110 -109 110c-60 0 -108 -48 -108 -110zM288 1363v-891c0 -233 141 -385 375 -385c235 0 375 151 375 385v891
h127v-906c0 -287 -185 -487 -502 -487c-316 0 -501 200 -501 487v906h126z" />
    <glyph glyph-name="Uogonek" unicode="&#x172;" horiz-adv-x="1326" 
d="M945 -380c-102 0 -208 55 -208 185c0 67 31 144 108 204l-4 7c-44 -22 -96 -46 -188 -46c-290 0 -491 203 -491 505v888h127v-891c0 -233 140 -385 374 -385c235 0 375 151 375 385v891h127v-891c0 -197 -74 -316 -160 -405c-81 -85 -155 -147 -155 -238
c0 -74 53 -108 122 -108c23 0 53 3 79 12v-94c-15 -7 -54 -19 -106 -19z" />
    <glyph glyph-name="Uhorn" unicode="&#x1af;" horiz-adv-x="1367" 
d="M663 -30c-305 0 -501 203 -501 505v888h127v-891c0 -233 140 -385 374 -385c235 0 375 151 375 385v891h128c105 0 145 63 145 157v99h114v-97c0 -152 -80 -255 -230 -255h-30v-795c0 -302 -197 -502 -502 -502z" />
    <glyph glyph-name="Uhorngrave" unicode="&#x1eea;" horiz-adv-x="1367" 
d="M723 1513h-102l-233 280h134zM663 -30c-305 0 -501 203 -501 505v888h127v-891c0 -233 140 -385 374 -385c235 0 375 151 375 385v891h128c105 0 145 63 145 157v99h114v-97c0 -152 -80 -255 -230 -255h-30v-795c0 -302 -197 -502 -502 -502z" />
    <glyph glyph-name="Uhornacute" unicode="&#x1ee8;" horiz-adv-x="1367" 
d="M703 1513h-102l201 280h134zM663 -30c-305 0 -501 203 -501 505v888h127v-891c0 -233 140 -385 374 -385c235 0 375 151 375 385v891h128c105 0 145 63 145 157v99h114v-97c0 -152 -80 -255 -230 -255h-30v-795c0 -302 -197 -502 -502 -502z" />
    <glyph glyph-name="Uhorndotbelow" unicode="&#x1ef0;" horiz-adv-x="1367" 
d="M584 -279c0 49 35 84 79 84c47 0 82 -35 82 -84c0 -46 -35 -82 -82 -82c-44 0 -79 36 -79 82zM663 -30c-305 0 -501 203 -501 505v888h127v-891c0 -233 140 -385 374 -385c235 0 375 151 375 385v891h128c105 0 145 63 145 157v99h114v-97c0 -152 -80 -255 -230 -255h-30
v-795c0 -302 -197 -502 -502 -502z" />
    <glyph glyph-name="Uhornhookabove" unicode="&#x1eec;" horiz-adv-x="1367" 
d="M541 1657v73c15 8 53 19 95 19c99 0 179 -50 179 -137c0 -88 -85 -128 -126 -145l-50 64c38 14 83 39 83 77c0 45 -43 64 -92 64c-40 0 -67 -7 -89 -15zM663 -30c-305 0 -501 203 -501 505v888h127v-891c0 -233 140 -385 374 -385c235 0 375 151 375 385v891h128
c105 0 145 63 145 157v99h114v-97c0 -152 -80 -255 -230 -255h-30v-795c0 -302 -197 -502 -502 -502z" />
    <glyph glyph-name="Uhorntilde" unicode="&#x1eee;" horiz-adv-x="1367" 
d="M771 1494c-123 0 -153 112 -228 112c-50 0 -69 -53 -70 -102h-84c0 102 54 181 154 181c122 0 152 -113 228 -113c49 0 71 48 74 103h84c0 -90 -50 -181 -158 -181zM663 -30c-305 0 -501 203 -501 505v888h127v-891c0 -233 140 -385 374 -385c235 0 375 151 375 385v891
h128c105 0 145 63 145 157v99h114v-97c0 -152 -80 -255 -230 -255h-30v-795c0 -302 -197 -502 -502 -502z" />
    <glyph glyph-name="V" unicode="V" horiz-adv-x="1193" 
d="M659 0h-129l-496 1363h144l416 -1196h4l417 1196h144z" />
    <glyph glyph-name="Vtilde" unicode="&#x1e7c;" horiz-adv-x="1193" 
d="M697 1494c-123 0 -153 112 -228 112c-50 0 -69 -53 -70 -102h-84c0 102 54 181 154 181c122 0 152 -113 228 -113c49 0 71 48 74 103h84c0 -90 -50 -181 -158 -181zM659 0h-129l-496 1363h144l416 -1196h4l417 1196h144z" />
    <glyph glyph-name="Vdotbelow" unicode="&#x1e7e;" horiz-adv-x="1193" 
d="M516 -279c0 49 35 84 79 84c47 0 82 -35 82 -84c0 -46 -35 -82 -82 -82c-44 0 -79 36 -79 82zM659 0h-129l-496 1363h144l416 -1196h4l417 1196h144z" />
    <glyph glyph-name="W" unicode="W" horiz-adv-x="1682" 
d="M522 0h-119l-371 1363h142l290 -1145h4l305 1145h136l304 -1145h5l290 1145h142l-372 -1363h-118l-317 1146h-5z" />
    <glyph glyph-name="Wgrave" unicode="&#x1e80;" horiz-adv-x="1682" 
d="M893 1513h-102l-233 280h134zM522 0h-119l-371 1363h142l290 -1145h4l305 1145h136l304 -1145h5l290 1145h142l-372 -1363h-118l-317 1146h-5z" />
    <glyph glyph-name="Wacute" unicode="&#x1e82;" horiz-adv-x="1682" 
d="M873 1513h-102l201 280h134zM522 0h-119l-371 1363h142l290 -1145h4l305 1145h136l304 -1145h5l290 1145h142l-372 -1363h-118l-317 1146h-5z" />
    <glyph glyph-name="Wdotaccent" unicode="&#x1e86;" horiz-adv-x="1682" 
d="M751 1642c0 50 40 90 90 90s90 -40 90 -90c0 -49 -40 -89 -90 -89s-90 40 -90 89zM522 0h-119l-371 1363h142l290 -1145h4l305 1145h136l304 -1145h5l290 1145h142l-372 -1363h-118l-317 1146h-5z" />
    <glyph glyph-name="Wdotbelow" unicode="&#x1e88;" horiz-adv-x="1682" 
d="M761 -279c0 49 35 84 79 84c47 0 82 -35 82 -84c0 -46 -35 -82 -82 -82c-44 0 -79 36 -79 82zM522 0h-119l-371 1363h142l290 -1145h4l305 1145h136l304 -1145h5l290 1145h142l-372 -1363h-118l-317 1146h-5z" />
    <glyph glyph-name="Wdieresis" unicode="&#x1e84;" horiz-adv-x="1682" 
d="M692 1503c-42 0 -75 34 -75 78c0 45 33 78 75 78c43 0 76 -33 76 -78c0 -44 -33 -78 -76 -78zM988 1503c-42 0 -75 34 -75 78c0 45 33 78 75 78c44 0 76 -33 76 -78c0 -44 -32 -78 -76 -78zM522 0h-119l-371 1363h142l290 -1145h4l305 1145h136l304 -1145h5l290 1145h142
l-372 -1363h-118l-317 1146h-5z" />
    <glyph glyph-name="Wcircumflex" unicode="&#x174;" horiz-adv-x="1682" 
d="M576 1513l229 270h70l229 -270h-116l-147 176h-2l-147 -176h-116zM522 0h-119l-371 1363h142l290 -1145h4l305 1145h136l304 -1145h5l290 1145h142l-372 -1363h-118l-317 1146h-5z" />
    <glyph glyph-name="X" unicode="X" horiz-adv-x="1126" 
d="M1098 1363l-461 -687l454 -676h-155l-376 574h-7l-378 -574h-146l456 685l-452 678h153l380 -575h7l378 575h147z" />
    <glyph glyph-name="Xdotaccent" unicode="&#x1e8a;" horiz-adv-x="1126" 
d="M1098 1363l-461 -687l454 -676h-155l-376 574h-7l-378 -574h-146l456 685l-452 678h153l380 -575h7l378 575h147zM473 1642c0 50 40 90 90 90s90 -40 90 -90c0 -49 -40 -89 -90 -89s-90 40 -90 89z" />
    <glyph glyph-name="Xdieresis" unicode="&#x1e8c;" horiz-adv-x="1126" 
d="M1098 1363l-461 -687l454 -676h-155l-376 574h-7l-378 -574h-146l456 685l-452 678h153l380 -575h7l378 575h147zM415 1503c-42 0 -75 34 -75 78c0 45 33 78 75 78c43 0 76 -33 76 -78c0 -44 -33 -78 -76 -78zM711 1503c-42 0 -75 34 -75 78c0 45 33 78 75 78
c44 0 76 -33 76 -78c0 -44 -32 -78 -76 -78z" />
    <glyph glyph-name="Y" unicode="Y" horiz-adv-x="1085" 
d="M606 0h-126v602l-462 761h147l375 -634h6l375 634h147l-462 -760v-603z" />
    <glyph glyph-name="Ygrave" unicode="&#x1ef2;" horiz-adv-x="1085" 
d="M606 0h-126v602l-462 761h147l375 -634h6l375 634h147l-462 -760v-603zM596 1513h-102l-233 280h134z" />
    <glyph glyph-name="Yacute" unicode="&#xdd;" horiz-adv-x="1085" 
d="M606 0h-126v602l-462 761h147l375 -634h6l375 634h147l-462 -760v-603zM576 1513h-102l201 280h134z" />
    <glyph glyph-name="Ydotaccent" unicode="&#x1e8e;" horiz-adv-x="1085" 
d="M606 0h-126v602l-462 761h147l375 -634h6l375 634h147l-462 -760v-603zM452 1642c0 50 40 90 90 90s90 -40 90 -90c0 -49 -40 -89 -90 -89s-90 40 -90 89z" />
    <glyph glyph-name="Ydotbelow" unicode="&#x1ef4;" horiz-adv-x="1085" 
d="M606 0h-126v602l-462 761h147l375 -634h6l375 634h147l-462 -760v-603zM462 -279c0 49 35 84 79 84c47 0 82 -35 82 -84c0 -46 -35 -82 -82 -82c-44 0 -79 36 -79 82z" />
    <glyph glyph-name="Ydieresis" unicode="&#x178;" horiz-adv-x="1085" 
d="M606 0h-126v602l-462 761h147l375 -634h6l375 634h147l-462 -760v-603zM394 1503c-42 0 -75 34 -75 78c0 45 33 78 75 78c43 0 76 -33 76 -78c0 -44 -33 -78 -76 -78zM690 1503c-42 0 -75 34 -75 78c0 45 33 78 75 78c44 0 76 -33 76 -78c0 -44 -32 -78 -76 -78z" />
    <glyph glyph-name="Ytilde" unicode="&#x1ef8;" horiz-adv-x="1085" 
d="M606 0h-126v602l-462 761h147l375 -634h6l375 634h147l-462 -760v-603zM644 1494c-123 0 -153 112 -228 112c-50 0 -69 -53 -70 -102h-84c0 102 54 181 154 181c122 0 152 -113 228 -113c49 0 71 48 74 103h84c0 -90 -50 -181 -158 -181z" />
    <glyph glyph-name="Ycircumflex" unicode="&#x176;" horiz-adv-x="1085" 
d="M606 0h-126v602l-462 761h147l375 -634h6l375 634h147l-462 -760v-603zM271 1513l229 270h70l229 -270h-116l-147 176h-2l-147 -176h-116z" />
    <glyph glyph-name="Ymacron" unicode="&#x232;" horiz-adv-x="1085" 
d="M606 0h-126v602l-462 761h147l375 -634h6l375 634h147l-462 -760v-603zM809 1531h-534v85h534v-85z" />
    <glyph glyph-name="Yhookabove" unicode="&#x1ef6;" horiz-adv-x="1085" 
d="M606 0h-126v602l-462 761h147l375 -634h6l375 634h147l-462 -760v-603zM414 1657v73c15 8 53 19 95 19c99 0 179 -50 179 -137c0 -88 -85 -128 -126 -145l-50 64c38 14 83 39 83 77c0 45 -43 64 -92 64c-40 0 -67 -7 -89 -15z" />
    <glyph glyph-name="Z" unicode="Z" horiz-adv-x="1145" 
d="M88 0v94l787 1150v4h-760v115h918v-93l-783 -1151v-4h795v-115h-957z" />
    <glyph glyph-name="Zacute" unicode="&#x179;" horiz-adv-x="1145" 
d="M613 1513h-102l201 280h134zM88 0v94l787 1150v4h-760v115h918v-93l-783 -1151v-4h795v-115h-957z" />
    <glyph glyph-name="Zcaron" unicode="&#x17d;" horiz-adv-x="1145" 
d="M88 0v94l787 1150v4h-760v115h918v-93l-783 -1151v-4h795v-115h-957zM308 1782h116l147 -176h2l147 176h116l-229 -270h-70z" />
    <glyph glyph-name="Zcircumflex" unicode="&#x1e90;" horiz-adv-x="1145" 
d="M88 0v94l787 1150v4h-760v115h918v-93l-783 -1151v-4h795v-115h-957zM308 1513l229 270h70l229 -270h-116l-147 176h-2l-147 -176h-116z" />
    <glyph glyph-name="Zlinebelow" unicode="&#x1e94;" horiz-adv-x="1145" 
d="M88 0v94l787 1150v4h-760v115h918v-93l-783 -1151v-4h795v-115h-957zM845 -318h-545v90h545v-90z" />
    <glyph glyph-name="Zdotbelow" unicode="&#x1e92;" horiz-adv-x="1145" 
d="M494 -279c0 49 35 84 79 84c47 0 82 -35 82 -84c0 -46 -35 -82 -82 -82c-44 0 -79 36 -79 82zM88 0v94l787 1150v4h-760v115h918v-93l-783 -1151v-4h795v-115h-957z" />
    <glyph glyph-name="Zdotaccent" unicode="&#x17b;" horiz-adv-x="1145" 
d="M482 1642c0 50 40 90 90 90s90 -40 90 -90c0 -49 -40 -89 -90 -89s-90 40 -90 89zM88 0v94l787 1150v4h-760v115h918v-93l-783 -1151v-4h795v-115h-957z" />
    <glyph glyph-name="AE" unicode="&#xc6;" horiz-adv-x="1835" 
d="M862 1246l-383 -678h454v678h-71zM933 460h-513l-260 -460h-143l776 1363h929v-117h-661v-491h625v-115h-625v-524h661v-116h-789v460z" />
    <glyph glyph-name="AEmacron" unicode="&#x1e2;" horiz-adv-x="1835" 
d="M862 1246l-383 -678h454v678h-71zM933 460h-513l-260 -460h-143l776 1363h929v-117h-661v-491h625v-115h-625v-524h661v-116h-789v460zM1600 1531h-534v85h534v-85z" />
    <glyph glyph-name="AEacute" unicode="&#x1fc;" horiz-adv-x="1835" 
d="M1374 1513h-102l201 280h134zM862 1246l-383 -678h454v678h-71zM933 460h-513l-260 -460h-143l776 1363h929v-117h-661v-491h625v-115h-625v-524h661v-116h-789v460z" />
    <glyph glyph-name="OE" unicode="&#x152;" horiz-adv-x="1962" 
d="M248 789v-225c0 -311 164 -478 402 -478c235 0 404 158 404 453v283c0 291 -166 455 -404 455c-237 0 -402 -177 -402 -488zM649 -30c-327 0 -527 221 -527 596v221c0 376 203 606 530 606c171 0 322 -71 392 -199h10v169h789v-117h-661v-491h625v-115h-625v-524h661
v-116h-789v176h-9c-77 -132 -223 -206 -396 -206z" />
    <glyph glyph-name="Eth" unicode="&#xd0;" horiz-adv-x="1358" 
d="M648 0h-403v642h-159v113h159v608h403c437 0 602 -280 602 -682c0 -395 -157 -681 -602 -681zM373 116h271c333 0 475 211 475 565c0 347 -138 565 -475 565h-271v-491h335v-113h-335v-526z" />
    <glyph glyph-name="Thorn" unicode="&#xde;" horiz-adv-x="1135" 
d="M177 1363h126v-267h322c253 0 427 -124 427 -374c0 -251 -174 -375 -427 -375h-321v-347h-127v1363zM304 981v-518h286c193 0 331 43 331 259c0 182 -111 259 -301 259h-316z" />
    <glyph glyph-name="A.sc" horiz-adv-x="1041" 
d="M178 0h-130l406 1068h134l405 -1068h-136l-120 330h-439zM521 931h-6l-183 -505h372z" />
    <glyph glyph-name="Agrave.sc" horiz-adv-x="1041" 
d="M580 1218h-102l-233 280h135zM178 0h-130l406 1068h134l405 -1068h-136l-120 330h-439zM521 931h-6l-183 -505h372z" />
    <glyph glyph-name="Aacute.sc" horiz-adv-x="1041" 
d="M561 1218h-102l201 280h134zM178 0h-130l406 1068h134l405 -1068h-136l-120 330h-439zM521 931h-6l-183 -505h372z" />
    <glyph glyph-name="Adieresis.sc" horiz-adv-x="1041" 
d="M178 0h-130l406 1068h134l405 -1068h-136l-120 330h-439zM521 931h-6l-183 -505h372zM359 1240c-44 0 -78 35 -78 80c0 47 34 82 78 82c45 0 79 -35 79 -82c0 -45 -34 -80 -79 -80zM681 1240c-43 0 -78 35 -78 80c0 47 35 82 78 82c46 0 80 -35 80 -82
c0 -45 -34 -80 -80 -80z" />
    <glyph glyph-name="Adieresismacron.sc" horiz-adv-x="1041" 
d="M178 0h-130l406 1068h134l405 -1068h-136l-120 330h-439zM521 931h-6l-183 -505h372zM358 1240c-44 0 -78 35 -78 80c0 47 34 82 78 82c45 0 79 -35 79 -82c0 -45 -34 -80 -79 -80zM680 1240c-43 0 -78 35 -78 80c0 47 35 82 78 82c46 0 80 -35 80 -82
c0 -45 -34 -80 -80 -80zM793 1571h-545v90h545v-90z" />
    <glyph glyph-name="Aring.sc" horiz-adv-x="1041" 
d="M178 0h-130l406 1068h134l405 -1068h-136l-120 330h-439zM521 931h-6l-183 -505h372zM520 1214c-100 0 -180 78 -180 178s80 177 180 177s181 -77 181 -177s-81 -178 -181 -178zM412 1391c0 -60 48 -110 108 -110c62 0 109 50 109 110c0 62 -47 110 -109 110
c-60 0 -108 -48 -108 -110z" />
    <glyph glyph-name="Aringacute.sc" horiz-adv-x="1041" 
d="M569 1629h-97l144 190h131zM520 1214c-100 0 -180 78 -180 178s80 177 180 177s181 -77 181 -177s-81 -178 -181 -178zM412 1391c0 -60 48 -110 108 -110c62 0 109 50 109 110c0 62 -47 110 -109 110c-60 0 -108 -48 -108 -110zM178 0h-130l406 1068h134l405 -1068h-136
l-120 330h-439zM521 931h-6l-183 -505h372z" />
    <glyph glyph-name="Atilde.sc" horiz-adv-x="1041" 
d="M178 0h-130l406 1068h134l405 -1068h-136l-120 330h-439zM521 931h-6l-183 -505h372zM634 1216c-135 0 -167 143 -250 143c-57 0 -79 -67 -80 -125h-92c0 118 62 212 172 212c134 0 164 -142 249 -142c57 0 82 66 85 127h92c0 -104 -58 -215 -176 -215z" />
    <glyph glyph-name="Abrevegrave.sc" horiz-adv-x="1041" 
d="M178 0h-130l406 1068h134l405 -1068h-136l-120 330h-439zM521 931h-6l-183 -505h372zM588 1487h-102l-234 279h135zM243 1474h95c0 -92 60 -171 182 -171c123 0 183 79 183 171h95c-1 -117 -84 -257 -278 -257s-278 139 -277 257z" />
    <glyph glyph-name="Adotmacron.sc" horiz-adv-x="1041" 
d="M178 0h-130l406 1068h134l405 -1068h-136l-120 330h-439zM521 931h-6l-183 -505h372zM428 1331c0 52 41 92 90 92c52 0 93 -40 93 -92c0 -51 -41 -90 -93 -90c-49 0 -90 39 -90 90zM793 1571h-545v90h545v-90z" />
    <glyph glyph-name="Aringbelow.sc" horiz-adv-x="1041" 
d="M178 0h-130l406 1068h134l405 -1068h-136l-120 330h-439zM521 931h-6l-183 -505h372zM520 -492c-100 0 -180 78 -180 178s80 177 180 177s181 -77 181 -177s-81 -178 -181 -178zM412 -315c0 -60 48 -110 108 -110c62 0 109 50 109 110c0 62 -47 110 -109 110
c-60 0 -108 -48 -108 -110z" />
    <glyph glyph-name="Acircumflex.sc" horiz-adv-x="1041" 
d="M264 1218l218 310h77l218 -310h-109l-146 218h-3l-146 -218h-109zM178 0h-130l406 1068h134l405 -1068h-136l-120 330h-439zM521 931h-6l-183 -505h372z" />
    <glyph glyph-name="Acircumflexdotbelow.sc" horiz-adv-x="1041" 
d="M264 1218l218 310h77l218 -310h-109l-146 218h-3l-146 -218h-109zM178 0h-130l406 1068h134l405 -1068h-136l-120 330h-439zM521 931h-6l-183 -505h372zM442 -279c0 49 35 84 79 84c47 0 82 -35 82 -84c0 -46 -35 -82 -82 -82c-44 0 -79 36 -79 82z" />
    <glyph glyph-name="Acircumflexacute.sc" horiz-adv-x="1041" 
d="M827 1446h-102l201 280h134zM264 1218l218 310h77l218 -310h-109l-146 218h-3l-146 -218h-109zM178 0h-130l406 1068h134l405 -1068h-136l-120 330h-439zM521 931h-6l-183 -505h372z" />
    <glyph glyph-name="Acircumflextilde.sc" horiz-adv-x="1041" 
d="M178 0h-130l406 1068h134l405 -1068h-136l-120 330h-439zM521 931h-6l-183 -505h372zM338 1638h-86c0 107 55 194 157 194c125 0 135 -130 212 -130c50 0 73 58 75 113h86c0 -91 -50 -194 -161 -194c-126 0 -136 130 -212 130c-50 0 -70 -59 -71 -113zM264 1218l218 310
h77l218 -310h-109l-146 218h-3l-146 -218h-109z" />
    <glyph glyph-name="Acircumflexgrave.sc" horiz-adv-x="1041" 
d="M937 1446h-102l-233 280h134zM264 1218l218 310h77l218 -310h-109l-146 218h-3l-146 -218h-109zM178 0h-130l406 1068h134l405 -1068h-136l-120 330h-439zM521 931h-6l-183 -505h372z" />
    <glyph glyph-name="Acircumflexhookabove.sc" horiz-adv-x="1041" 
d="M651 1651v78c16 11 55 21 97 21c108 0 181 -66 181 -161c0 -79 -56 -133 -126 -163l-47 64c59 27 85 54 85 98c0 48 -43 86 -104 86c-35 0 -69 -12 -86 -23zM264 1218l218 310h77l218 -310h-109l-146 218h-3l-146 -218h-109zM178 0h-130l406 1068h134l405 -1068h-136
l-120 330h-439zM521 931h-6l-183 -505h372z" />
    <glyph glyph-name="Abreve.sc" horiz-adv-x="1041" 
d="M178 0h-130l406 1068h134l405 -1068h-136l-120 330h-439zM521 931h-6l-183 -505h372zM243 1474h95c0 -92 60 -171 182 -171c123 0 183 79 183 171h95c-1 -117 -84 -257 -278 -257s-278 139 -277 257z" />
    <glyph glyph-name="Abreveacute.sc" horiz-adv-x="1041" 
d="M178 0h-130l406 1068h134l405 -1068h-136l-120 330h-439zM521 931h-6l-183 -505h372zM552 1487h-102l201 279h134zM243 1474h95c0 -92 60 -171 182 -171c123 0 183 79 183 171h95c-1 -117 -84 -257 -278 -257s-278 139 -277 257z" />
    <glyph glyph-name="Abrevetilde.sc" horiz-adv-x="1041" 
d="M178 0h-130l406 1068h134l405 -1068h-136l-120 330h-439zM521 931h-6l-183 -505h372zM343 1597h-86c0 108 54 195 156 195c125 0 136 -131 212 -131c50 0 73 58 76 114h86c0 -92 -50 -195 -161 -195c-127 0 -136 131 -213 131c-50 0 -69 -60 -70 -114zM243 1474h95
c0 -92 60 -171 182 -171c123 0 183 79 183 171h95c-1 -117 -84 -257 -278 -257s-278 139 -277 257z" />
    <glyph glyph-name="Abrevehookabove.sc" horiz-adv-x="1041" 
d="M178 0h-130l406 1068h134l405 -1068h-136l-120 330h-439zM521 931h-6l-183 -505h372zM354 1694v78c16 11 55 21 97 21c107 0 180 -66 180 -161c0 -79 -55 -133 -126 -163l-46 64c59 27 85 54 85 97c0 49 -43 87 -104 87c-36 0 -69 -12 -86 -23zM243 1474h95
c0 -92 60 -171 182 -171c123 0 183 79 183 171h95c-1 -117 -84 -257 -278 -257s-278 139 -277 257z" />
    <glyph glyph-name="Abrevedotbelow.sc" horiz-adv-x="1041" 
d="M442 -279c0 49 35 84 79 84c47 0 82 -35 82 -84c0 -46 -35 -82 -82 -82c-44 0 -79 36 -79 82zM178 0h-130l406 1068h134l405 -1068h-136l-120 330h-439zM521 931h-6l-183 -505h372zM243 1474h95c0 -92 60 -171 182 -171c123 0 183 79 183 171h95
c-1 -117 -84 -257 -278 -257s-278 139 -277 257z" />
    <glyph glyph-name="Ainvertedbreve.sc" horiz-adv-x="1041" 
d="M178 0h-130l406 1068h134l405 -1068h-136l-120 330h-439zM521 931h-6l-183 -505h372zM243 1232c-1 118 83 256 277 256s274 -140 275 -256h-95c0 92 -57 171 -180 171s-183 -79 -183 -171h-94z" />
    <glyph glyph-name="Acaron.sc" horiz-adv-x="1041" 
d="M266 1528h108l147 -218h3l146 218h109l-218 -310h-77zM178 0h-130l406 1068h134l405 -1068h-136l-120 330h-439zM521 931h-6l-183 -505h372z" />
    <glyph glyph-name="Adotaccent.sc" horiz-adv-x="1041" 
d="M428 1331c0 52 41 92 90 92c52 0 93 -40 93 -92c0 -51 -41 -90 -93 -90c-49 0 -90 39 -90 90zM178 0h-130l406 1068h134l405 -1068h-136l-120 330h-439zM521 931h-6l-183 -505h372z" />
    <glyph glyph-name="Adotbelow.sc" horiz-adv-x="1041" 
d="M441 -279c0 49 35 84 79 84c47 0 82 -35 82 -84c0 -46 -35 -82 -82 -82c-44 0 -79 36 -79 82zM178 0h-130l406 1068h134l405 -1068h-136l-120 330h-439zM521 931h-6l-183 -505h372z" />
    <glyph glyph-name="Ahookabove.sc" horiz-adv-x="1041" 
d="M178 0h-130l406 1068h134l405 -1068h-136l-120 330h-439zM521 931h-6l-183 -505h372zM390 1447v80c17 11 56 22 100 22c110 0 184 -68 184 -166c0 -81 -56 -134 -129 -167l-49 66c61 27 87 56 87 100c0 48 -43 88 -106 88c-35 0 -68 -12 -87 -23z" />
    <glyph glyph-name="Adblgrave.sc" horiz-adv-x="1041" 
d="M178 0h-130l406 1068h134l405 -1068h-136l-120 330h-439zM521 931h-6l-183 -505h372zM359 1218l-231 280h121l202 -280h-92zM604 1218l-231 280h120l202 -280h-91z" />
    <glyph glyph-name="Amacron.sc" horiz-adv-x="1041" 
d="M178 0h-130l406 1068h134l405 -1068h-136l-120 330h-439zM521 931h-6l-183 -505h372zM794 1280h-545v90h545v-90z" />
    <glyph glyph-name="Aogonek.sc" horiz-adv-x="1041" 
d="M1011 -367c-16 -7 -53 -18 -110 -18c-102 0 -206 56 -206 181c0 116 81 183 152 230l-110 304h-439l-120 -330h-130l406 1068h134l405 -1068c-70 -26 -173 -81 -177 -176c-3 -74 46 -111 114 -111c22 0 57 3 81 10v-90zM521 931h-6l-183 -505h372z" />
    <glyph glyph-name="B.sc" horiz-adv-x="1069" 
d="M166 0v1068h414c195 0 325 -97 325 -262c0 -140 -92 -215 -190 -240v-6c150 -16 254 -110 254 -264c0 -189 -156 -296 -392 -296h-411zM293 964v-362h211c169 0 272 53 272 184c0 122 -90 178 -218 178h-265zM293 498v-394h232c186 0 313 45 313 193
c0 137 -109 201 -258 201h-287z" />
    <glyph glyph-name="Blinebelow.sc" horiz-adv-x="1069" 
d="M779 -318h-545v90h545v-90zM166 0v1068h414c195 0 325 -97 325 -262c0 -140 -92 -215 -190 -240v-6c150 -16 254 -110 254 -264c0 -189 -156 -296 -392 -296h-411zM293 964v-362h211c169 0 272 53 272 184c0 122 -90 178 -218 178h-265zM293 498v-394h232
c186 0 313 45 313 193c0 137 -109 201 -258 201h-287z" />
    <glyph glyph-name="Bdotbelow.sc" horiz-adv-x="1069" 
d="M428 -279c0 49 35 84 79 84c47 0 82 -35 82 -84c0 -46 -35 -82 -82 -82c-44 0 -79 36 -79 82zM166 0v1068h414c195 0 325 -97 325 -262c0 -140 -92 -215 -190 -240v-6c150 -16 254 -110 254 -264c0 -189 -156 -296 -392 -296h-411zM293 964v-362h211
c169 0 272 53 272 184c0 122 -90 178 -218 178h-265zM293 498v-394h232c186 0 313 45 313 193c0 137 -109 201 -258 201h-287z" />
    <glyph glyph-name="Bdotaccent.sc" horiz-adv-x="1069" 
d="M414 1331c0 52 41 92 90 92c52 0 93 -40 93 -92c0 -51 -41 -90 -93 -90c-49 0 -90 39 -90 90zM166 0v1068h414c195 0 325 -97 325 -262c0 -140 -92 -215 -190 -240v-6c150 -16 254 -110 254 -264c0 -189 -156 -296 -392 -296h-411zM293 964v-362h211
c169 0 272 53 272 184c0 122 -90 178 -218 178h-265zM293 498v-394h232c186 0 313 45 313 193c0 137 -109 201 -258 201h-287z" />
    <glyph glyph-name="C.sc" horiz-adv-x="1094" 
d="M248 615v-167c0 -232 116 -365 322 -365c185 0 288 108 288 235h125v-4c0 -159 -138 -337 -418 -337c-286 0 -445 178 -445 472v165c0 290 164 477 445 477c275 0 416 -182 416 -350v-5h-126c0 118 -100 250 -290 250c-198 0 -317 -141 -317 -371z" />
    <glyph glyph-name="Cacute.sc" horiz-adv-x="1094" 
d="M606 1218h-102l201 280h134zM248 615v-167c0 -232 116 -365 322 -365c185 0 288 108 288 235h125v-4c0 -159 -138 -337 -418 -337c-286 0 -445 178 -445 472v165c0 290 164 477 445 477c275 0 416 -182 416 -350v-5h-126c0 118 -100 250 -290 250
c-198 0 -317 -141 -317 -371z" />
    <glyph glyph-name="Ccaron.sc" horiz-adv-x="1094" 
d="M309 1528h108l147 -218h3l146 218h109l-218 -310h-77zM248 615v-167c0 -232 116 -365 322 -365c185 0 288 108 288 235h125v-4c0 -159 -138 -337 -418 -337c-286 0 -445 178 -445 472v165c0 290 164 477 445 477c275 0 416 -182 416 -350v-5h-126
c0 118 -100 250 -290 250c-198 0 -317 -141 -317 -371z" />
    <glyph glyph-name="Ccircumflex.sc" horiz-adv-x="1094" 
d="M309 1218l218 310h77l218 -310h-109l-146 218h-3l-146 -218h-109zM248 615v-167c0 -232 116 -365 322 -365c185 0 288 108 288 235h125v-4c0 -159 -138 -337 -418 -337c-286 0 -445 178 -445 472v165c0 290 164 477 445 477c275 0 416 -182 416 -350v-5h-126
c0 118 -100 250 -290 250c-198 0 -317 -141 -317 -371z" />
    <glyph glyph-name="Cdotaccent.sc" horiz-adv-x="1094" 
d="M473 1331c0 52 41 92 90 92c52 0 93 -40 93 -92c0 -51 -41 -90 -93 -90c-49 0 -90 39 -90 90zM248 615v-167c0 -232 116 -365 322 -365c185 0 288 108 288 235h125v-4c0 -159 -138 -337 -418 -337c-286 0 -445 178 -445 472v165c0 290 164 477 445 477
c275 0 416 -182 416 -350v-5h-126c0 118 -100 250 -290 250c-198 0 -317 -141 -317 -371z" />
    <glyph glyph-name="Ccedilla.sc" horiz-adv-x="1094" 
d="M560 -463c-58 -2 -114 7 -140 15v86c26 -8 80 -15 118 -15c62 0 132 23 132 91c0 70 -63 81 -145 81h-51v64l48 119c-260 17 -402 194 -402 471v165c0 290 164 477 445 477c275 0 416 -182 416 -350v-5h-126c0 118 -100 250 -290 250c-198 0 -317 -141 -317 -371v-167
c0 -232 116 -365 322 -365c185 0 288 108 288 235h125v-4c0 -148 -121 -314 -366 -335l-41 -104c119 0 205 -48 205 -158c0 -123 -106 -176 -221 -180z" />
    <glyph glyph-name="Ccedillaacute.sc" horiz-adv-x="1094" 
d="M560 -463c-58 -2 -114 7 -140 15v86c26 -8 80 -15 118 -15c62 0 132 23 132 91c0 70 -63 81 -145 81h-51v64l48 119c-260 17 -402 194 -402 471v165c0 290 164 477 445 477c275 0 416 -182 416 -350v-5h-126c0 118 -100 250 -290 250c-198 0 -317 -141 -317 -371v-167
c0 -232 116 -365 322 -365c185 0 288 108 288 235h125v-4c0 -148 -121 -314 -366 -335l-41 -104c119 0 205 -48 205 -158c0 -123 -106 -176 -221 -180zM606 1218h-102l201 280h134z" />
    <glyph glyph-name="D.sc" horiz-adv-x="1133" 
d="M166 1068h352c367 0 506 -219 506 -534c0 -310 -133 -534 -506 -534h-352v1068zM294 964v-860h215c266 0 384 154 384 430c0 260 -108 430 -384 430h-215z" />
    <glyph glyph-name="Ddotaccent.sc" horiz-adv-x="1133" 
d="M166 1068h352c367 0 506 -219 506 -534c0 -310 -133 -534 -506 -534h-352v1068zM294 964v-860h215c266 0 384 154 384 430c0 260 -108 430 -384 430h-215zM404 1331c0 52 41 92 90 92c52 0 93 -40 93 -92c0 -51 -41 -90 -93 -90c-49 0 -90 39 -90 90z" />
    <glyph glyph-name="Dcircumflexbelow.sc" horiz-adv-x="1133" 
d="M166 1068h352c367 0 506 -219 506 -534c0 -310 -133 -534 -506 -534h-352v1068zM294 964v-860h215c266 0 384 154 384 430c0 260 -108 430 -384 430h-215zM241 -409l214 288h82l214 -288h-108l-146 208h-2l-146 -208h-108z" />
    <glyph glyph-name="Dcommaaccent.sc" horiz-adv-x="1133" 
d="M166 1068h352c367 0 506 -219 506 -534c0 -310 -133 -534 -506 -534h-352v1068zM294 964v-860h215c266 0 384 154 384 430c0 260 -108 430 -384 430h-215zM457 -486h-100l85 335h129z" />
    <glyph glyph-name="Dlinebelow.sc" horiz-adv-x="1133" 
d="M166 1068h352c367 0 506 -219 506 -534c0 -310 -133 -534 -506 -534h-352v1068zM294 964v-860h215c266 0 384 154 384 430c0 260 -108 430 -384 430h-215zM769 -318h-545v90h545v-90z" />
    <glyph glyph-name="Dcaron.sc" horiz-adv-x="1133" 
d="M166 1068h352c367 0 506 -219 506 -534c0 -310 -133 -534 -506 -534h-352v1068zM294 964v-860h215c266 0 384 154 384 430c0 260 -108 430 -384 430h-215zM240 1528h108l147 -218h3l146 218h109l-218 -310h-77z" />
    <glyph glyph-name="Ddotbelow.sc" horiz-adv-x="1133" 
d="M166 1068h352c367 0 506 -219 506 -534c0 -310 -133 -534 -506 -534h-352v1068zM294 964v-860h215c266 0 384 154 384 430c0 260 -108 430 -384 430h-215zM418 -279c0 49 35 84 79 84c47 0 82 -35 82 -84c0 -46 -35 -82 -82 -82c-44 0 -79 36 -79 82z" />
    <glyph glyph-name="Dcroat.sc" horiz-adv-x="1193" 
d="M578 0h-351v494h-136v104h136v470h351c367 0 507 -219 507 -534c0 -310 -134 -534 -507 -534zM354 104h216c265 0 383 155 383 430c0 261 -108 430 -383 430h-216v-366h268v-104h-268v-390z" />
    <glyph glyph-name="E.sc" horiz-adv-x="961" 
d="M846 104v-104h-680v1068h680v-104h-553v-366h523v-104h-523v-390h553z" />
    <glyph glyph-name="Egrave.sc" horiz-adv-x="961" 
d="M566 1218h-102l-233 280h135zM846 104v-104h-680v1068h680v-104h-553v-366h523v-104h-523v-390h553z" />
    <glyph glyph-name="Edblgrave.sc" horiz-adv-x="961" 
d="M345 1218l-231 280h121l202 -280h-92zM590 1218l-231 280h120l202 -280h-91zM846 104v-104h-680v1068h680v-104h-553v-366h523v-104h-523v-390h553z" />
    <glyph glyph-name="Eacute.sc" horiz-adv-x="961" 
d="M547 1218h-102l201 280h134zM846 104v-104h-680v1068h680v-104h-553v-366h523v-104h-523v-390h553z" />
    <glyph glyph-name="Ecircumflex.sc" horiz-adv-x="961" 
d="M250 1218l218 310h77l218 -310h-109l-146 218h-3l-146 -218h-109zM846 104v-104h-680v1068h680v-104h-553v-366h523v-104h-523v-390h553z" />
    <glyph glyph-name="Ecircumflexhookabove.sc" horiz-adv-x="961" 
d="M637 1651v78c16 11 55 21 97 21c108 0 181 -66 181 -161c0 -79 -56 -133 -126 -163l-47 64c59 27 85 54 85 98c0 48 -43 86 -104 86c-35 0 -69 -12 -86 -23zM250 1218l218 310h77l218 -310h-109l-146 218h-3l-146 -218h-109zM846 104v-104h-680v1068h680v-104h-553v-366
h523v-104h-523v-390h553z" />
    <glyph glyph-name="Ecircumflexgrave.sc" horiz-adv-x="961" 
d="M923 1446h-102l-233 280h134zM250 1218l218 310h77l218 -310h-109l-146 218h-3l-146 -218h-109zM846 104v-104h-680v1068h680v-104h-553v-366h523v-104h-523v-390h553z" />
    <glyph glyph-name="Ecircumflextilde.sc" horiz-adv-x="961" 
d="M324 1638h-86c0 107 55 194 157 194c125 0 135 -130 212 -130c50 0 73 58 75 113h86c0 -91 -50 -194 -161 -194c-126 0 -136 130 -212 130c-50 0 -70 -59 -71 -113zM250 1218l218 310h77l218 -310h-109l-146 218h-3l-146 -218h-109zM846 104v-104h-680v1068h680v-104
h-553v-366h523v-104h-523v-390h553z" />
    <glyph glyph-name="Ecircumflexdotbelow.sc" horiz-adv-x="961" 
d="M250 1218l218 310h77l218 -310h-109l-146 218h-3l-146 -218h-109zM846 104v-104h-680v1068h680v-104h-553v-366h523v-104h-523v-390h553zM428 -279c0 49 35 84 79 84c47 0 82 -35 82 -84c0 -46 -35 -82 -82 -82c-44 0 -79 36 -79 82z" />
    <glyph glyph-name="Ecircumflexacute.sc" horiz-adv-x="961" 
d="M813 1446h-102l201 280h134zM250 1218l218 310h77l218 -310h-109l-146 218h-3l-146 -218h-109zM846 104v-104h-680v1068h680v-104h-553v-366h523v-104h-523v-390h553z" />
    <glyph glyph-name="Edieresis.sc" horiz-adv-x="961" 
d="M344 1240c-44 0 -78 35 -78 80c0 47 34 82 78 82c45 0 79 -35 79 -82c0 -45 -34 -80 -79 -80zM666 1240c-43 0 -78 35 -78 80c0 47 35 82 78 82c46 0 80 -35 80 -82c0 -45 -34 -80 -80 -80zM846 104v-104h-680v1068h680v-104h-553v-366h523v-104h-523v-390h553z" />
    <glyph glyph-name="Edotbelow.sc" horiz-adv-x="961" 
d="M428 -279c0 49 35 84 79 84c47 0 82 -35 82 -84c0 -46 -35 -82 -82 -82c-44 0 -79 36 -79 82zM846 104v-104h-680v1068h680v-104h-553v-366h523v-104h-523v-390h553z" />
    <glyph glyph-name="Einvertedbreve.sc" horiz-adv-x="961" 
d="M846 104v-104h-680v1068h680v-104h-553v-366h523v-104h-523v-390h553zM229 1232c-1 118 83 256 277 256s274 -140 275 -256h-95c0 92 -57 171 -180 171s-183 -79 -183 -171h-94z" />
    <glyph glyph-name="Ehookabove.sc" horiz-adv-x="961" 
d="M376 1447v80c17 11 56 22 100 22c110 0 184 -68 184 -166c0 -81 -56 -134 -129 -167l-49 66c61 27 87 56 87 100c0 48 -43 88 -106 88c-35 0 -68 -12 -87 -23zM846 104v-104h-680v1068h680v-104h-553v-366h523v-104h-523v-390h553z" />
    <glyph glyph-name="Ecaron.sc" horiz-adv-x="961" 
d="M250 1528h108l147 -218h3l146 218h109l-218 -310h-77zM846 104v-104h-680v1068h680v-104h-553v-366h523v-104h-523v-390h553z" />
    <glyph glyph-name="Emacron.sc" horiz-adv-x="961" 
d="M779 1280h-545v90h545v-90zM846 104v-104h-680v1068h680v-104h-553v-366h523v-104h-523v-390h553z" />
    <glyph glyph-name="Emacrongrave.sc" horiz-adv-x="961" 
d="M846 104v-104h-680v1068h680v-104h-553v-366h523v-104h-523v-390h553zM566 1515h-102l-233 280h135zM779 1280h-545v90h545v-90z" />
    <glyph glyph-name="Emacronacute.sc" horiz-adv-x="961" 
d="M547 1515h-102l201 280h134zM779 1280h-545v90h545v-90zM846 104v-104h-680v1068h680v-104h-553v-366h523v-104h-523v-390h553z" />
    <glyph glyph-name="Etilde.sc" horiz-adv-x="961" 
d="M620 1216c-135 0 -167 143 -250 143c-57 0 -79 -67 -80 -125h-92c0 118 62 212 172 212c134 0 164 -142 249 -142c57 0 82 66 85 127h92c0 -104 -58 -215 -176 -215zM846 104v-104h-680v1068h680v-104h-553v-366h523v-104h-523v-390h553z" />
    <glyph glyph-name="Ecircumflexbelow.sc" horiz-adv-x="961" 
d="M846 104v-104h-680v1068h680v-104h-553v-366h523v-104h-523v-390h553zM251 -409l214 288h82l214 -288h-108l-146 208h-2l-146 -208h-108z" />
    <glyph glyph-name="Ebreve.sc" horiz-adv-x="961" 
d="M229 1474h95c0 -92 60 -171 182 -171c123 0 183 79 183 171h95c-1 -117 -84 -257 -278 -257s-278 139 -277 257zM846 104v-104h-680v1068h680v-104h-553v-366h523v-104h-523v-390h553z" />
    <glyph glyph-name="Etildebelow.sc" horiz-adv-x="961" 
d="M619 -375c-130 0 -161 137 -240 137c-51 0 -74 -62 -75 -120h-87c0 113 57 203 162 203c130 0 160 -137 240 -137c52 0 77 61 80 122h87c0 -99 -53 -205 -167 -205zM846 104v-104h-680v1068h680v-104h-553v-366h523v-104h-523v-390h553z" />
    <glyph glyph-name="Edotaccent.sc" horiz-adv-x="961" 
d="M414 1331c0 52 41 92 90 92c52 0 93 -40 93 -92c0 -51 -41 -90 -93 -90c-49 0 -90 39 -90 90zM846 104v-104h-680v1068h680v-104h-553v-366h523v-104h-523v-390h553z" />
    <glyph glyph-name="Ecedilla.sc" horiz-adv-x="961" 
d="M489 -478c-57 -2 -114 8 -140 16v85c27 -8 81 -14 119 -14c62 0 132 23 132 90c0 71 -70 82 -152 82h-51v64l61 155h-292v1068h680v-106h-553v-365h523v-102h-523v-390h553v-105h-293l-54 -140c119 0 211 -47 211 -157c0 -123 -105 -177 -221 -181z" />
    <glyph glyph-name="Ecedillabreve.sc" horiz-adv-x="961" 
d="M489 -478c-57 -2 -114 8 -140 16v85c27 -8 81 -14 119 -14c62 0 132 23 132 90c0 71 -70 82 -152 82h-51v64l61 155h-292v1068h680v-106h-553v-365h523v-102h-523v-390h553v-105h-293l-54 -140c119 0 211 -47 211 -157c0 -123 -105 -177 -221 -181zM223 1474h95
c0 -92 60 -171 182 -171c123 0 183 79 183 171h95c-1 -117 -84 -257 -278 -257s-278 139 -277 257z" />
    <glyph glyph-name="Eogonek.sc" horiz-adv-x="961" 
d="M743 -377c-109 0 -203 55 -203 180c0 89 55 157 127 197h-501v1068h680v-106h-553v-365h523v-102h-523v-390h553v-90c-90 -25 -194 -90 -194 -190c0 -67 44 -104 116 -104c26 0 59 4 79 10v-91c-21 -8 -61 -17 -104 -17z" />
    <glyph glyph-name="F.sc" horiz-adv-x="905" 
d="M294 0h-128v1068h670v-106h-542v-384h498v-104h-498v-474z" />
    <glyph glyph-name="Fdotaccent.sc" horiz-adv-x="905" 
d="M294 0h-128v1068h670v-106h-542v-384h498v-104h-498v-474zM381 1331c0 52 41 92 90 92c52 0 93 -40 93 -92c0 -51 -41 -90 -93 -90c-49 0 -90 39 -90 90z" />
    <glyph glyph-name="G.sc" horiz-adv-x="1113" 
d="M989 758h-125c-14 137 -129 228 -293 228c-183 0 -323 -121 -323 -370v-157c0 -227 106 -376 321 -376c177 0 301 97 301 245v114h-306v103h428v-215c0 -162 -121 -353 -422 -353c-303 0 -450 195 -450 482v158c0 295 177 474 454 474c268 0 406 -161 415 -333z" />
    <glyph glyph-name="Gacute.sc" horiz-adv-x="1113" 
d="M989 758h-125c-14 137 -129 228 -293 228c-183 0 -323 -121 -323 -370v-157c0 -227 106 -376 321 -376c177 0 301 97 301 245v114h-306v103h428v-215c0 -162 -121 -353 -422 -353c-303 0 -450 195 -450 482v158c0 295 177 474 454 474c268 0 406 -161 415 -333zM608 1218
h-102l201 280h134z" />
    <glyph glyph-name="Gcaron.sc" horiz-adv-x="1113" 
d="M989 758h-125c-14 137 -129 228 -293 228c-183 0 -323 -121 -323 -370v-157c0 -227 106 -376 321 -376c177 0 301 97 301 245v114h-306v103h428v-215c0 -162 -121 -353 -422 -353c-303 0 -450 195 -450 482v158c0 295 177 474 454 474c268 0 406 -161 415 -333zM311 1528
h108l147 -218h3l146 218h109l-218 -310h-77z" />
    <glyph glyph-name="Gcircumflex.sc" horiz-adv-x="1113" 
d="M989 758h-125c-14 137 -129 228 -293 228c-183 0 -323 -121 -323 -370v-157c0 -227 106 -376 321 -376c177 0 301 97 301 245v114h-306v103h428v-215c0 -162 -121 -353 -422 -353c-303 0 -450 195 -450 482v158c0 295 177 474 454 474c268 0 406 -161 415 -333zM311 1218
l218 310h77l218 -310h-109l-146 218h-3l-146 -218h-109z" />
    <glyph glyph-name="Gbreve.sc" horiz-adv-x="1113" 
d="M989 758h-125c-14 137 -129 228 -293 228c-183 0 -323 -121 -323 -370v-157c0 -227 106 -376 321 -376c177 0 301 97 301 245v114h-306v103h428v-215c0 -162 -121 -353 -422 -353c-303 0 -450 195 -450 482v158c0 295 177 474 454 474c268 0 406 -161 415 -333zM290 1474
h95c0 -92 60 -171 182 -171c123 0 183 79 183 171h95c-1 -117 -84 -257 -278 -257s-278 139 -277 257z" />
    <glyph glyph-name="Gmacron.sc" horiz-adv-x="1113" 
d="M989 758h-125c-14 137 -129 228 -293 228c-183 0 -323 -121 -323 -370v-157c0 -227 106 -376 321 -376c177 0 301 97 301 245v114h-306v103h428v-215c0 -162 -121 -353 -422 -353c-303 0 -450 195 -450 482v158c0 295 177 474 454 474c268 0 406 -161 415 -333zM840 1280
h-545v90h545v-90z" />
    <glyph glyph-name="Gdotaccent.sc" horiz-adv-x="1113" 
d="M989 758h-125c-14 137 -129 228 -293 228c-183 0 -323 -121 -323 -370v-157c0 -227 106 -376 321 -376c177 0 301 97 301 245v114h-306v103h428v-215c0 -162 -121 -353 -422 -353c-303 0 -450 195 -450 482v158c0 295 177 474 454 474c268 0 406 -161 415 -333zM475 1331
c0 52 41 92 90 92c52 0 93 -40 93 -92c0 -51 -41 -90 -93 -90c-49 0 -90 39 -90 90z" />
    <glyph glyph-name="Gcommaaccent.sc" horiz-adv-x="1113" 
d="M989 758h-125c-14 137 -129 228 -293 228c-183 0 -323 -121 -323 -370v-157c0 -227 106 -376 321 -376c177 0 301 97 301 245v114h-306v103h428v-215c0 -162 -121 -353 -422 -353c-303 0 -450 195 -450 482v158c0 295 177 474 454 474c268 0 406 -161 415 -333zM525 -486
h-100l85 335h129z" />
    <glyph glyph-name="H.sc" horiz-adv-x="1185" 
d="M1019 0h-128v502h-597v-502h-128v1068h128v-462h597v462h128v-1068z" />
    <glyph glyph-name="Hdieresis.sc" horiz-adv-x="1185" 
d="M1019 0h-128v502h-597v-502h-128v1068h128v-462h597v462h128v-1068zM431 1240c-44 0 -78 35 -78 80c0 47 34 82 78 82c45 0 79 -35 79 -82c0 -45 -34 -80 -79 -80zM753 1240c-43 0 -78 35 -78 80c0 47 35 82 78 82c46 0 80 -35 80 -82c0 -45 -34 -80 -80 -80z" />
    <glyph glyph-name="Hcaron.sc" horiz-adv-x="1185" 
d="M337 1528h108l147 -218h3l146 218h109l-218 -310h-77zM1019 0h-128v502h-597v-502h-128v1068h128v-462h597v462h128v-1068z" />
    <glyph glyph-name="Hcircumflex.sc" horiz-adv-x="1185" 
d="M336 1218l218 310h77l218 -310h-109l-146 218h-3l-146 -218h-109zM1019 0h-128v502h-597v-502h-128v1068h128v-462h597v462h128v-1068z" />
    <glyph glyph-name="Hdotbelow.sc" horiz-adv-x="1185" 
d="M513 -279c0 49 35 84 79 84c47 0 82 -35 82 -84c0 -46 -35 -82 -82 -82c-44 0 -79 36 -79 82zM1019 0h-128v502h-597v-502h-128v1068h128v-462h597v462h128v-1068z" />
    <glyph glyph-name="Hdotaccent.sc" horiz-adv-x="1185" 
d="M500 1331c0 52 41 92 90 92c52 0 93 -40 93 -92c0 -51 -41 -90 -93 -90c-49 0 -90 39 -90 90zM1019 0h-128v502h-597v-502h-128v1068h128v-462h597v462h128v-1068z" />
    <glyph glyph-name="Hbrevebelow.sc" horiz-adv-x="1185" 
d="M301 -150c0 -122 87 -256 291 -256s282 138 282 256h-96c0 -92 -61 -170 -186 -170s-189 78 -189 170h-102zM1019 0h-128v502h-597v-502h-128v1068h128v-462h597v462h128v-1068z" />
    <glyph glyph-name="Hcedilla.sc" horiz-adv-x="1185" 
d="M230 -478c-57 -2 -114 8 -140 16v85c27 -8 81 -14 119 -14c62 0 132 23 132 90c0 71 -70 82 -152 82h-51v64l61 155h-33v1068h128v-462h597v462h128v-1068h-128v502h-597v-502l-54 -140c119 0 212 -47 212 -157c0 -123 -106 -177 -222 -181z" />
    <glyph glyph-name="Hbar.sc" horiz-adv-x="1186" 
d="M294 591h597v198h-597v-198zM294 487v-487h-128v789h-98v89h98v190h128v-190h597v190h128v-190h99v-89h-99v-789h-128v487h-597z" />
    <glyph glyph-name="I.sc" horiz-adv-x="469" 
d="M298 0h-128v1068h128v-1068z" />
    <glyph glyph-name="Idotaccent.sc" horiz-adv-x="469" 
d="M142 1331c0 52 41 92 90 92c52 0 93 -40 93 -92c0 -51 -41 -90 -93 -90c-49 0 -90 39 -90 90zM298 0h-128v1068h128v-1068z" />
    <glyph glyph-name="Igrave.sc" horiz-adv-x="469" 
d="M294 1218h-102l-233 280h135zM298 0h-128v1068h128v-1068z" />
    <glyph glyph-name="Idblgrave.sc" horiz-adv-x="469" 
d="M298 0h-128v1068h128v-1068zM73 1218l-231 280h121l202 -280h-92zM318 1218l-231 280h120l202 -280h-91z" />
    <glyph glyph-name="Iacute.sc" horiz-adv-x="469" 
d="M275 1218h-102l201 280h134zM298 0h-128v1068h128v-1068z" />
    <glyph glyph-name="Icircumflex.sc" horiz-adv-x="469" 
d="M-22 1218l218 310h77l218 -310h-109l-146 218h-3l-146 -218h-109zM298 0h-128v1068h128v-1068z" />
    <glyph glyph-name="Icaron.sc" horiz-adv-x="469" 
d="M-22 1528h108l147 -218h3l146 218h109l-218 -310h-77zM298 0h-128v1068h128v-1068z" />
    <glyph glyph-name="Idieresis.sc" horiz-adv-x="469" 
d="M297 0h-128v1068h128v-1068zM72 1240c-44 0 -78 35 -78 80c0 47 34 82 78 82c45 0 79 -35 79 -82c0 -45 -34 -80 -79 -80zM394 1240c-43 0 -78 35 -78 80c0 47 35 82 78 82c46 0 80 -35 80 -82c0 -45 -34 -80 -80 -80z" />
    <glyph glyph-name="Idieresisacute.sc" horiz-adv-x="469" 
d="M275 1515h-102l201 280h134zM72 1240c-44 0 -78 35 -78 80c0 47 34 82 78 82c45 0 79 -35 79 -82c0 -45 -34 -80 -79 -80zM394 1240c-43 0 -78 35 -78 80c0 47 35 82 78 82c46 0 80 -35 80 -82c0 -45 -34 -80 -80 -80zM298 0h-128v1068h128v-1068z" />
    <glyph glyph-name="Ibreve.sc" horiz-adv-x="469" 
d="M298 0h-128v1068h128v-1068zM-43 1474h95c0 -92 60 -171 182 -171c123 0 183 79 183 171h95c-1 -117 -84 -257 -278 -257s-278 139 -277 257z" />
    <glyph glyph-name="Idotbelow.sc" horiz-adv-x="469" 
d="M156 -279c0 49 35 84 79 84c47 0 82 -35 82 -84c0 -46 -35 -82 -82 -82c-44 0 -79 36 -79 82zM299 0h-128v1068h128v-1068z" />
    <glyph glyph-name="Iinvertedbreve.sc" horiz-adv-x="469" 
d="M298 0h-128v1068h128v-1068zM-43 1232c-1 118 83 256 277 256s274 -140 275 -256h-95c0 92 -57 171 -180 171s-183 -79 -183 -171h-94z" />
    <glyph glyph-name="Imacron.sc" horiz-adv-x="469" 
d="M297 0h-128v1068h128v-1068zM507 1280h-545v90h545v-90z" />
    <glyph glyph-name="Itildebelow.sc" horiz-adv-x="469" 
d="M347 -375c-130 0 -161 137 -240 137c-51 0 -74 -62 -75 -120h-87c0 113 57 203 162 203c130 0 160 -137 240 -137c52 0 77 61 80 122h87c0 -99 -53 -205 -167 -205zM298 0h-128v1068h128v-1068z" />
    <glyph glyph-name="Ihookabove.sc" horiz-adv-x="469" 
d="M298 0h-128v1068h128v-1068zM104 1447v80c17 11 56 22 100 22c110 0 184 -68 184 -166c0 -81 -56 -134 -129 -167l-49 66c61 27 87 56 87 100c0 48 -43 88 -106 88c-35 0 -68 -12 -87 -23z" />
    <glyph glyph-name="Itilde.sc" horiz-adv-x="469" 
d="M298 0h-128v1068h128v-1068zM348 1216c-135 0 -167 143 -250 143c-57 0 -79 -67 -80 -125h-92c0 118 62 212 172 212c134 0 164 -142 249 -142c57 0 82 66 85 127h92c0 -104 -58 -215 -176 -215z" />
    <glyph glyph-name="Iogonek.sc" horiz-adv-x="469" 
d="M337 -359c-15 -7 -52 -18 -98 -18c-113 0 -204 62 -204 181c0 115 70 174 135 226v1038h128v-1068c-78 -31 -149 -86 -149 -175c0 -65 49 -104 115 -104c21 0 49 3 73 10v-90z" />
    <glyph glyph-name="J.sc" horiz-adv-x="846" 
d="M46 246h125c3 -86 74 -158 188 -158c118 0 202 61 202 207v775h128v-766c0 -220 -135 -324 -330 -324c-204 0 -313 124 -313 266z" />
    <glyph glyph-name="Jcircumflex.sc" horiz-adv-x="846" 
d="M368 1218l218 310h77l218 -310h-109l-146 218h-3l-146 -218h-109zM46 246h125c3 -86 74 -158 188 -158c118 0 202 61 202 207v775h128v-766c0 -220 -135 -324 -330 -324c-204 0 -313 124 -313 266z" />
    <glyph glyph-name="K.sc" horiz-adv-x="1023" 
d="M967 1068l-439 -462l463 -606h-161l-398 524l-138 -140v-384h-128v1068h128v-532h5l517 532h151z" />
    <glyph glyph-name="Kacute.sc" horiz-adv-x="1023" 
d="M551 1218h-102l201 280h134zM967 1068l-439 -462l463 -606h-161l-398 524l-138 -140v-384h-128v1068h128v-532h5l517 532h151z" />
    <glyph glyph-name="Kcaron.sc" horiz-adv-x="1023" 
d="M254 1528h108l147 -218h3l146 218h109l-218 -310h-77zM967 1068l-439 -462l463 -606h-161l-398 524l-138 -140v-384h-128v1068h128v-532h5l517 532h151z" />
    <glyph glyph-name="Kdotbelow.sc" horiz-adv-x="1023" 
d="M433 -279c0 49 35 84 79 84c47 0 82 -35 82 -84c0 -46 -35 -82 -82 -82c-44 0 -79 36 -79 82zM967 1068l-439 -462l463 -606h-161l-398 524l-138 -140v-384h-128v1068h128v-532h5l517 532h151z" />
    <glyph glyph-name="Klinebelow.sc" horiz-adv-x="1023" 
d="M784 -318h-545v90h545v-90zM967 1068l-439 -462l463 -606h-161l-398 524l-138 -140v-384h-128v1068h128v-532h5l517 532h151z" />
    <glyph glyph-name="Kcommaaccent.sc" horiz-adv-x="1023" 
d="M472 -486h-100l85 335h129zM967 1068l-439 -462l463 -606h-161l-398 524l-138 -140v-384h-128v1068h128v-532h5l517 532h151z" />
    <glyph glyph-name="L.sc" horiz-adv-x="884" 
d="M833 104v-104h-667v1068h128v-964h539z" />
    <glyph glyph-name="Lacute.sc" horiz-adv-x="884" 
d="M833 104v-104h-667v1068h128v-964h539zM271 1218h-102l201 280h134z" />
    <glyph glyph-name="Lcircumflexbelow.sc" horiz-adv-x="884" 
d="M833 104v-104h-667v1068h128v-964h539zM186 -409l214 288h82l214 -288h-108l-146 208h-2l-146 -208h-108z" />
    <glyph glyph-name="Ldotbelow.sc" horiz-adv-x="884" 
d="M833 104v-104h-667v1068h128v-964h539zM363 -279c0 49 35 84 79 84c47 0 82 -35 82 -84c0 -46 -35 -82 -82 -82c-44 0 -79 36 -79 82z" />
    <glyph glyph-name="Ldotbelowmacron.sc" horiz-adv-x="884" 
d="M833 104v-104h-667v1068h128v-964h539zM363 -279c0 49 35 84 79 84c47 0 82 -35 82 -84c0 -46 -35 -82 -82 -82c-44 0 -79 36 -79 82zM503 1280h-545v90h545v-90z" />
    <glyph glyph-name="Llinebelow.sc" horiz-adv-x="884" 
d="M833 104v-104h-667v1068h128v-964h539zM714 -318h-545v90h545v-90z" />
    <glyph glyph-name="Lcommaaccent.sc" horiz-adv-x="884" 
d="M833 104v-104h-667v1068h128v-964h539zM402 -486h-100l85 335h129z" />
    <glyph glyph-name="Lcaron.sc" horiz-adv-x="884" 
d="M511 1140h127l-40 -488h-87v488zM833 104v-104h-667v1068h128v-964h539z" />
    <glyph glyph-name="Lslash.sc" horiz-adv-x="892" 
d="M841 0h-667v432l-114 -61v113l114 62v522h127v-453l332 181v-115l-332 -180v-397h540v-104z" />
    <glyph glyph-name="M.sc" horiz-adv-x="1377" 
d="M285 0h-116v1068h126l391 -846h5l391 846h125v-1068h-116v826h-6l-344 -734h-105l-345 734h-6v-826z" />
    <glyph glyph-name="Macute.sc" horiz-adv-x="1377" 
d="M729 1218h-102l201 280h134zM285 0h-116v1068h126l391 -846h5l391 846h125v-1068h-116v826h-6l-344 -734h-105l-345 734h-6v-826z" />
    <glyph glyph-name="Mdotaccent.sc" horiz-adv-x="1377" 
d="M596 1331c0 52 41 92 90 92c52 0 93 -40 93 -92c0 -51 -41 -90 -93 -90c-49 0 -90 39 -90 90zM285 0h-116v1068h126l391 -846h5l391 846h125v-1068h-116v826h-6l-344 -734h-105l-345 734h-6v-826z" />
    <glyph glyph-name="Mdotbelow.sc" horiz-adv-x="1377" 
d="M609 -279c0 49 35 84 79 84c47 0 82 -35 82 -84c0 -46 -35 -82 -82 -82c-44 0 -79 36 -79 82zM285 0h-116v1068h126l391 -846h5l391 846h125v-1068h-116v826h-6l-344 -734h-105l-345 734h-6v-826z" />
    <glyph glyph-name="N.sc" horiz-adv-x="1181" 
d="M291 0h-125v1068h121l596 -863h6v863h126v-1068h-122l-596 864h-6v-864z" />
    <glyph glyph-name="Ngrave.sc" horiz-adv-x="1181" 
d="M291 0h-125v1068h121l596 -863h6v863h126v-1068h-122l-596 864h-6v-864zM650 1218h-102l-233 280h135z" />
    <glyph glyph-name="Nacute.sc" horiz-adv-x="1181" 
d="M291 0h-125v1068h121l596 -863h6v863h126v-1068h-122l-596 864h-6v-864zM631 1218h-102l201 280h134z" />
    <glyph glyph-name="Ntilde.sc" horiz-adv-x="1181" 
d="M291 0h-125v1068h121l596 -863h6v863h126v-1068h-122l-596 864h-6v-864zM704 1216c-135 0 -167 143 -250 143c-57 0 -79 -67 -80 -125h-92c0 118 62 212 172 212c134 0 164 -142 249 -142c57 0 82 66 85 127h92c0 -104 -58 -215 -176 -215z" />
    <glyph glyph-name="Ndotbelow.sc" horiz-adv-x="1181" 
d="M511 -279c0 49 35 84 79 84c47 0 82 -35 82 -84c0 -46 -35 -82 -82 -82c-44 0 -79 36 -79 82zM291 0h-125v1068h121l596 -863h6v863h126v-1068h-122l-596 864h-6v-864z" />
    <glyph glyph-name="Ndotaccent.sc" horiz-adv-x="1181" 
d="M291 0h-125v1068h121l596 -863h6v863h126v-1068h-122l-596 864h-6v-864zM498 1331c0 52 41 92 90 92c52 0 93 -40 93 -92c0 -51 -41 -90 -93 -90c-49 0 -90 39 -90 90z" />
    <glyph glyph-name="Ncaron.sc" horiz-adv-x="1181" 
d="M336 1528h108l147 -218h3l146 218h109l-218 -310h-77zM291 0h-125v1068h121l596 -863h6v863h126v-1068h-122l-596 864h-6v-864z" />
    <glyph glyph-name="Ncircumflexbelow.sc" horiz-adv-x="1181" 
d="M291 0h-125v1068h121l596 -863h6v863h126v-1068h-122l-596 864h-6v-864zM335 -409l214 288h82l214 -288h-108l-146 208h-2l-146 -208h-108z" />
    <glyph glyph-name="Nlinebelow.sc" horiz-adv-x="1181" 
d="M291 0h-125v1068h121l596 -863h6v863h126v-1068h-122l-596 864h-6v-864zM865 -318h-545v90h545v-90z" />
    <glyph glyph-name="Ncommaaccent.sc" horiz-adv-x="1181" 
d="M291 0h-125v1068h121l596 -863h6v863h126v-1068h-122l-596 864h-6v-864zM551 -486h-100l85 335h129z" />
    <glyph glyph-name="O.sc" horiz-adv-x="1148" 
d="M247 616v-171c0 -237 134 -362 326 -362c193 0 327 125 327 362v171c0 236 -135 370 -327 370c-191 0 -326 -134 -326 -370zM120 446v168c0 296 175 477 455 477s453 -182 453 -478v-167c0 -294 -175 -469 -455 -469c-281 0 -453 175 -453 469z" />
    <glyph glyph-name="Odieresis.sc" horiz-adv-x="1148" 
d="M247 616v-171c0 -237 134 -362 326 -362c193 0 327 125 327 362v171c0 236 -135 370 -327 370c-191 0 -326 -134 -326 -370zM120 446v168c0 296 175 477 455 477s453 -182 453 -478v-167c0 -294 -175 -469 -455 -469c-281 0 -453 175 -453 469zM413 1240
c-44 0 -78 35 -78 80c0 47 34 82 78 82c45 0 79 -35 79 -82c0 -45 -34 -80 -79 -80zM735 1240c-43 0 -78 35 -78 80c0 47 35 82 78 82c46 0 80 -35 80 -82c0 -45 -34 -80 -80 -80z" />
    <glyph glyph-name="Oslash.sc" horiz-adv-x="1148" 
d="M573 -23c-139 0 -250 43 -327 124l-88 -101l-70 54l101 115c-44 74 -69 167 -69 278v167c0 296 175 477 455 477c134 0 243 -43 320 -119l87 99l73 -49l-103 -117c49 -77 76 -175 76 -291v-167c0 -295 -175 -470 -455 -470zM247 445c0 -67 11 -125 31 -173l538 610
c-58 67 -142 104 -243 104c-192 0 -326 -133 -326 -370v-171zM573 82c194 0 328 125 328 363v171c0 72 -14 135 -37 187l-540 -612c58 -71 145 -109 249 -109z" />
    <glyph glyph-name="Otilde.sc" horiz-adv-x="1148" 
d="M247 616v-171c0 -237 134 -362 326 -362c193 0 327 125 327 362v171c0 236 -135 370 -327 370c-191 0 -326 -134 -326 -370zM120 446v168c0 296 175 477 455 477s453 -182 453 -478v-167c0 -294 -175 -469 -455 -469c-281 0 -453 175 -453 469zM688 1216
c-135 0 -167 143 -250 143c-57 0 -79 -67 -80 -125h-92c0 118 62 212 172 212c134 0 164 -142 249 -142c57 0 82 66 85 127h92c0 -104 -58 -215 -176 -215z" />
    <glyph glyph-name="Oacute.sc" horiz-adv-x="1148" 
d="M247 616v-171c0 -237 134 -362 326 -362c193 0 327 125 327 362v171c0 236 -135 370 -327 370c-191 0 -326 -134 -326 -370zM120 446v168c0 296 175 477 455 477s453 -182 453 -478v-167c0 -294 -175 -469 -455 -469c-281 0 -453 175 -453 469zM615 1218h-102l201 280
h134z" />
    <glyph glyph-name="Ocircumflex.sc" horiz-adv-x="1148" 
d="M247 616v-171c0 -237 134 -362 326 -362c193 0 327 125 327 362v171c0 236 -135 370 -327 370c-191 0 -326 -134 -326 -370zM120 446v168c0 296 175 477 455 477s453 -182 453 -478v-167c0 -294 -175 -469 -455 -469c-281 0 -453 175 -453 469zM318 1218l218 310h77
l218 -310h-109l-146 218h-3l-146 -218h-109z" />
    <glyph glyph-name="Ograve.sc" horiz-adv-x="1148" 
d="M247 616v-171c0 -237 134 -362 326 -362c193 0 327 125 327 362v171c0 236 -135 370 -327 370c-191 0 -326 -134 -326 -370zM120 446v168c0 296 175 477 455 477s453 -182 453 -478v-167c0 -294 -175 -469 -455 -469c-281 0 -453 175 -453 469zM634 1218h-102l-233 280
h135z" />
    <glyph glyph-name="Ocircumflexhookabove.sc" horiz-adv-x="1148" 
d="M247 616v-171c0 -237 134 -362 326 -362c193 0 327 125 327 362v171c0 236 -135 370 -327 370c-191 0 -326 -134 -326 -370zM120 446v168c0 296 175 477 455 477s453 -182 453 -478v-167c0 -294 -175 -469 -455 -469c-281 0 -453 175 -453 469zM705 1651v78
c16 11 55 21 97 21c108 0 181 -66 181 -161c0 -79 -56 -133 -126 -163l-47 64c59 27 85 54 85 98c0 48 -43 86 -104 86c-35 0 -69 -12 -86 -23zM318 1218l218 310h77l218 -310h-109l-146 218h-3l-146 -218h-109z" />
    <glyph glyph-name="Ocircumflexgrave.sc" horiz-adv-x="1148" 
d="M247 616v-171c0 -237 134 -362 326 -362c193 0 327 125 327 362v171c0 236 -135 370 -327 370c-191 0 -326 -134 -326 -370zM120 446v168c0 296 175 477 455 477s453 -182 453 -478v-167c0 -294 -175 -469 -455 -469c-281 0 -453 175 -453 469zM991 1446h-102l-233 280
h134zM318 1218l218 310h77l218 -310h-109l-146 218h-3l-146 -218h-109z" />
    <glyph glyph-name="Odotbelow.sc" horiz-adv-x="1148" 
d="M247 616v-171c0 -237 134 -362 326 -362c193 0 327 125 327 362v171c0 236 -135 370 -327 370c-191 0 -326 -134 -326 -370zM120 446v168c0 296 175 477 455 477s453 -182 453 -478v-167c0 -294 -175 -469 -455 -469c-281 0 -453 175 -453 469zM494 -279
c0 49 35 84 79 84c47 0 82 -35 82 -84c0 -46 -35 -82 -82 -82c-44 0 -79 36 -79 82z" />
    <glyph glyph-name="Odblgrave.sc" horiz-adv-x="1148" 
d="M247 616v-171c0 -237 134 -362 326 -362c193 0 327 125 327 362v171c0 236 -135 370 -327 370c-191 0 -326 -134 -326 -370zM120 446v168c0 296 175 477 455 477s453 -182 453 -478v-167c0 -294 -175 -469 -455 -469c-281 0 -453 175 -453 469zM413 1218l-231 280h121
l202 -280h-92zM658 1218l-231 280h120l202 -280h-91z" />
    <glyph glyph-name="Otildeacute.sc" horiz-adv-x="1148" 
d="M247 616v-171c0 -237 134 -362 326 -362c193 0 327 125 327 362v171c0 236 -135 370 -327 370c-191 0 -326 -134 -326 -370zM120 446v168c0 296 175 477 455 477s453 -182 453 -478v-167c0 -294 -175 -469 -455 -469c-281 0 -453 175 -453 469zM612 1515h-102l201 280
h134zM688 1216c-135 0 -167 143 -250 143c-57 0 -79 -67 -80 -125h-92c0 118 62 212 172 212c134 0 164 -142 249 -142c57 0 82 66 85 127h92c0 -104 -58 -215 -176 -215z" />
    <glyph glyph-name="Omacronacute.sc" horiz-adv-x="1148" 
d="M247 616v-171c0 -237 134 -362 326 -362c193 0 327 125 327 362v171c0 236 -135 370 -327 370c-191 0 -326 -134 -326 -370zM120 446v168c0 296 175 477 455 477s453 -182 453 -478v-167c0 -294 -175 -469 -455 -469c-281 0 -453 175 -453 469zM615 1515h-102l201 280
h134zM847 1280h-545v90h545v-90z" />
    <glyph glyph-name="Ocircumflextilde.sc" horiz-adv-x="1148" 
d="M247 616v-171c0 -237 134 -362 326 -362c193 0 327 125 327 362v171c0 236 -135 370 -327 370c-191 0 -326 -134 -326 -370zM120 446v168c0 296 175 477 455 477s453 -182 453 -478v-167c0 -294 -175 -469 -455 -469c-281 0 -453 175 -453 469zM392 1638h-86
c0 107 55 194 157 194c125 0 135 -130 212 -130c50 0 73 58 75 113h86c0 -91 -50 -194 -161 -194c-126 0 -136 130 -212 130c-50 0 -70 -59 -71 -113zM318 1218l218 310h77l218 -310h-109l-146 218h-3l-146 -218h-109z" />
    <glyph glyph-name="Odotaccentmacron.sc" horiz-adv-x="1148" 
d="M247 616v-171c0 -237 134 -362 326 -362c193 0 327 125 327 362v171c0 236 -135 370 -327 370c-191 0 -326 -134 -326 -370zM120 446v168c0 296 175 477 455 477s453 -182 453 -478v-167c0 -294 -175 -469 -455 -469c-281 0 -453 175 -453 469zM482 1331
c0 52 41 92 90 92c52 0 93 -40 93 -92c0 -51 -41 -90 -93 -90c-49 0 -90 39 -90 90zM847 1571h-545v90h545v-90z" />
    <glyph glyph-name="Omacrongrave.sc" horiz-adv-x="1148" 
d="M247 616v-171c0 -237 134 -362 326 -362c193 0 327 125 327 362v171c0 236 -135 370 -327 370c-191 0 -326 -134 -326 -370zM120 446v168c0 296 175 477 455 477s453 -182 453 -478v-167c0 -294 -175 -469 -455 -469c-281 0 -453 175 -453 469zM634 1515h-102l-233 280
h135zM847 1280h-545v90h545v-90z" />
    <glyph glyph-name="Ocaron.sc" horiz-adv-x="1148" 
d="M247 616v-171c0 -237 134 -362 326 -362c193 0 327 125 327 362v171c0 236 -135 370 -327 370c-191 0 -326 -134 -326 -370zM120 446v168c0 296 175 477 455 477s453 -182 453 -478v-167c0 -294 -175 -469 -455 -469c-281 0 -453 175 -453 469zM320 1528h108l147 -218h3
l146 218h109l-218 -310h-77z" />
    <glyph glyph-name="Oslashacute.sc" horiz-adv-x="1148" 
d="M614 1218h-102l201 280h134zM573 -23c-139 0 -250 43 -327 124l-88 -101l-70 54l101 115c-44 74 -69 167 -69 278v167c0 296 175 477 455 477c134 0 243 -43 320 -119l87 99l73 -49l-103 -117c49 -77 76 -175 76 -291v-167c0 -295 -175 -470 -455 -470zM247 445
c0 -67 11 -125 31 -173l538 610c-58 67 -142 104 -243 104c-192 0 -326 -133 -326 -370v-171zM573 82c194 0 328 125 328 363v171c0 72 -14 135 -37 187l-540 -612c58 -71 145 -109 249 -109z" />
    <glyph glyph-name="Ohungarumlaut.sc" horiz-adv-x="1148" 
d="M247 616v-171c0 -237 134 -362 326 -362c193 0 327 125 327 362v171c0 236 -135 370 -327 370c-191 0 -326 -134 -326 -370zM120 446v168c0 296 175 477 455 477s453 -182 453 -478v-167c0 -294 -175 -469 -455 -469c-281 0 -453 175 -453 469zM476 1219h-91l204 280h120
zM721 1219h-92l204 280h120z" />
    <glyph glyph-name="Obreve.sc" horiz-adv-x="1148" 
d="M247 616v-171c0 -237 134 -362 326 -362c193 0 327 125 327 362v171c0 236 -135 370 -327 370c-191 0 -326 -134 -326 -370zM120 446v168c0 296 175 477 455 477s453 -182 453 -478v-167c0 -294 -175 -469 -455 -469c-281 0 -453 175 -453 469zM297 1474h95
c0 -92 60 -171 182 -171c123 0 183 79 183 171h95c-1 -117 -84 -257 -278 -257s-278 139 -277 257z" />
    <glyph glyph-name="Oinvertedbreve.sc" horiz-adv-x="1148" 
d="M247 616v-171c0 -237 134 -362 326 -362c193 0 327 125 327 362v171c0 236 -135 370 -327 370c-191 0 -326 -134 -326 -370zM120 446v168c0 296 175 477 455 477s453 -182 453 -478v-167c0 -294 -175 -469 -455 -469c-281 0 -453 175 -453 469zM297 1232
c-1 118 83 256 277 256s274 -140 275 -256h-95c0 92 -57 171 -180 171s-183 -79 -183 -171h-94z" />
    <glyph glyph-name="Ohookabove.sc" horiz-adv-x="1148" 
d="M247 616v-171c0 -237 134 -362 326 -362c193 0 327 125 327 362v171c0 236 -135 370 -327 370c-191 0 -326 -134 -326 -370zM120 446v168c0 296 175 477 455 477s453 -182 453 -478v-167c0 -294 -175 -469 -455 -469c-281 0 -453 175 -453 469zM444 1447v80
c17 11 56 22 100 22c110 0 184 -68 184 -166c0 -81 -56 -134 -129 -167l-49 66c61 27 87 56 87 100c0 48 -43 88 -106 88c-35 0 -68 -12 -87 -23z" />
    <glyph glyph-name="Odieresismacron.sc" horiz-adv-x="1148" 
d="M247 616v-171c0 -237 134 -362 326 -362c193 0 327 125 327 362v171c0 236 -135 370 -327 370c-191 0 -326 -134 -326 -370zM120 446v168c0 296 175 477 455 477s453 -182 453 -478v-167c0 -294 -175 -469 -455 -469c-281 0 -453 175 -453 469zM412 1240
c-44 0 -78 35 -78 80c0 47 34 82 78 82c45 0 79 -35 79 -82c0 -45 -34 -80 -79 -80zM734 1240c-43 0 -78 35 -78 80c0 47 35 82 78 82c46 0 80 -35 80 -82c0 -45 -34 -80 -80 -80zM847 1571h-545v90h545v-90z" />
    <glyph glyph-name="Otildemacron.sc" horiz-adv-x="1148" 
d="M247 616v-171c0 -237 134 -362 326 -362c193 0 327 125 327 362v171c0 236 -135 370 -327 370c-191 0 -326 -134 -326 -370zM120 446v168c0 296 175 477 455 477s453 -182 453 -478v-167c0 -294 -175 -469 -455 -469c-281 0 -453 175 -453 469zM688 1216
c-135 0 -167 143 -250 143c-57 0 -79 -67 -80 -125h-92c0 118 62 212 172 212c134 0 164 -142 249 -142c57 0 82 66 85 127h92c0 -104 -58 -215 -176 -215zM847 1571h-545v90h545v-90z" />
    <glyph glyph-name="Odotaccent.sc" horiz-adv-x="1148" 
d="M247 616v-171c0 -237 134 -362 326 -362c193 0 327 125 327 362v171c0 236 -135 370 -327 370c-191 0 -326 -134 -326 -370zM120 446v168c0 296 175 477 455 477s453 -182 453 -478v-167c0 -294 -175 -469 -455 -469c-281 0 -453 175 -453 469zM482 1331
c0 52 41 92 90 92c52 0 93 -40 93 -92c0 -51 -41 -90 -93 -90c-49 0 -90 39 -90 90z" />
    <glyph glyph-name="Ocircumflexdotbelow.sc" horiz-adv-x="1148" 
d="M318 1218l218 310h77l218 -310h-109l-146 218h-3l-146 -218h-109zM247 616v-171c0 -237 134 -362 326 -362c193 0 327 125 327 362v171c0 236 -135 370 -327 370c-191 0 -326 -134 -326 -370zM120 446v168c0 296 175 477 455 477s453 -182 453 -478v-167
c0 -294 -175 -469 -455 -469c-281 0 -453 175 -453 469zM495 -279c0 49 35 84 79 84c47 0 82 -35 82 -84c0 -46 -35 -82 -82 -82c-44 0 -79 36 -79 82z" />
    <glyph glyph-name="Ocircumflexacute.sc" horiz-adv-x="1148" 
d="M247 616v-171c0 -237 134 -362 326 -362c193 0 327 125 327 362v171c0 236 -135 370 -327 370c-191 0 -326 -134 -326 -370zM120 446v168c0 296 175 477 455 477s453 -182 453 -478v-167c0 -294 -175 -469 -455 -469c-281 0 -453 175 -453 469zM881 1446h-102l201 280
h134zM318 1218l218 310h77l218 -310h-109l-146 218h-3l-146 -218h-109z" />
    <glyph glyph-name="Otildedieresis.sc" horiz-adv-x="1148" 
d="M688 1216c-135 0 -167 143 -250 143c-57 0 -79 -67 -80 -125h-92c0 118 62 212 172 212c134 0 164 -142 249 -142c57 0 82 66 85 127h92c0 -104 -58 -215 -176 -215zM412 1544c-44 0 -78 35 -78 80c0 47 34 82 78 82c45 0 79 -35 79 -82c0 -45 -34 -80 -79 -80zM734 1544
c-43 0 -78 35 -78 80c0 47 35 82 78 82c46 0 80 -35 80 -82c0 -45 -34 -80 -80 -80zM247 616v-171c0 -237 134 -362 326 -362c193 0 327 125 327 362v171c0 236 -135 370 -327 370c-191 0 -326 -134 -326 -370zM120 446v168c0 296 175 477 455 477s453 -182 453 -478v-167
c0 -294 -175 -469 -455 -469c-281 0 -453 175 -453 469z" />
    <glyph glyph-name="Omacron.sc" horiz-adv-x="1148" 
d="M247 616v-171c0 -237 134 -362 326 -362c193 0 327 125 327 362v171c0 236 -135 370 -327 370c-191 0 -326 -134 -326 -370zM120 446v168c0 296 175 477 455 477s453 -182 453 -478v-167c0 -294 -175 -469 -455 -469c-281 0 -453 175 -453 469zM848 1280h-545v90h545v-90
z" />
    <glyph glyph-name="Oogonek.sc" horiz-adv-x="1148" 
d="M690 -9c-36 -12 -79 -14 -113 -14c-286 0 -457 175 -457 469v168c0 296 175 477 455 477s453 -182 453 -478v-167c0 -176 -71 -295 -165 -379c-47 -43 -149 -124 -149 -233c0 -76 46 -106 109 -106c21 0 57 4 83 11v-95c-12 -6 -55 -18 -107 -18c-112 0 -196 57 -196 170
c0 77 38 147 88 192zM247 616v-171c0 -237 134 -362 326 -362c193 0 327 125 327 362v171c0 236 -135 370 -327 370c-191 0 -326 -134 -326 -370z" />
    <glyph glyph-name="Oogonekmacron.sc" horiz-adv-x="1148" 
d="M690 -9c-36 -12 -79 -14 -113 -14c-286 0 -457 175 -457 469v168c0 296 175 477 455 477s453 -182 453 -478v-167c0 -176 -71 -295 -165 -379c-47 -43 -149 -124 -149 -233c0 -76 46 -106 109 -106c21 0 57 4 83 11v-95c-12 -6 -55 -18 -107 -18c-112 0 -196 57 -196 170
c0 77 38 147 88 192zM247 616v-171c0 -237 134 -362 326 -362c193 0 327 125 327 362v171c0 236 -135 370 -327 370c-191 0 -326 -134 -326 -370zM847 1280h-545v90h545v-90z" />
    <glyph glyph-name="Ohorn.sc" horiz-adv-x="1149" 
d="M1028 446c0 -294 -175 -469 -455 -469c-281 0 -453 175 -453 469v168c0 296 175 477 455 477c155 0 233 -66 339 -66c90 0 118 49 118 120v76h111v-78c0 -142 -86 -207 -221 -200l-3 -4c59 -65 109 -188 109 -326v-167zM247 616v-171c0 -237 134 -362 326 -362
c193 0 328 125 328 362v171c0 236 -136 370 -328 370c-191 0 -326 -134 -326 -370z" />
    <glyph glyph-name="Ohorndotbelow.sc" horiz-adv-x="1149" 
d="M1028 446c0 -294 -175 -469 -455 -469c-281 0 -453 175 -453 469v168c0 296 175 477 455 477c155 0 233 -66 339 -66c90 0 118 49 118 120v76h111v-78c0 -142 -86 -207 -221 -200l-3 -4c59 -65 109 -188 109 -326v-167zM247 616v-171c0 -237 134 -362 326 -362
c193 0 328 125 328 362v171c0 236 -136 370 -328 370c-191 0 -326 -134 -326 -370zM494 -279c0 49 35 84 79 84c47 0 82 -35 82 -84c0 -46 -35 -82 -82 -82c-44 0 -79 36 -79 82z" />
    <glyph glyph-name="Ohornhookabove.sc" horiz-adv-x="1149" 
d="M1028 446c0 -294 -175 -469 -455 -469c-281 0 -453 175 -453 469v168c0 296 175 477 455 477c155 0 233 -66 339 -66c90 0 118 49 118 120v76h111v-78c0 -142 -86 -207 -221 -200l-3 -4c59 -65 109 -188 109 -326v-167zM247 616v-171c0 -237 134 -362 326 -362
c193 0 328 125 328 362v171c0 236 -136 370 -328 370c-191 0 -326 -134 -326 -370zM443 1447v80c17 11 56 22 100 22c110 0 184 -68 184 -166c0 -81 -56 -134 -129 -167l-49 66c61 27 87 56 87 100c0 48 -43 88 -106 88c-35 0 -68 -12 -87 -23z" />
    <glyph glyph-name="Ohorntilde.sc" horiz-adv-x="1149" 
d="M1028 446c0 -294 -175 -469 -455 -469c-281 0 -453 175 -453 469v168c0 296 175 477 455 477c155 0 233 -66 339 -66c90 0 118 49 118 120v76h111v-78c0 -142 -86 -207 -221 -200l-3 -4c59 -65 109 -188 109 -326v-167zM247 616v-171c0 -237 134 -362 326 -362
c193 0 328 125 328 362v171c0 236 -136 370 -328 370c-191 0 -326 -134 -326 -370zM687 1216c-135 0 -167 143 -250 143c-57 0 -79 -67 -80 -125h-92c0 118 62 212 172 212c134 0 164 -142 249 -142c57 0 82 66 85 127h92c0 -104 -58 -215 -176 -215z" />
    <glyph glyph-name="Ohorngrave.sc" horiz-adv-x="1149" 
d="M1028 446c0 -294 -175 -469 -455 -469c-281 0 -453 175 -453 469v168c0 296 175 477 455 477c155 0 233 -66 339 -66c90 0 118 49 118 120v76h111v-78c0 -142 -86 -207 -221 -200l-3 -4c59 -65 109 -188 109 -326v-167zM247 616v-171c0 -237 134 -362 326 -362
c193 0 328 125 328 362v171c0 236 -136 370 -328 370c-191 0 -326 -134 -326 -370zM633 1218h-102l-233 280h135z" />
    <glyph glyph-name="Ohornacute.sc" horiz-adv-x="1149" 
d="M1028 446c0 -294 -175 -469 -455 -469c-281 0 -453 175 -453 469v168c0 296 175 477 455 477c155 0 233 -66 339 -66c90 0 118 49 118 120v76h111v-78c0 -142 -86 -207 -221 -200l-3 -4c59 -65 109 -188 109 -326v-167zM247 616v-171c0 -237 134 -362 326 -362
c193 0 328 125 328 362v171c0 236 -136 370 -328 370c-191 0 -326 -134 -326 -370zM614 1218h-102l201 280h134z" />
    <glyph glyph-name="P.sc" horiz-adv-x="1007" 
d="M166 1068h404c224 0 364 -132 364 -329s-140 -328 -364 -328h-276v-411h-128v1068zM293 964v-449h205c193 0 305 54 305 224c0 142 -89 225 -244 225h-266z" />
    <glyph glyph-name="Pdotaccent.sc" horiz-adv-x="1007" 
d="M411 1331c0 52 41 92 90 92c52 0 93 -40 93 -92c0 -51 -41 -90 -93 -90c-49 0 -90 39 -90 90zM166 1068h404c224 0 364 -132 364 -329s-140 -328 -364 -328h-276v-411h-128v1068zM293 964v-449h205c193 0 305 54 305 224c0 142 -89 225 -244 225h-266z" />
    <glyph glyph-name="Pacute.sc" horiz-adv-x="1007" 
d="M544 1218h-102l201 280h134zM166 1068h404c224 0 364 -132 364 -329s-140 -328 -364 -328h-276v-411h-128v1068zM293 964v-449h205c193 0 305 54 305 224c0 142 -89 225 -244 225h-266z" />
    <glyph glyph-name="Q.sc" horiz-adv-x="1150" 
d="M121 454v163c0 295 174 474 453 474s455 -179 455 -474v-163c0 -167 -56 -296 -156 -377l155 -200h-141l-110 142c-58 -25 -127 -39 -203 -39c-279 0 -453 178 -453 474zM247 618v-166c0 -238 134 -366 326 -367c50 0 94 7 134 25l-144 184h140l97 -122
c64 61 102 156 102 280v166c0 237 -136 368 -328 368s-327 -131 -327 -368z" />
    <glyph glyph-name="R.sc" horiz-adv-x="1059" 
d="M571 1068c244 0 364 -142 364 -314c0 -173 -112 -263 -223 -295l243 -459h-146l-225 436h-291v-436h-127v1068h405zM293 540h256c163 0 254 76 254 209c0 140 -98 215 -249 215h-261v-424z" />
    <glyph glyph-name="Rcaron.sc" horiz-adv-x="1059" 
d="M245 1528h108l147 -218h3l146 218h109l-218 -310h-77zM571 1068c244 0 364 -142 364 -314c0 -173 -112 -263 -223 -295l243 -459h-146l-225 436h-291v-436h-127v1068h405zM293 540h256c163 0 254 76 254 209c0 140 -98 215 -249 215h-261v-424z" />
    <glyph glyph-name="Rlinebelow.sc" horiz-adv-x="1059" 
d="M774 -318h-545v90h545v-90zM571 1068c244 0 364 -142 364 -314c0 -173 -112 -263 -223 -295l243 -459h-146l-225 436h-291v-436h-127v1068h405zM293 540h256c163 0 254 76 254 209c0 140 -98 215 -249 215h-261v-424z" />
    <glyph glyph-name="Rdotbelowmacron.sc" horiz-adv-x="1059" 
d="M423 -279c0 49 35 84 79 84c47 0 82 -35 82 -84c0 -46 -35 -82 -82 -82c-44 0 -79 36 -79 82zM774 1280h-545v90h545v-90zM571 1068c244 0 364 -142 364 -314c0 -173 -112 -263 -223 -295l243 -459h-146l-225 436h-291v-436h-127v1068h405zM293 540h256
c163 0 254 76 254 209c0 140 -98 215 -249 215h-261v-424z" />
    <glyph glyph-name="Rdblgrave.sc" horiz-adv-x="1059" 
d="M571 1068c244 0 364 -142 364 -314c0 -173 -112 -263 -223 -295l243 -459h-146l-225 436h-291v-436h-127v1068h405zM293 540h256c163 0 254 76 254 209c0 140 -98 215 -249 215h-261v-424zM340 1218l-231 280h121l202 -280h-92zM585 1218l-231 280h120l202 -280h-91z" />
    <glyph glyph-name="Rinvertedbreve.sc" horiz-adv-x="1059" 
d="M571 1068c244 0 364 -142 364 -314c0 -173 -112 -263 -223 -295l243 -459h-146l-225 436h-291v-436h-127v1068h405zM293 540h256c163 0 254 76 254 209c0 140 -98 215 -249 215h-261v-424zM224 1232c-1 118 83 256 277 256s274 -140 275 -256h-95c0 92 -57 171 -180 171
s-183 -79 -183 -171h-94z" />
    <glyph glyph-name="Racute.sc" horiz-adv-x="1059" 
d="M542 1218h-102l201 280h134zM571 1068c244 0 364 -142 364 -314c0 -173 -112 -263 -223 -295l243 -459h-146l-225 436h-291v-436h-127v1068h405zM293 540h256c163 0 254 76 254 209c0 140 -98 215 -249 215h-261v-424z" />
    <glyph glyph-name="Rdotbelow.sc" horiz-adv-x="1059" 
d="M423 -279c0 49 35 84 79 84c47 0 82 -35 82 -84c0 -46 -35 -82 -82 -82c-44 0 -79 36 -79 82zM571 1068c244 0 364 -142 364 -314c0 -173 -112 -263 -223 -295l243 -459h-146l-225 436h-291v-436h-127v1068h405zM293 540h256c163 0 254 76 254 209
c0 140 -98 215 -249 215h-261v-424z" />
    <glyph glyph-name="Rdotaccent.sc" horiz-adv-x="1059" 
d="M409 1331c0 52 41 92 90 92c52 0 93 -40 93 -92c0 -51 -41 -90 -93 -90c-49 0 -90 39 -90 90zM571 1068c244 0 364 -142 364 -314c0 -173 -112 -263 -223 -295l243 -459h-146l-225 436h-291v-436h-127v1068h405zM293 540h256c163 0 254 76 254 209
c0 140 -98 215 -249 215h-261v-424z" />
    <glyph glyph-name="Rcommaaccent.sc" horiz-adv-x="1059" 
d="M462 -486h-100l85 335h129zM571 1068c244 0 364 -142 364 -314c0 -173 -112 -263 -223 -295l243 -459h-146l-225 436h-291v-436h-127v1068h405zM293 540h256c163 0 254 76 254 209c0 140 -98 215 -249 215h-261v-424z" />
    <glyph glyph-name="S.sc" horiz-adv-x="1014" 
d="M84 284h128c8 -100 98 -201 294 -201c167 0 276 78 276 198c0 103 -71 153 -214 188l-181 44c-145 34 -268 114 -268 278c0 191 177 302 389 302c211 0 384 -107 387 -293h-125c-8 98 -90 188 -264 188c-154 0 -257 -70 -257 -190c0 -90 61 -146 182 -174l177 -44
c183 -45 304 -117 304 -290c0 -201 -180 -313 -419 -313c-302 0 -405 173 -409 307z" />
    <glyph glyph-name="Scaron.sc" horiz-adv-x="1014" 
d="M249 1528h108l147 -218h3l146 218h109l-218 -310h-77zM84 284h128c8 -100 98 -201 294 -201c167 0 276 78 276 198c0 103 -71 153 -214 188l-181 44c-145 34 -268 114 -268 278c0 191 177 302 389 302c211 0 384 -107 387 -293h-125c-8 98 -90 188 -264 188
c-154 0 -257 -70 -257 -190c0 -90 61 -146 182 -174l177 -44c183 -45 304 -117 304 -290c0 -201 -180 -313 -419 -313c-302 0 -405 173 -409 307z" />
    <glyph glyph-name="Scedilla.sc" horiz-adv-x="1014" 
d="M515 -463c-57 -2 -113 7 -140 15v86c27 -8 81 -15 119 -15c62 0 132 23 132 91c0 70 -70 81 -152 81h-51v64l43 119c-282 9 -378 177 -382 306h128c8 -100 98 -201 294 -201c167 0 276 78 276 198c0 103 -71 153 -214 188l-181 44c-145 34 -268 114 -268 278
c0 191 177 302 389 302c211 0 384 -107 387 -293h-125c-8 98 -90 188 -264 188c-154 0 -257 -70 -257 -190c0 -90 61 -146 182 -174l177 -44c183 -45 304 -117 304 -290c0 -181 -146 -290 -349 -310l-38 -105c119 0 212 -48 212 -158c0 -123 -106 -176 -222 -180z" />
    <glyph glyph-name="Sdotaccent.sc" horiz-adv-x="1014" 
d="M413 1331c0 52 41 92 90 92c52 0 93 -40 93 -92c0 -51 -41 -90 -93 -90c-49 0 -90 39 -90 90zM84 284h128c8 -100 98 -201 294 -201c167 0 276 78 276 198c0 103 -71 153 -214 188l-181 44c-145 34 -268 114 -268 278c0 191 177 302 389 302c211 0 384 -107 387 -293
h-125c-8 98 -90 188 -264 188c-154 0 -257 -70 -257 -190c0 -90 61 -146 182 -174l177 -44c183 -45 304 -117 304 -290c0 -201 -180 -313 -419 -313c-302 0 -405 173 -409 307z" />
    <glyph glyph-name="Sdotbelow.sc" horiz-adv-x="1014" 
d="M416 -279c0 49 35 84 79 84c47 0 82 -35 82 -84c0 -46 -35 -82 -82 -82c-44 0 -79 36 -79 82zM84 284h128c8 -100 98 -201 294 -201c167 0 276 78 276 198c0 103 -71 153 -214 188l-181 44c-145 34 -268 114 -268 278c0 191 177 302 389 302c211 0 384 -107 387 -293
h-125c-8 98 -90 188 -264 188c-154 0 -257 -70 -257 -190c0 -90 61 -146 182 -174l177 -44c183 -45 304 -117 304 -290c0 -201 -180 -313 -419 -313c-302 0 -405 173 -409 307z" />
    <glyph glyph-name="Scommaaccent.sc" horiz-adv-x="1014" 
d="M455 -486h-100l85 335h129zM84 284h128c8 -100 98 -201 294 -201c167 0 276 78 276 198c0 103 -71 153 -214 188l-181 44c-145 34 -268 114 -268 278c0 191 177 302 389 302c211 0 384 -107 387 -293h-125c-8 98 -90 188 -264 188c-154 0 -257 -70 -257 -190
c0 -90 61 -146 182 -174l177 -44c183 -45 304 -117 304 -290c0 -201 -180 -313 -419 -313c-302 0 -405 173 -409 307z" />
    <glyph glyph-name="Sdotbelowdotaccent.sc" horiz-adv-x="1014" 
d="M416 -279c0 49 35 84 79 84c47 0 82 -35 82 -84c0 -46 -35 -82 -82 -82c-44 0 -79 36 -79 82zM413 1331c0 52 41 92 90 92c52 0 93 -40 93 -92c0 -51 -41 -90 -93 -90c-49 0 -90 39 -90 90zM84 284h128c8 -100 98 -201 294 -201c167 0 276 78 276 198
c0 103 -71 153 -214 188l-181 44c-145 34 -268 114 -268 278c0 191 177 302 389 302c211 0 384 -107 387 -293h-125c-8 98 -90 188 -264 188c-154 0 -257 -70 -257 -190c0 -90 61 -146 182 -174l177 -44c183 -45 304 -117 304 -290c0 -201 -180 -313 -419 -313
c-302 0 -405 173 -409 307z" />
    <glyph glyph-name="Scarondotaccent.sc" horiz-adv-x="1014" 
d="M249 1528h108l147 -218h3l146 218h109l-218 -310h-77zM413 1689c0 52 41 92 90 92c52 0 93 -40 93 -92c0 -51 -41 -90 -93 -90c-49 0 -90 39 -90 90zM84 284h128c8 -100 98 -201 294 -201c167 0 276 78 276 198c0 103 -71 153 -214 188l-181 44
c-145 34 -268 114 -268 278c0 191 177 302 389 302c211 0 384 -107 387 -293h-125c-8 98 -90 188 -264 188c-154 0 -257 -70 -257 -190c0 -90 61 -146 182 -174l177 -44c183 -45 304 -117 304 -290c0 -201 -180 -313 -419 -313c-302 0 -405 173 -409 307z" />
    <glyph glyph-name="Scircumflex.sc" horiz-adv-x="1014" 
d="M249 1218l218 310h77l218 -310h-109l-146 218h-3l-146 -218h-109zM84 284h128c8 -100 98 -201 294 -201c167 0 276 78 276 198c0 103 -71 153 -214 188l-181 44c-145 34 -268 114 -268 278c0 191 177 302 389 302c211 0 384 -107 387 -293h-125c-8 98 -90 188 -264 188
c-154 0 -257 -70 -257 -190c0 -90 61 -146 182 -174l177 -44c183 -45 304 -117 304 -290c0 -201 -180 -313 -419 -313c-302 0 -405 173 -409 307z" />
    <glyph glyph-name="Sacutedotaccent.sc" horiz-adv-x="1014" 
d="M597 1218h-102l201 280h134zM240 1402c0 52 41 92 90 92c52 0 93 -40 93 -92c0 -51 -41 -90 -93 -90c-49 0 -90 39 -90 90zM84 284h128c8 -100 98 -201 294 -201c167 0 276 78 276 198c0 103 -71 153 -214 188l-181 44c-145 34 -268 114 -268 278c0 191 177 302 389 302
c211 0 384 -107 387 -293h-125c-8 98 -90 188 -264 188c-154 0 -257 -70 -257 -190c0 -90 61 -146 182 -174l177 -44c183 -45 304 -117 304 -290c0 -201 -180 -313 -419 -313c-302 0 -405 173 -409 307z" />
    <glyph glyph-name="Sacute.sc" horiz-adv-x="1014" 
d="M546 1218h-102l201 280h134zM84 284h128c8 -100 98 -201 294 -201c167 0 276 78 276 198c0 103 -71 153 -214 188l-181 44c-145 34 -268 114 -268 278c0 191 177 302 389 302c211 0 384 -107 387 -293h-125c-8 98 -90 188 -264 188c-154 0 -257 -70 -257 -190
c0 -90 61 -146 182 -174l177 -44c183 -45 304 -117 304 -290c0 -201 -180 -313 -419 -313c-302 0 -405 173 -409 307z" />
    <glyph glyph-name="T.sc" horiz-adv-x="918" 
d="M523 0h-127v964h-359v104h844v-104h-358v-964z" />
    <glyph glyph-name="Tcircumflexbelow.sc" horiz-adv-x="918" 
d="M523 0h-127v964h-359v104h844v-104h-358v-964zM204 -409l214 288h82l214 -288h-108l-146 208h-2l-146 -208h-108z" />
    <glyph glyph-name="Tdotbelow.sc" horiz-adv-x="918" 
d="M523 0h-127v964h-359v104h844v-104h-358v-964zM380 -279c0 49 35 84 79 84c47 0 82 -35 82 -84c0 -46 -35 -82 -82 -82c-44 0 -79 36 -79 82z" />
    <glyph glyph-name="Tcommaaccent.sc" horiz-adv-x="918" 
d="M523 0h-127v964h-359v104h844v-104h-358v-964zM420 -486h-100l85 335h129z" />
    <glyph glyph-name="Tdotaccent.sc" horiz-adv-x="918" 
d="M523 0h-127v964h-359v104h844v-104h-358v-964zM367 1331c0 52 41 92 90 92c52 0 93 -40 93 -92c0 -51 -41 -90 -93 -90c-49 0 -90 39 -90 90z" />
    <glyph glyph-name="Tcedilla.sc" horiz-adv-x="918" 
d="M459 -478c-57 -2 -114 8 -140 16v85c27 -8 81 -14 119 -14c62 0 132 23 132 90c0 71 -70 82 -152 82h-51v64l61 155h-33v964h-358v104h844v-104h-358v-964l-54 -140c119 0 211 -47 211 -157c0 -123 -106 -177 -221 -181z" />
    <glyph glyph-name="Tlinebelow.sc" horiz-adv-x="918" 
d="M523 0h-127v964h-359v104h844v-104h-358v-964zM734 -318h-545v90h545v-90z" />
    <glyph glyph-name="Tcaron.sc" horiz-adv-x="918" 
d="M523 0h-127v964h-359v104h844v-104h-358v-964zM205 1528h108l147 -218h3l146 218h109l-218 -310h-77z" />
    <glyph glyph-name="Tbar.sc" horiz-adv-x="918" 
d="M755 512h-232v-512h-127v512h-232v90h232v362h-358v104h844v-104h-359v-362h232v-90z" />
    <glyph glyph-name="U.sc" horiz-adv-x="1158" 
d="M278 1068v-695c0 -177 114 -289 301 -289c188 0 301 113 301 289v695h127v-698c0 -237 -168 -393 -428 -393s-428 159 -428 395v696h127z" />
    <glyph glyph-name="Ugrave.sc" horiz-adv-x="1158" 
d="M639 1218h-102l-233 280h135zM278 1068v-695c0 -177 114 -289 301 -289c188 0 301 113 301 289v695h127v-698c0 -237 -168 -393 -428 -393s-428 159 -428 395v696h127z" />
    <glyph glyph-name="Udblgrave.sc" horiz-adv-x="1158" 
d="M418 1218l-231 280h121l202 -280h-92zM663 1218l-231 280h120l202 -280h-91zM278 1068v-695c0 -177 114 -289 301 -289c188 0 301 113 301 289v695h127v-698c0 -237 -168 -393 -428 -393s-428 159 -428 395v696h127z" />
    <glyph glyph-name="Uacute.sc" horiz-adv-x="1158" 
d="M620 1218h-102l201 280h134zM278 1068v-695c0 -177 114 -289 301 -289c188 0 301 113 301 289v695h127v-698c0 -237 -168 -393 -428 -393s-428 159 -428 395v696h127z" />
    <glyph glyph-name="Uhungarumlaut.sc" horiz-adv-x="1158" 
d="M481 1219h-91l204 280h120zM726 1219h-92l204 280h120zM278 1068v-695c0 -177 114 -289 301 -289c188 0 301 113 301 289v695h127v-698c0 -237 -168 -393 -428 -393s-428 159 -428 395v696h127z" />
    <glyph glyph-name="Ucircumflex.sc" horiz-adv-x="1158" 
d="M323 1218l218 310h77l218 -310h-109l-146 218h-3l-146 -218h-109zM278 1068v-695c0 -177 114 -289 301 -289c188 0 301 113 301 289v695h127v-698c0 -237 -168 -393 -428 -393s-428 159 -428 395v696h127z" />
    <glyph glyph-name="Ucaron.sc" horiz-adv-x="1158" 
d="M324 1528h108l147 -218h3l146 218h109l-218 -310h-77zM278 1068v-695c0 -177 114 -289 301 -289c188 0 301 113 301 289v695h127v-698c0 -237 -168 -393 -428 -393s-428 159 -428 395v696h127z" />
    <glyph glyph-name="Ucircumflexbelow.sc" horiz-adv-x="1158" 
d="M278 1068v-695c0 -177 114 -289 301 -289c188 0 301 113 301 289v695h127v-698c0 -237 -168 -393 -428 -393s-428 159 -428 395v696h127zM323 -409l214 288h82l214 -288h-108l-146 208h-2l-146 -208h-108z" />
    <glyph glyph-name="Udieresis.sc" horiz-adv-x="1158" 
d="M417 1240c-44 0 -78 35 -78 80c0 47 34 82 78 82c45 0 79 -35 79 -82c0 -45 -34 -80 -79 -80zM739 1240c-43 0 -78 35 -78 80c0 47 35 82 78 82c46 0 80 -35 80 -82c0 -45 -34 -80 -80 -80zM278 1068v-695c0 -177 114 -289 301 -289c188 0 301 113 301 289v695h127v-698
c0 -237 -168 -393 -428 -393s-428 159 -428 395v696h127z" />
    <glyph glyph-name="Udieresisgrave.sc" horiz-adv-x="1158" 
d="M639 1515h-102l-233 280h135zM417 1240c-44 0 -78 35 -78 80c0 47 34 82 78 82c45 0 79 -35 79 -82c0 -45 -34 -80 -79 -80zM739 1240c-43 0 -78 35 -78 80c0 47 35 82 78 82c46 0 80 -35 80 -82c0 -45 -34 -80 -80 -80zM278 1068v-695c0 -177 114 -289 301 -289
c188 0 301 113 301 289v695h127v-698c0 -237 -168 -393 -428 -393s-428 159 -428 395v696h127z" />
    <glyph glyph-name="Udieresisacute.sc" horiz-adv-x="1158" 
d="M620 1515h-102l201 280h134zM417 1240c-44 0 -78 35 -78 80c0 47 34 82 78 82c45 0 79 -35 79 -82c0 -45 -34 -80 -79 -80zM739 1240c-43 0 -78 35 -78 80c0 47 35 82 78 82c46 0 80 -35 80 -82c0 -45 -34 -80 -80 -80zM278 1068v-695c0 -177 114 -289 301 -289
c188 0 301 113 301 289v695h127v-698c0 -237 -168 -393 -428 -393s-428 159 -428 395v696h127z" />
    <glyph glyph-name="Udieresismacron.sc" horiz-adv-x="1158" 
d="M417 1240c-44 0 -78 35 -78 80c0 47 34 82 78 82c45 0 79 -35 79 -82c0 -45 -34 -80 -79 -80zM739 1240c-43 0 -78 35 -78 80c0 47 35 82 78 82c46 0 80 -35 80 -82c0 -45 -34 -80 -80 -80zM852 1571h-545v90h545v-90zM278 1068v-695c0 -177 114 -289 301 -289
c188 0 301 113 301 289v695h127v-698c0 -237 -168 -393 -428 -393s-428 159 -428 395v696h127z" />
    <glyph glyph-name="Udieresiscaron.sc" horiz-adv-x="1158" 
d="M323 1810h108l147 -218h3l146 218h109l-218 -310h-77zM417 1240c-44 0 -78 35 -78 80c0 47 34 82 78 82c45 0 79 -35 79 -82c0 -45 -34 -80 -79 -80zM739 1240c-43 0 -78 35 -78 80c0 47 35 82 78 82c46 0 80 -35 80 -82c0 -45 -34 -80 -80 -80zM278 1068v-695
c0 -177 114 -289 301 -289c188 0 301 113 301 289v695h127v-698c0 -237 -168 -393 -428 -393s-428 159 -428 395v696h127z" />
    <glyph glyph-name="Udieresisbelow.sc" horiz-adv-x="1158" 
d="M278 1068v-695c0 -177 114 -289 301 -289c188 0 301 113 301 289v695h127v-698c0 -237 -168 -393 -428 -393s-428 159 -428 395v696h127zM419 -371c-44 0 -78 35 -78 80c0 47 34 82 78 82c45 0 79 -35 79 -82c0 -45 -34 -80 -79 -80zM741 -371c-43 0 -78 35 -78 80
c0 47 35 82 78 82c46 0 80 -35 80 -82c0 -45 -34 -80 -80 -80z" />
    <glyph glyph-name="Utildebelow.sc" horiz-adv-x="1158" 
d="M691 -375c-130 0 -161 137 -240 137c-51 0 -74 -62 -75 -120h-87c0 113 57 203 162 203c130 0 160 -137 240 -137c52 0 77 61 80 122h87c0 -99 -53 -205 -167 -205zM278 1068v-695c0 -177 114 -289 301 -289c188 0 301 113 301 289v695h127v-698
c0 -237 -168 -393 -428 -393s-428 159 -428 395v696h127z" />
    <glyph glyph-name="Uhookabove.sc" horiz-adv-x="1158" 
d="M449 1447v80c17 11 56 22 100 22c110 0 184 -68 184 -166c0 -81 -56 -134 -129 -167l-49 66c61 27 87 56 87 100c0 48 -43 88 -106 88c-35 0 -68 -12 -87 -23zM278 1068v-695c0 -177 114 -289 301 -289c188 0 301 113 301 289v695h127v-698c0 -237 -168 -393 -428 -393
s-428 159 -428 395v696h127z" />
    <glyph glyph-name="Ubreve.sc" horiz-adv-x="1158" 
d="M302 1474h95c0 -92 60 -171 182 -171c123 0 183 79 183 171h95c-1 -117 -84 -257 -278 -257s-278 139 -277 257zM278 1068v-695c0 -177 114 -289 301 -289c188 0 301 113 301 289v695h127v-698c0 -237 -168 -393 -428 -393s-428 159 -428 395v696h127z" />
    <glyph glyph-name="Uinvertedbreve.sc" horiz-adv-x="1158" 
d="M278 1068v-695c0 -177 114 -289 301 -289c188 0 301 113 301 289v695h127v-698c0 -237 -168 -393 -428 -393s-428 159 -428 395v696h127zM302 1232c-1 118 83 256 277 256s274 -140 275 -256h-95c0 92 -57 171 -180 171s-183 -79 -183 -171h-94z" />
    <glyph glyph-name="Utildeacute.sc" horiz-adv-x="1158" 
d="M617 1515h-102l201 280h134zM693 1216c-135 0 -167 143 -250 143c-57 0 -79 -67 -80 -125h-92c0 118 62 212 172 212c134 0 164 -142 249 -142c57 0 82 66 85 127h92c0 -104 -58 -215 -176 -215zM278 1068v-695c0 -177 114 -289 301 -289c188 0 301 113 301 289v695h127
v-698c0 -237 -168 -393 -428 -393s-428 159 -428 395v696h127z" />
    <glyph glyph-name="Udotbelow.sc" horiz-adv-x="1158" 
d="M499 -279c0 49 35 84 79 84c47 0 82 -35 82 -84c0 -46 -35 -82 -82 -82c-44 0 -79 36 -79 82zM278 1068v-695c0 -177 114 -289 301 -289c188 0 301 113 301 289v695h127v-698c0 -237 -168 -393 -428 -393s-428 159 -428 395v696h127z" />
    <glyph glyph-name="Utilde.sc" horiz-adv-x="1158" 
d="M693 1216c-135 0 -167 143 -250 143c-57 0 -79 -67 -80 -125h-92c0 118 62 212 172 212c134 0 164 -142 249 -142c57 0 82 66 85 127h92c0 -104 -58 -215 -176 -215zM278 1068v-695c0 -177 114 -289 301 -289c188 0 301 113 301 289v695h127v-698
c0 -237 -168 -393 -428 -393s-428 159 -428 395v696h127z" />
    <glyph glyph-name="Umacron.sc" horiz-adv-x="1158" 
d="M852 1280h-545v90h545v-90zM278 1068v-695c0 -177 114 -289 301 -289c188 0 301 113 301 289v695h127v-698c0 -237 -168 -393 -428 -393s-428 159 -428 395v696h127z" />
    <glyph glyph-name="Umacrondieresis.sc" horiz-adv-x="1158" 
d="M852 1280h-545v90h545v-90zM417 1532c-44 0 -78 35 -78 80c0 47 34 82 78 82c45 0 79 -35 79 -82c0 -45 -34 -80 -79 -80zM739 1532c-43 0 -78 35 -78 80c0 47 35 82 78 82c46 0 80 -35 80 -82c0 -45 -34 -80 -80 -80zM278 1068v-695c0 -177 114 -289 301 -289
c188 0 301 113 301 289v695h127v-698c0 -237 -168 -393 -428 -393s-428 159 -428 395v696h127z" />
    <glyph glyph-name="Uring.sc" horiz-adv-x="1158" 
d="M278 1068v-695c0 -177 114 -289 301 -289c188 0 301 113 301 289v695h127v-698c0 -237 -168 -393 -428 -393s-428 159 -428 395v696h127zM579 1214c-100 0 -180 78 -180 178s80 177 180 177s181 -77 181 -177s-81 -178 -181 -178zM471 1391c0 -60 48 -110 108 -110
c62 0 109 50 109 110c0 62 -47 110 -109 110c-60 0 -108 -48 -108 -110z" />
    <glyph glyph-name="Uogonek.sc" horiz-adv-x="1158" 
d="M799 -374c-110 0 -196 55 -196 170c0 79 40 139 87 192c-34 -6 -71 -11 -112 -11c-259 0 -427 159 -427 395v696h127v-695c0 -177 114 -289 300 -289c189 0 302 113 302 289v695h127v-698c0 -144 -57 -235 -142 -305c-64 -57 -150 -133 -150 -233c0 -74 45 -104 108 -104
c21 0 57 4 83 11v-95c-12 -6 -55 -18 -107 -18z" />
    <glyph glyph-name="Uhorn.sc" horiz-adv-x="1203" 
d="M579 -23c-260 0 -428 159 -428 395v696h127v-695c0 -176 114 -289 301 -289c188 0 301 113 301 289v695h128c86 0 118 47 118 119v81h109v-83c0 -121 -68 -205 -198 -205h-30v-610c0 -237 -168 -393 -428 -393z" />
    <glyph glyph-name="Uhorngrave.sc" horiz-adv-x="1203" 
d="M579 -23c-260 0 -428 159 -428 395v696h127v-695c0 -176 114 -289 301 -289c188 0 301 113 301 289v695h128c86 0 118 47 118 119v81h109v-83c0 -121 -68 -205 -198 -205h-30v-610c0 -237 -168 -393 -428 -393zM638 1218h-102l-233 280h135z" />
    <glyph glyph-name="Uhornacute.sc" horiz-adv-x="1203" 
d="M579 -23c-260 0 -428 159 -428 395v696h127v-695c0 -176 114 -289 301 -289c188 0 301 113 301 289v695h128c86 0 118 47 118 119v81h109v-83c0 -121 -68 -205 -198 -205h-30v-610c0 -237 -168 -393 -428 -393zM619 1218h-102l201 280h134z" />
    <glyph glyph-name="Uhorndotbelow.sc" horiz-adv-x="1203" 
d="M500 -279c0 49 35 84 79 84c47 0 82 -35 82 -84c0 -46 -35 -82 -82 -82c-44 0 -79 36 -79 82zM579 -23c-260 0 -428 159 -428 395v696h127v-695c0 -176 114 -289 301 -289c188 0 301 113 301 289v695h128c86 0 118 47 118 119v81h109v-83c0 -121 -68 -205 -198 -205h-30
v-610c0 -237 -168 -393 -428 -393z" />
    <glyph glyph-name="Uhornhookabove.sc" horiz-adv-x="1203" 
d="M579 -23c-260 0 -428 159 -428 395v696h127v-695c0 -176 114 -289 301 -289c188 0 301 113 301 289v695h128c86 0 118 47 118 119v81h109v-83c0 -121 -68 -205 -198 -205h-30v-610c0 -237 -168 -393 -428 -393zM448 1447v80c17 11 56 22 100 22c110 0 184 -68 184 -166
c0 -81 -56 -134 -129 -167l-49 66c61 27 87 56 87 100c0 48 -43 88 -106 88c-35 0 -68 -12 -87 -23z" />
    <glyph glyph-name="Uhorntilde.sc" horiz-adv-x="1203" 
d="M579 -23c-260 0 -428 159 -428 395v696h127v-695c0 -176 114 -289 301 -289c188 0 301 113 301 289v695h128c86 0 118 47 118 119v81h109v-83c0 -121 -68 -205 -198 -205h-30v-610c0 -237 -168 -393 -428 -393zM692 1216c-135 0 -167 143 -250 143
c-57 0 -79 -67 -80 -125h-92c0 118 62 212 172 212c134 0 164 -142 249 -142c57 0 82 66 85 127h92c0 -104 -58 -215 -176 -215z" />
    <glyph glyph-name="V.sc" horiz-adv-x="1044" 
d="M589 0h-137l-410 1068h145l331 -929h8l331 929h145z" />
    <glyph glyph-name="Vtilde.sc" horiz-adv-x="1044" 
d="M589 0h-137l-410 1068h145l331 -929h8l331 929h145zM635 1216c-135 0 -167 143 -250 143c-57 0 -79 -67 -80 -125h-92c0 118 62 212 172 212c134 0 164 -142 249 -142c57 0 82 66 85 127h92c0 -104 -58 -215 -176 -215z" />
    <glyph glyph-name="Vdotbelow.sc" horiz-adv-x="1044" 
d="M442 -279c0 49 35 84 79 84c47 0 82 -35 82 -84c0 -46 -35 -82 -82 -82c-44 0 -79 36 -79 82zM589 0h-137l-410 1068h145l331 -929h8l331 929h145z" />
    <glyph glyph-name="W.sc" horiz-adv-x="1456" 
d="M468 0h-119l-310 1068h145l227 -889h6l247 889h128l246 -889h8l225 889h145l-310 -1068h-119l-256 877h-7z" />
    <glyph glyph-name="Wgrave.sc" horiz-adv-x="1456" 
d="M468 0h-119l-310 1068h145l227 -889h6l247 889h128l246 -889h8l225 889h145l-310 -1068h-119l-256 877h-7zM787 1218h-102l-233 280h135z" />
    <glyph glyph-name="Wacute.sc" horiz-adv-x="1456" 
d="M468 0h-119l-310 1068h145l227 -889h6l247 889h128l246 -889h8l225 889h145l-310 -1068h-119l-256 877h-7zM768 1218h-102l201 280h134z" />
    <glyph glyph-name="Wdotaccent.sc" horiz-adv-x="1456" 
d="M468 0h-119l-310 1068h145l227 -889h6l247 889h128l246 -889h8l225 889h145l-310 -1068h-119l-256 877h-7zM635 1331c0 52 41 92 90 92c52 0 93 -40 93 -92c0 -51 -41 -90 -93 -90c-49 0 -90 39 -90 90z" />
    <glyph glyph-name="Wdotbelow.sc" horiz-adv-x="1456" 
d="M468 0h-119l-310 1068h145l227 -889h6l247 889h128l246 -889h8l225 889h145l-310 -1068h-119l-256 877h-7zM648 -279c0 49 35 84 79 84c47 0 82 -35 82 -84c0 -46 -35 -82 -82 -82c-44 0 -79 36 -79 82z" />
    <glyph glyph-name="Wdieresis.sc" horiz-adv-x="1456" 
d="M468 0h-119l-310 1068h145l227 -889h6l247 889h128l246 -889h8l225 889h145l-310 -1068h-119l-256 877h-7zM566 1240c-44 0 -78 35 -78 80c0 47 34 82 78 82c45 0 79 -35 79 -82c0 -45 -34 -80 -79 -80zM888 1240c-43 0 -78 35 -78 80c0 47 35 82 78 82
c46 0 80 -35 80 -82c0 -45 -34 -80 -80 -80z" />
    <glyph glyph-name="Wcircumflex.sc" horiz-adv-x="1456" 
d="M468 0h-119l-310 1068h145l227 -889h6l247 889h128l246 -889h8l225 889h145l-310 -1068h-119l-256 877h-7zM471 1218l218 310h77l218 -310h-109l-146 218h-3l-146 -218h-109z" />
    <glyph glyph-name="X.sc" horiz-adv-x="993" 
d="M956 1068l-383 -538l377 -530h-152l-303 438h-8l-305 -438h-144l378 537l-374 531h152l306 -440h6l304 440h146z" />
    <glyph glyph-name="Xdotaccent.sc" horiz-adv-x="993" 
d="M404 1331c0 52 41 92 90 92c52 0 93 -40 93 -92c0 -51 -41 -90 -93 -90c-49 0 -90 39 -90 90zM956 1068l-383 -538l377 -530h-152l-303 438h-8l-305 -438h-144l378 537l-374 531h152l306 -440h6l304 440h146z" />
    <glyph glyph-name="Xdieresis.sc" horiz-adv-x="993" 
d="M956 1068l-383 -538l377 -530h-152l-303 438h-8l-305 -438h-144l378 537l-374 531h152l306 -440h6l304 440h146zM335 1240c-44 0 -78 35 -78 80c0 47 34 82 78 82c45 0 79 -35 79 -82c0 -45 -34 -80 -79 -80zM657 1240c-43 0 -78 35 -78 80c0 47 35 82 78 82
c46 0 80 -35 80 -82c0 -45 -34 -80 -80 -80z" />
    <glyph glyph-name="Y.sc" horiz-adv-x="955" 
d="M540 0h-126v461l-387 607h145l302 -489h7l303 489h144l-388 -606v-462z" />
    <glyph glyph-name="Ygrave.sc" horiz-adv-x="955" 
d="M537 1218h-102l-233 280h135zM540 0h-126v461l-387 607h145l302 -489h7l303 489h144l-388 -606v-462z" />
    <glyph glyph-name="Yacute.sc" horiz-adv-x="955" 
d="M518 1218h-102l201 280h134zM540 0h-126v461l-387 607h145l302 -489h7l303 489h144l-388 -606v-462z" />
    <glyph glyph-name="Ydotaccent.sc" horiz-adv-x="955" 
d="M385 1331c0 52 41 92 90 92c52 0 93 -40 93 -92c0 -51 -41 -90 -93 -90c-49 0 -90 39 -90 90zM540 0h-126v461l-387 607h145l302 -489h7l303 489h144l-388 -606v-462z" />
    <glyph glyph-name="Ydotbelow.sc" horiz-adv-x="955" 
d="M399 -279c0 49 35 84 79 84c47 0 82 -35 82 -84c0 -46 -35 -82 -82 -82c-44 0 -79 36 -79 82zM540 0h-126v461l-387 607h145l302 -489h7l303 489h144l-388 -606v-462z" />
    <glyph glyph-name="Ydieresis.sc" horiz-adv-x="955" 
d="M540 0h-126v461l-387 607h145l302 -489h7l303 489h144l-388 -606v-462zM315 1240c-44 0 -78 35 -78 80c0 47 34 82 78 82c45 0 79 -35 79 -82c0 -45 -34 -80 -79 -80zM637 1240c-43 0 -78 35 -78 80c0 47 35 82 78 82c46 0 80 -35 80 -82c0 -45 -34 -80 -80 -80z" />
    <glyph glyph-name="Ytilde.sc" horiz-adv-x="955" 
d="M540 0h-126v461l-387 607h145l302 -489h7l303 489h144l-388 -606v-462zM591 1216c-135 0 -167 143 -250 143c-57 0 -79 -67 -80 -125h-92c0 118 62 212 172 212c134 0 164 -142 249 -142c57 0 82 66 85 127h92c0 -104 -58 -215 -176 -215z" />
    <glyph glyph-name="Ycircumflex.sc" horiz-adv-x="955" 
d="M221 1218l218 310h77l218 -310h-109l-146 218h-3l-146 -218h-109zM540 0h-126v461l-387 607h145l302 -489h7l303 489h144l-388 -606v-462z" />
    <glyph glyph-name="Ymacron.sc" horiz-adv-x="955" 
d="M540 0h-126v461l-387 607h145l302 -489h7l303 489h144l-388 -606v-462zM750 1280h-545v90h545v-90z" />
    <glyph glyph-name="Yhookabove.sc" horiz-adv-x="955" 
d="M540 0h-126v461l-387 607h145l302 -489h7l303 489h144l-388 -606v-462zM347 1447v80c17 11 56 22 100 22c110 0 184 -68 184 -166c0 -81 -56 -134 -129 -167l-49 66c61 27 87 56 87 100c0 48 -43 88 -106 88c-35 0 -68 -12 -87 -23z" />
    <glyph glyph-name="Z.sc" horiz-adv-x="1011" 
d="M96 0v85l642 871v8h-621v104h779v-83l-641 -874v-6h651v-105h-810z" />
    <glyph glyph-name="Zacute.sc" horiz-adv-x="1011" 
d="M546 1218h-102l201 280h134zM96 0v85l642 871v8h-621v104h779v-83l-641 -874v-6h651v-105h-810z" />
    <glyph glyph-name="Zcaron.sc" horiz-adv-x="1011" 
d="M249 1528h108l147 -218h3l146 218h109l-218 -310h-77zM96 0v85l642 871v8h-621v104h779v-83l-641 -874v-6h651v-105h-810z" />
    <glyph glyph-name="Zcircumflex.sc" horiz-adv-x="1011" 
d="M249 1218l218 310h77l218 -310h-109l-146 218h-3l-146 -218h-109zM96 0v85l642 871v8h-621v104h779v-83l-641 -874v-6h651v-105h-810z" />
    <glyph glyph-name="Zlinebelow.sc" horiz-adv-x="1011" 
d="M778 -318h-545v90h545v-90zM96 0v85l642 871v8h-621v104h779v-83l-641 -874v-6h651v-105h-810z" />
    <glyph glyph-name="Zdotbelow.sc" horiz-adv-x="1011" 
d="M427 -279c0 49 35 84 79 84c47 0 82 -35 82 -84c0 -46 -35 -82 -82 -82c-44 0 -79 36 -79 82zM96 0v85l642 871v8h-621v104h779v-83l-641 -874v-6h651v-105h-810z" />
    <glyph glyph-name="Zdotaccent.sc" horiz-adv-x="1011" 
d="M413 1331c0 52 41 92 90 92c52 0 93 -40 93 -92c0 -51 -41 -90 -93 -90c-49 0 -90 39 -90 90zM96 0v85l642 871v8h-621v104h779v-83l-641 -874v-6h651v-105h-810z" />
    <glyph glyph-name="AE.sc" horiz-adv-x="1593" 
d="M743 964l-307 -521h367v521h-60zM803 347h-420l-205 -347h-143l637 1068h806v-104h-548v-366h518v-104h-518v-390h548v-104h-675v347z" />
    <glyph glyph-name="AEmacron.sc" horiz-adv-x="1593" 
d="M743 964l-307 -521h367v521h-60zM803 347h-420l-205 -347h-143l637 1068h806v-104h-548v-366h518v-104h-518v-390h548v-104h-675v347zM1415 1280h-545v90h545v-90z" />
    <glyph glyph-name="AEacute.sc" horiz-adv-x="1593" 
d="M1183 1218h-102l201 280h134zM743 964l-307 -521h367v521h-60zM803 347h-420l-205 -347h-143l637 1068h806v-104h-548v-366h518v-104h-518v-390h548v-104h-675v347z" />
    <glyph glyph-name="OE.sc" horiz-adv-x="1692" 
d="M249 616v-171c0 -237 132 -362 324 -362c190 0 326 118 326 345v211c0 223 -134 347 -326 347s-324 -134 -324 -370zM565 -23c-276 0 -445 176 -445 470v167c0 298 174 477 447 477c143 0 267 -54 327 -152h9v129h669v-104h-547v-366h517v-104h-517v-390h547v-104h-669
v134h-9c-64 -100 -184 -157 -329 -157z" />
    <glyph glyph-name="Eth.sc" horiz-adv-x="1193" 
d="M578 0h-351v495h-136v104h136v469h351c367 0 507 -219 507 -534c0 -310 -134 -534 -507 -534zM354 104h216c265 0 383 155 383 430c0 261 -108 430 -383 430h-216v-365h268v-104h-268v-391z" />
    <glyph glyph-name="Thorn.sc" horiz-adv-x="1006" 
d="M166 1068h127v-204h262c218 0 364 -104 364 -301c0 -198 -146 -301 -365 -301h-260v-262h-128v1068zM293 760v-394h226c156 0 269 33 269 197c0 138 -91 197 -245 197h-250z" />
    <glyph glyph-name="zero.sc" horiz-adv-x="1034" 
d="M243 557v-48c0 -270 112 -428 274 -428c163 0 275 158 275 428v48c0 271 -112 431 -275 431c-162 0 -274 -159 -274 -431zM116 510v47c0 326 153 534 402 534s401 -207 401 -534v-47c0 -324 -151 -533 -402 -533c-249 0 -401 207 -401 533z" />
    <glyph glyph-name="one.sc" horiz-adv-x="779" 
d="M529 0h-126v939h-5c-53 -31 -201 -130 -272 -184v130c58 46 212 146 277 183h126v-1068z" />
    <glyph glyph-name="two.sc" horiz-adv-x="953" 
d="M246 780h-125v5c0 155 121 306 357 306c218 0 352 -127 352 -289c0 -134 -90 -228 -188 -332l-336 -359v-8h548v-103h-728v78l438 466c66 69 136 147 136 252c0 110 -88 192 -225 192c-147 0 -229 -97 -229 -203v-5z" />
    <glyph glyph-name="three.sc" horiz-adv-x="969" 
d="M346 500v102h113c140 0 234 86 233 198c-1 110 -90 190 -228 190c-139 0 -221 -82 -226 -163h-122c3 128 119 263 349 264c217 1 352 -118 355 -273c4 -154 -127 -244 -220 -257v-7c109 -10 258 -89 261 -262c2 -186 -164 -316 -397 -316c-227 0 -366 122 -372 270h120
c7 -93 110 -168 256 -168c162 0 265 91 264 214c-1 126 -109 208 -264 208h-122z" />
    <glyph glyph-name="four.sc" horiz-adv-x="991" 
d="M573 1068h189v-732h155v-103h-155v-233h-121v233h-557v104c105 177 367 557 489 731zM212 336h429v630h-7c-100 -135 -334 -479 -422 -623v-7z" />
    <glyph glyph-name="five.sc" horiz-adv-x="989" 
d="M124 245h123c18 -103 124 -166 254 -166c139 0 264 99 264 261c0 148 -117 245 -263 245c-130 0 -208 -72 -239 -125h-111l49 609h634v-103h-525l-33 -382h7c23 35 105 103 243 103c205 0 366 -132 366 -344c0 -215 -161 -366 -399 -366c-218 0 -361 123 -370 268z" />
    <glyph glyph-name="six.sc" horiz-adv-x="1014" 
d="M883 853h-127c-15 56 -84 132 -221 132c-195 0 -296 -193 -296 -475v-9h7c31 92 135 182 304 182c186 0 359 -125 359 -342c0 -227 -167 -364 -388 -364c-139 0 -265 60 -335 188c-43 75 -70 180 -70 323c0 374 149 599 423 599c212 0 334 -126 344 -234zM260 336
c0 -155 117 -257 262 -257s261 91 261 256c0 161 -122 249 -260 249c-152 0 -263 -105 -263 -248z" />
    <glyph glyph-name="seven.sc" horiz-adv-x="905" 
d="M96 1068h719v-108l-477 -960h-135l482 957v7h-589v104z" />
    <glyph glyph-name="eight.sc" horiz-adv-x="1013" 
d="M508 75c157 0 274 90 274 220c0 127 -115 217 -274 217c-160 0 -277 -90 -277 -217c0 -130 118 -220 277 -220zM508 607c133 0 231 79 231 193c0 115 -97 191 -231 191c-135 0 -234 -76 -234 -191c0 -114 100 -193 234 -193zM504 -23c-233 0 -398 127 -398 312
c0 171 142 253 240 272v7c-83 22 -196 97 -196 241c0 164 148 282 358 282c208 0 356 -118 356 -282c0 -146 -116 -220 -195 -241v-7c97 -19 239 -102 239 -271c0 -185 -169 -313 -404 -313z" />
    <glyph glyph-name="nine.sc" horiz-adv-x="1012" 
d="M135 206h127c15 -62 91 -124 212 -124c212 0 305 188 300 476h-8c-37 -92 -130 -178 -296 -178c-195 0 -364 130 -364 355c0 221 168 358 390 358c204 0 400 -114 400 -521c0 -394 -138 -591 -426 -591c-199 0 -321 104 -335 225zM749 724c0 165 -108 266 -261 266
c-142 0 -256 -99 -256 -256c0 -168 124 -252 260 -252c133 0 257 85 257 242z" />
    <glyph glyph-name="ampersand.sc" horiz-adv-x="1131" 
d="M951 0l-114 114c-109 -97 -251 -135 -370 -135c-208 0 -377 110 -377 298c0 125 78 217 226 291c10 5 39 19 51 24c-86 84 -151 156 -151 253c0 134 123 233 286 233c162 0 284 -99 284 -235c0 -126 -104 -203 -250 -274l296 -299c39 65 61 169 62 292c1 5 1 36 1 41h114
v-44c-1 -149 -33 -278 -97 -366l196 -193h-157zM387 499c-105 -52 -174 -117 -174 -215c0 -134 122 -208 263 -208c96 0 214 35 288 111l-329 335c-10 -4 -40 -18 -48 -23zM467 634c130 61 201 116 201 204s-69 149 -166 149c-96 0 -166 -62 -166 -148
c0 -64 37 -116 131 -205z" />
    <glyph glyph-name="exclam.sc" horiz-adv-x="473" 
d="M166 1068h140l-15 -713h-110zM143 79c0 54 42 93 92 93c54 0 94 -39 94 -93c0 -50 -40 -90 -94 -90c-50 0 -92 40 -92 90z" />
    <glyph glyph-name="exclamdown.sc" horiz-adv-x="473" 
d="M306 0h-139l14 713h110zM143 989c0 53 43 92 92 92c54 0 94 -39 94 -92c0 -51 -40 -91 -94 -91c-49 0 -92 40 -92 91z" />
    <glyph glyph-name="question.sc" horiz-adv-x="822" 
d="M75 801c0 204 164 292 341 292c174 0 331 -88 331 -263c0 -126 -80 -193 -166 -256c-103 -74 -132 -110 -132 -193v-55h-122v69c-1 106 63 170 158 239c84 62 133 105 133 190c0 117 -99 169 -208 169c-151 0 -214 -95 -216 -192h-119zM302 79c0 54 42 93 92 93
c54 0 94 -39 94 -93c0 -50 -40 -90 -94 -90c-50 0 -92 40 -92 90z" />
    <glyph glyph-name="questiondown.sc" horiz-adv-x="822" 
d="M747 269c-1 -204 -164 -292 -342 -292c-174 0 -330 87 -330 263c0 126 79 192 165 255c103 75 132 111 132 194v55h122v-70c2 -105 -62 -170 -158 -239c-84 -61 -133 -105 -133 -189c0 -117 99 -169 209 -169c150 0 213 95 216 192h119zM336 989c0 54 42 93 91 93
c54 0 94 -39 94 -93c0 -50 -40 -90 -94 -90c-49 0 -91 40 -91 90z" />
    <glyph glyph-name="parenleft.sc" horiz-adv-x="554" 
d="M362 1145h105c-65 -72 -199 -282 -199 -623c0 -340 128 -540 197 -650h-110c-84 98 -212 306 -212 649c0 344 124 512 219 624z" />
    <glyph glyph-name="parenright.sc" horiz-adv-x="554" 
d="M86 1145h104c95 -112 221 -280 221 -624c0 -343 -131 -551 -213 -649h-111c69 110 197 310 197 650c0 341 -133 551 -198 623z" />
    <glyph glyph-name="bracketleft.sc" horiz-adv-x="568" 
d="M143 1146h344v-89h-224v-1069h235v-88h-355v1246z" />
    <glyph glyph-name="bracketright.sc" horiz-adv-x="568" 
d="M81 1146h344v-1246h-355v88h236v1069h-225v89z" />
    <glyph glyph-name="braceleft.sc" horiz-adv-x="613" 
d="M203 548v-17c95 -8 141 -64 141 -174v-259c0 -115 54 -165 189 -165h40v-93h-45c-193 0 -302 66 -302 256v220c0 109 -25 159 -140 159v129c115 0 140 50 140 159v192c0 188 109 248 302 248h45v-92h-40c-137 0 -189 -50 -189 -165v-226c0 -110 -46 -163 -141 -172z" />
    <glyph glyph-name="braceright.sc" horiz-adv-x="613" 
d="M410 531v17c-93 9 -141 62 -141 172v226c0 115 -52 165 -188 165h-41v92h45c193 0 302 -60 302 -248v-192c0 -109 26 -159 139 -159v-129c-113 0 -139 -50 -139 -159v-220c0 -190 -109 -256 -302 -256h-45v93h41c134 0 188 50 188 165v259c0 110 48 166 141 174z" />
    <glyph glyph-name="at.sc" horiz-adv-x="1440" 
d="M1069 241c-113 0 -180 54 -191 114h-7c-13 -44 -76 -114 -186 -114c-134 0 -219 95 -219 252v75c0 144 80 247 225 247c108 0 158 -66 170 -106h6v95h101v-379c0 -75 55 -104 114 -104c86 0 166 81 166 273v28c0 236 -182 446 -505 446h-7c-305 0 -531 -198 -531 -523
v-33c0 -337 240 -504 528 -504h7c120 0 201 15 262 38v-85c-48 -20 -133 -36 -263 -36h-7c-351 0 -627 199 -627 582v43c0 368 266 602 631 602h6c391 0 604 -255 604 -526v-41c0 -215 -120 -344 -277 -344zM573 506c0 -128 62 -178 145 -178c78 0 145 45 145 166v74
c0 101 -58 166 -147 166c-83 0 -143 -58 -143 -174v-54z" />
    <glyph glyph-name="numbersign.sc" horiz-adv-x="1049" 
d="M983 672h-192l-57 -267h180l-19 -94h-182l-68 -311h-102l68 311h-256l-67 -311h-102l67 311h-180l21 94h180l58 267h-170l19 93h172l66 305h103l-67 -305h256l66 305h102l-67 -305h191zM432 675l-59 -273h261l59 273h-261z" />
    <glyph glyph-name="currency.sc" horiz-adv-x="953" 
d="M800 134l-143 139c-49 -37 -112 -58 -179 -58c-68 0 -130 22 -181 60l-144 -141l-71 67l147 144c-34 48 -52 106 -52 168c0 60 18 117 50 164l-145 143l72 67l140 -138c51 39 115 62 184 62s132 -23 183 -60l139 136l72 -67l-144 -141c34 -47 52 -105 52 -166
c0 -63 -19 -122 -54 -170l146 -142zM269 513c0 -114 93 -207 209 -207s210 93 210 207s-94 207 -210 207s-209 -93 -209 -207z" />
    <glyph glyph-name="dollar.sc" horiz-adv-x="953" 
d="M221 805c0 -82 55 -139 165 -173c11 -4 35 -11 48 -14v364c-126 -10 -213 -74 -213 -177zM758 287c0 95 -55 152 -209 194c-6 1 -15 3 -21 5v-393c137 10 230 80 230 194zM528 -105h-95v101c-246 13 -358 151 -360 291h120c5 -98 86 -180 241 -193v413l-69 16
c-141 34 -263 112 -263 273c0 172 140 270 331 284v104h95v-104c190 -14 326 -119 330 -277h-117c-2 88 -77 167 -213 179v-387l58 -14c185 -44 291 -123 291 -286c0 -184 -148 -284 -349 -298v-102z" />
    <glyph glyph-name="cent.sc" horiz-adv-x="953" 
d="M821 348c-6 -109 -97 -223 -288 -238v-180h-103v181c-187 17 -311 144 -311 355v135c0 205 127 333 311 351v190h103v-190c183 -17 279 -137 284 -248h-122c-10 62 -66 151 -212 151c-153 0 -241 -100 -241 -260v-129c0 -160 93 -255 243 -255c143 0 199 69 215 137h121z
" />
    <glyph glyph-name="yen.sc" horiz-adv-x="953" 
d="M777 231h-237v-231h-127v231h-235v85h235v124h-235v85h196l-348 543h146l302 -489h7l303 489h143l-347 -543h197v-85h-237v-124h237v-85z" />
    <glyph glyph-name="sterling.sc" horiz-adv-x="953" 
d="M870 99v-99h-773v105c95 1 158 12 158 200v196h-176v93h176v237c0 171 132 260 309 260c186 0 298 -101 304 -241h-119c-5 73 -69 141 -185 141c-127 0 -185 -74 -185 -172v-225h259v-93h-259v-202c0 -93 -15 -165 -66 -191v-9h557z" />
    <glyph glyph-name="franc.sc" horiz-adv-x="953" 
d="M572 188h-210v-188h-128v188h-169v93h169v787h638v-106h-510v-340h466v-105h-466v-236h210v-93z" />
    <glyph glyph-name="florin.sc" horiz-adv-x="953" 
d="M154 -146l148 758h-191l19 98h191l28 148c28 151 125 233 288 233c177 0 232 -115 231 -193h-118c0 60 -55 96 -122 96c-88 0 -134 -54 -153 -150l-24 -134h257l-19 -98h-257l-148 -758h-130z" />
    <glyph glyph-name="u20BA.sc" horiz-adv-x="953" 
d="M260 0v491l-176 -75v94l176 75v173l-176 -75v93l176 75v217h126v-164l239 101v-93l-239 -102v-173l239 102v-94l-239 -101v-427c201 0 368 136 368 331h120c0 -246 -184 -448 -598 -448h-16z" />
    <glyph glyph-name="u20BD.sc" horiz-adv-x="953" 
d="M350 964v-415h145c137 0 260 32 260 207c0 134 -86 208 -235 208h-170zM619 187h-269v-187h-127v187h-166v94h166v165h-166v103h166v519h312c199 0 350 -114 350 -312c0 -201 -151 -310 -355 -310h-180v-165h269v-94z" />
    <glyph glyph-name="Euro.sc" horiz-adv-x="953" 
d="M901 324c0 -157 -82 -346 -360 -346c-240 0 -372 119 -384 393h-109v86h107v143h-107v87h109c13 268 141 404 385 404c269 0 360 -185 360 -364h-126c0 130 -54 258 -234 258c-169 0 -249 -98 -257 -298h315v-87h-317v-143h317v-86h-315c7 -202 93 -287 257 -287
c183 0 233 116 233 240h126z" />
    <glyph glyph-name="u20AB.sc" horiz-adv-x="953" 
d="M752 -235h-573v90h573v-90zM449 732c-140 0 -237 -97 -237 -266v-110c0 -176 101 -268 241 -268c147 0 243 104 243 258v141c0 136 -98 245 -247 245zM693 141c-21 -69 -112 -154 -270 -154c-195 0 -338 127 -338 345v157c0 208 136 344 341 344c158 0 239 -84 263 -148
h7v248h-214v90h214v128h125v-128h108v-90h-108v-933h-121v141h-7z" />
    <glyph glyph-name="u20B9.sc" horiz-adv-x="953" 
d="M280 457l383 -457h-158l-408 491v50h113c176 0 284 67 306 171h-419v89h419c-17 105 -109 168 -241 168h-177v101h761v-94h-315l-2 -5c60 -34 99 -93 107 -170h210v-89h-211c-28 -155 -180 -245 -368 -255z" />
    <glyph glyph-name="slash.sc" horiz-adv-x="605" 
d="M150 -241h-110l415 1367h111z" />
    <glyph glyph-name="backslash.sc" horiz-adv-x="606" 
d="M567 -241h-111l-416 1367h110z" />
    <glyph glyph-name="bar.sc" horiz-adv-x="534" 
d="M321 -241h-109v1367h109v-1367z" />
    <glyph glyph-name="hyphen.sc" horiz-adv-x="698" 
d="M613 487h-528v104h528v-104z" />
    <glyph glyph-name="endash.sc" horiz-adv-x="1131" 
d="M1131 487h-1131v104h1131v-104z" />
    <glyph glyph-name="emdash.sc" horiz-adv-x="2048" 
d="M2048 487h-2048v104h2048v-104z" />
    <glyph glyph-name="bullet.sc" horiz-adv-x="828" 
d="M414 353c-116 0 -211 94 -211 210c0 115 95 211 211 211c115 0 210 -96 210 -211c0 -116 -95 -210 -210 -210z" />
    <glyph glyph-name="uni2023.sc" horiz-adv-x="828" 
d="M243 353v438l367 -219z" />
    <glyph glyph-name="openbullet.sc" horiz-adv-x="828" 
d="M414 323c-134 0 -242 107 -242 240s108 241 242 241c135 0 244 -108 244 -241s-109 -240 -244 -240zM414 388c98 0 175 79 175 175c0 97 -77 176 -175 176c-97 0 -173 -79 -173 -176c0 -96 76 -175 173 -175z" />
    <glyph glyph-name="plus.sc" horiz-adv-x="953" 
d="M529 469v-358h-106v358h-349v99h349v341h106v-341h351v-99h-351z" />
    <glyph glyph-name="less.sc" horiz-adv-x="953" 
d="M123 442v97l702 408v-123l-570 -326v-7l570 -307v-124z" />
    <glyph glyph-name="equal.sc" horiz-adv-x="953" 
d="M829 326h-705v95h705v-95zM829 614h-705v96h705v-96z" />
    <glyph glyph-name="greater.sc" horiz-adv-x="953" 
d="M832 539v-97l-702 -382v124l571 307v7l-571 326v123z" />
    <glyph glyph-name="minus.sc" horiz-adv-x="953" 
d="M868 468h-783v100h783v-100z" />
    <glyph glyph-name="lessequal.sc" horiz-adv-x="953" 
d="M870 153h-782v96h782v-96zM89 602v78l781 265v-108l-590 -190v-5l590 -178v-108z" />
    <glyph glyph-name="greaterequal.sc" horiz-adv-x="953" 
d="M863 693v-78l-780 -260v109l587 187v4l-587 183v106zM866 153h-782v96h782v-96z" />
    <glyph glyph-name="approxequal.sc" horiz-adv-x="953" 
d="M618 572c-65 0 -115 26 -167 70c-37 32 -72 67 -119 67c-68 0 -98 -54 -100 -109h-98c0 101 56 199 200 199c64 0 110 -26 166 -73c38 -36 77 -62 119 -62c67 0 100 52 103 112h97c0 -108 -65 -204 -201 -204zM618 257c-65 0 -115 27 -167 71c-37 31 -72 66 -119 66
c-68 0 -98 -53 -100 -109h-98c0 101 56 200 200 200c64 0 110 -27 166 -74c38 -35 77 -62 119 -62c67 0 100 52 103 112h97c0 -108 -65 -204 -201 -204z" />
    <glyph glyph-name="logicalnot.sc" horiz-adv-x="953" 
d="M859 232h-112v287h-657v97h769v-384z" />
    <glyph glyph-name="infinity.sc" horiz-adv-x="1519" 
d="M1106 182c-165 0 -233 79 -347 205c-108 -129 -193 -205 -357 -205c-175 0 -301 124 -301 284c0 178 141 298 300 298c130 0 207 -51 355 -209c110 135 187 209 344 209c196 0 318 -132 318 -284c0 -146 -114 -298 -312 -298zM416 289c115 0 167 51 271 180
c-129 137 -187 187 -277 187c-98 0 -189 -67 -189 -184c0 -92 76 -183 195 -183zM1109 289c118 0 188 88 188 189c0 105 -95 178 -196 178c-114 0 -165 -51 -273 -183c115 -129 162 -184 281 -184z" />
    <glyph glyph-name="notequal.sc" horiz-adv-x="953" 
d="M829 326h-393l-105 -236h-109l105 236h-203v94h242l87 195h-329v95h369l103 234h110l-104 -234h227v-95h-266l-88 -195h354v-94z" />
    <glyph glyph-name="plusminus.sc" horiz-adv-x="953" 
d="M527 612v-232h-105v232h-338v97h338v221h105v-221h340v-97h-340zM869 189h-784v97h784v-97z" />
    <glyph glyph-name="divide.sc" horiz-adv-x="953" 
d="M868 472h-783v95h783v-95zM384 223c0 54 42 93 91 93c54 0 94 -39 94 -93c0 -50 -40 -90 -94 -90c-49 0 -91 40 -91 90zM384 819c0 53 42 92 91 92c54 0 94 -39 94 -92c0 -51 -40 -91 -94 -91c-49 0 -91 40 -91 91z" />
    <glyph glyph-name="multiply.sc" horiz-adv-x="953" 
d="M732 200l-255 255l-256 -255l-75 71l255 255l-255 255l75 70l256 -255l255 255l75 -70l-255 -255l255 -255z" />
    <glyph glyph-name="a" unicode="a" horiz-adv-x="1034" 
d="M755 146c-43 -78 -142 -163 -315 -163c-203 0 -341 122 -341 314c0 178 124 294 361 295h295v124c0 155 -93 235 -248 235c-151 0 -231 -74 -246 -190h-120c14 176 135 299 372 299c216 0 368 -117 368 -328v-732h-122v146h-4zM467 92c161 0 288 104 288 256v139h-291
c-164 0 -234 -78 -234 -187c0 -136 108 -208 237 -208z" />
    <glyph glyph-name="agrave" unicode="&#xe0;" horiz-adv-x="1034" 
d="M755 146c-43 -78 -142 -163 -315 -163c-203 0 -341 122 -341 314c0 178 124 294 361 295h295v124c0 155 -93 235 -248 235c-151 0 -231 -74 -246 -190h-120c14 176 135 299 372 299c216 0 368 -117 368 -328v-732h-122v146h-4zM467 92c161 0 288 104 288 256v139h-291
c-164 0 -234 -78 -234 -187c0 -136 108 -208 237 -208zM578 1193h-102l-233 280h135z" />
    <glyph glyph-name="aacute" unicode="&#xe1;" horiz-adv-x="1034" 
d="M755 146c-43 -78 -142 -163 -315 -163c-203 0 -341 122 -341 314c0 178 124 294 361 295h295v124c0 155 -93 235 -248 235c-151 0 -231 -74 -246 -190h-120c14 176 135 299 372 299c216 0 368 -117 368 -328v-732h-122v146h-4zM467 92c161 0 288 104 288 256v139h-291
c-164 0 -234 -78 -234 -187c0 -136 108 -208 237 -208zM559 1193h-102l201 280h134z" />
    <glyph glyph-name="adieresis" unicode="&#xe4;" horiz-adv-x="1034" 
d="M755 146c-43 -78 -142 -163 -315 -163c-203 0 -341 122 -341 314c0 178 124 294 361 295h295v124c0 155 -93 235 -248 235c-151 0 -231 -74 -246 -190h-120c14 176 135 299 372 299c216 0 368 -117 368 -328v-732h-122v146h-4zM467 92c161 0 288 104 288 256v139h-291
c-164 0 -234 -78 -234 -187c0 -136 108 -208 237 -208zM356 1215c-44 0 -78 35 -78 80c0 47 34 82 78 82c45 0 79 -35 79 -82c0 -45 -34 -80 -79 -80zM678 1215c-43 0 -78 35 -78 80c0 47 35 82 78 82c46 0 80 -35 80 -82c0 -45 -34 -80 -80 -80z" />
    <glyph glyph-name="adieresismacron" unicode="&#x1df;" horiz-adv-x="1034" 
d="M755 146c-43 -78 -142 -163 -315 -163c-203 0 -341 122 -341 314c0 178 124 294 361 295h295v124c0 155 -93 235 -248 235c-151 0 -231 -74 -246 -190h-120c14 176 135 299 372 299c216 0 368 -117 368 -328v-732h-122v146h-4zM467 92c161 0 288 104 288 256v139h-291
c-164 0 -234 -78 -234 -187c0 -136 108 -208 237 -208zM356 1215c-44 0 -78 35 -78 80c0 47 34 82 78 82c45 0 79 -35 79 -82c0 -45 -34 -80 -79 -80zM678 1215c-43 0 -78 35 -78 80c0 47 35 82 78 82c46 0 80 -35 80 -82c0 -45 -34 -80 -80 -80zM791 1546h-545v90h545v-90z
" />
    <glyph glyph-name="aring" unicode="&#xe5;" horiz-adv-x="1034" 
d="M755 146c-43 -78 -142 -163 -315 -163c-203 0 -341 122 -341 314c0 178 124 294 361 295h295v124c0 155 -93 235 -248 235c-151 0 -231 -74 -246 -190h-120c14 176 135 299 372 299c216 0 368 -117 368 -328v-732h-122v146h-4zM467 92c161 0 288 104 288 256v139h-291
c-164 0 -234 -78 -234 -187c0 -136 108 -208 237 -208zM518 1189c-100 0 -180 78 -180 178s80 177 180 177s181 -77 181 -177s-81 -178 -181 -178zM410 1366c0 -60 48 -110 108 -110c62 0 109 50 109 110c0 62 -47 110 -109 110c-60 0 -108 -48 -108 -110z" />
    <glyph glyph-name="aringacute" unicode="&#x1fb;" horiz-adv-x="1034" 
d="M755 146c-43 -78 -142 -163 -315 -163c-203 0 -341 122 -341 314c0 178 124 294 361 295h295v124c0 155 -93 235 -248 235c-151 0 -231 -74 -246 -190h-120c14 176 135 299 372 299c216 0 368 -117 368 -328v-732h-122v146h-4zM467 92c161 0 288 104 288 256v139h-291
c-164 0 -234 -78 -234 -187c0 -136 108 -208 237 -208zM567 1604h-97l144 190h131zM518 1189c-100 0 -180 78 -180 178s80 177 180 177s181 -77 181 -177s-81 -178 -181 -178zM410 1366c0 -60 48 -110 108 -110c62 0 109 50 109 110c0 62 -47 110 -109 110
c-60 0 -108 -48 -108 -110z" />
    <glyph glyph-name="atilde" unicode="&#xe3;" horiz-adv-x="1034" 
d="M755 146c-43 -78 -142 -163 -315 -163c-203 0 -341 122 -341 314c0 178 124 294 361 295h295v124c0 155 -93 235 -248 235c-151 0 -231 -74 -246 -190h-120c14 176 135 299 372 299c216 0 368 -117 368 -328v-732h-122v146h-4zM467 92c161 0 288 104 288 256v139h-291
c-164 0 -234 -78 -234 -187c0 -136 108 -208 237 -208zM632 1191c-135 0 -167 143 -250 143c-57 0 -79 -67 -80 -125h-92c0 118 62 212 172 212c134 0 164 -142 249 -142c57 0 82 66 85 127h92c0 -104 -58 -215 -176 -215z" />
    <glyph glyph-name="abrevegrave" unicode="&#x1eb1;" horiz-adv-x="1034" 
d="M755 146c-43 -78 -142 -163 -315 -163c-203 0 -341 122 -341 314c0 178 124 294 361 295h295v124c0 155 -93 235 -248 235c-151 0 -231 -74 -246 -190h-120c14 176 135 299 372 299c216 0 368 -117 368 -328v-732h-122v146h-4zM467 92c161 0 288 104 288 256v139h-291
c-164 0 -234 -78 -234 -187c0 -136 108 -208 237 -208zM586 1462h-102l-234 279h135zM241 1449h95c0 -92 60 -171 182 -171c123 0 183 79 183 171h95c-1 -117 -84 -257 -278 -257s-278 139 -277 257z" />
    <glyph glyph-name="adotmacron" unicode="&#x1e1;" horiz-adv-x="1034" 
d="M755 146c-43 -78 -142 -163 -315 -163c-203 0 -341 122 -341 314c0 178 124 294 361 295h295v124c0 155 -93 235 -248 235c-151 0 -231 -74 -246 -190h-120c14 176 135 299 372 299c216 0 368 -117 368 -328v-732h-122v146h-4zM467 92c161 0 288 104 288 256v139h-291
c-164 0 -234 -78 -234 -187c0 -136 108 -208 237 -208zM426 1306c0 52 41 92 90 92c52 0 93 -40 93 -92c0 -51 -41 -90 -93 -90c-49 0 -90 39 -90 90zM791 1546h-545v90h545v-90z" />
    <glyph glyph-name="aringbelow" unicode="&#x1e01;" horiz-adv-x="1034" 
d="M755 146c-43 -78 -142 -163 -315 -163c-203 0 -341 122 -341 314c0 178 124 294 361 295h295v124c0 155 -93 235 -248 235c-151 0 -231 -74 -246 -190h-120c14 176 135 299 372 299c216 0 368 -117 368 -328v-732h-122v146h-4zM467 92c161 0 288 104 288 256v139h-291
c-164 0 -234 -78 -234 -187c0 -136 108 -208 237 -208zM518 -492c-100 0 -180 78 -180 178s80 177 180 177s181 -77 181 -177s-81 -178 -181 -178zM410 -315c0 -60 48 -110 108 -110c62 0 109 50 109 110c0 62 -47 110 -109 110c-60 0 -108 -48 -108 -110z" />
    <glyph glyph-name="acircumflex" unicode="&#xe2;" horiz-adv-x="1034" 
d="M755 146c-43 -78 -142 -163 -315 -163c-203 0 -341 122 -341 314c0 178 124 294 361 295h295v124c0 155 -93 235 -248 235c-151 0 -231 -74 -246 -190h-120c14 176 135 299 372 299c216 0 368 -117 368 -328v-732h-122v146h-4zM467 92c161 0 288 104 288 256v139h-291
c-164 0 -234 -78 -234 -187c0 -136 108 -208 237 -208zM262 1193l218 310h77l218 -310h-109l-146 218h-3l-146 -218h-109z" />
    <glyph glyph-name="acircumflexdotbelow" unicode="&#x1ead;" horiz-adv-x="1034" 
d="M755 146c-43 -78 -142 -163 -315 -163c-203 0 -341 122 -341 314c0 178 124 294 361 295h295v124c0 155 -93 235 -248 235c-151 0 -231 -74 -246 -190h-120c14 176 135 299 372 299c216 0 368 -117 368 -328v-732h-122v146h-4zM467 92c161 0 288 104 288 256v139h-291
c-164 0 -234 -78 -234 -187c0 -136 108 -208 237 -208zM262 1193l218 310h77l218 -310h-109l-146 218h-3l-146 -218h-109zM440 -279c0 49 35 84 79 84c47 0 82 -35 82 -84c0 -46 -35 -82 -82 -82c-44 0 -79 36 -79 82z" />
    <glyph glyph-name="acircumflexacute" unicode="&#x1ea5;" horiz-adv-x="1034" 
d="M755 146c-43 -78 -142 -163 -315 -163c-203 0 -341 122 -341 314c0 178 124 294 361 295h295v124c0 155 -93 235 -248 235c-151 0 -231 -74 -246 -190h-120c14 176 135 299 372 299c216 0 368 -117 368 -328v-732h-122v146h-4zM467 92c161 0 288 104 288 256v139h-291
c-164 0 -234 -78 -234 -187c0 -136 108 -208 237 -208zM825 1421h-102l201 280h134zM262 1193l218 310h77l218 -310h-109l-146 218h-3l-146 -218h-109z" />
    <glyph glyph-name="acircumflextilde" unicode="&#x1eab;" horiz-adv-x="1034" 
d="M755 146c-43 -78 -142 -163 -315 -163c-203 0 -341 122 -341 314c0 178 124 294 361 295h295v124c0 155 -93 235 -248 235c-151 0 -231 -74 -246 -190h-120c14 176 135 299 372 299c216 0 368 -117 368 -328v-732h-122v146h-4zM467 92c161 0 288 104 288 256v139h-291
c-164 0 -234 -78 -234 -187c0 -136 108 -208 237 -208zM336 1613h-86c0 107 55 194 157 194c125 0 135 -130 212 -130c50 0 73 58 75 113h86c0 -91 -50 -194 -161 -194c-126 0 -136 130 -212 130c-50 0 -70 -59 -71 -113zM262 1193l218 310h77l218 -310h-109l-146 218h-3
l-146 -218h-109z" />
    <glyph glyph-name="acircumflexgrave" unicode="&#x1ea7;" horiz-adv-x="1034" 
d="M755 146c-43 -78 -142 -163 -315 -163c-203 0 -341 122 -341 314c0 178 124 294 361 295h295v124c0 155 -93 235 -248 235c-151 0 -231 -74 -246 -190h-120c14 176 135 299 372 299c216 0 368 -117 368 -328v-732h-122v146h-4zM467 92c161 0 288 104 288 256v139h-291
c-164 0 -234 -78 -234 -187c0 -136 108 -208 237 -208zM935 1421h-102l-233 280h134zM262 1193l218 310h77l218 -310h-109l-146 218h-3l-146 -218h-109z" />
    <glyph glyph-name="acircumflexhookabove" unicode="&#x1ea9;" horiz-adv-x="1034" 
d="M755 146c-43 -78 -142 -163 -315 -163c-203 0 -341 122 -341 314c0 178 124 294 361 295h295v124c0 155 -93 235 -248 235c-151 0 -231 -74 -246 -190h-120c14 176 135 299 372 299c216 0 368 -117 368 -328v-732h-122v146h-4zM467 92c161 0 288 104 288 256v139h-291
c-164 0 -234 -78 -234 -187c0 -136 108 -208 237 -208zM649 1626v78c16 11 55 21 97 21c108 0 181 -66 181 -161c0 -79 -56 -133 -126 -163l-47 64c59 27 85 54 85 98c0 48 -43 86 -104 86c-35 0 -69 -12 -86 -23zM262 1193l218 310h77l218 -310h-109l-146 218h-3l-146 -218
h-109z" />
    <glyph glyph-name="abreve" unicode="&#x103;" horiz-adv-x="1034" 
d="M755 146c-43 -78 -142 -163 -315 -163c-203 0 -341 122 -341 314c0 178 124 294 361 295h295v124c0 155 -93 235 -248 235c-151 0 -231 -74 -246 -190h-120c14 176 135 299 372 299c216 0 368 -117 368 -328v-732h-122v146h-4zM467 92c161 0 288 104 288 256v139h-291
c-164 0 -234 -78 -234 -187c0 -136 108 -208 237 -208zM241 1449h95c0 -92 60 -171 182 -171c123 0 183 79 183 171h95c-1 -117 -84 -257 -278 -257s-278 139 -277 257z" />
    <glyph glyph-name="abreveacute" unicode="&#x1eaf;" horiz-adv-x="1034" 
d="M755 146c-43 -78 -142 -163 -315 -163c-203 0 -341 122 -341 314c0 178 124 294 361 295h295v124c0 155 -93 235 -248 235c-151 0 -231 -74 -246 -190h-120c14 176 135 299 372 299c216 0 368 -117 368 -328v-732h-122v146h-4zM467 92c161 0 288 104 288 256v139h-291
c-164 0 -234 -78 -234 -187c0 -136 108 -208 237 -208zM550 1462h-102l201 279h134zM241 1449h95c0 -92 60 -171 182 -171c123 0 183 79 183 171h95c-1 -117 -84 -257 -278 -257s-278 139 -277 257z" />
    <glyph glyph-name="abrevetilde" unicode="&#x1eb5;" horiz-adv-x="1034" 
d="M755 146c-43 -78 -142 -163 -315 -163c-203 0 -341 122 -341 314c0 178 124 294 361 295h295v124c0 155 -93 235 -248 235c-151 0 -231 -74 -246 -190h-120c14 176 135 299 372 299c216 0 368 -117 368 -328v-732h-122v146h-4zM467 92c161 0 288 104 288 256v139h-291
c-164 0 -234 -78 -234 -187c0 -136 108 -208 237 -208zM341 1572h-86c0 108 54 195 156 195c125 0 136 -131 212 -131c50 0 73 58 76 114h86c0 -92 -50 -195 -161 -195c-127 0 -136 131 -213 131c-50 0 -69 -60 -70 -114zM241 1449h95c0 -92 60 -171 182 -171
c123 0 183 79 183 171h95c-1 -117 -84 -257 -278 -257s-278 139 -277 257z" />
    <glyph glyph-name="abrevehookabove" unicode="&#x1eb3;" horiz-adv-x="1034" 
d="M755 146c-43 -78 -142 -163 -315 -163c-203 0 -341 122 -341 314c0 178 124 294 361 295h295v124c0 155 -93 235 -248 235c-151 0 -231 -74 -246 -190h-120c14 176 135 299 372 299c216 0 368 -117 368 -328v-732h-122v146h-4zM467 92c161 0 288 104 288 256v139h-291
c-164 0 -234 -78 -234 -187c0 -136 108 -208 237 -208zM352 1669v78c16 11 55 21 97 21c107 0 180 -66 180 -161c0 -79 -55 -133 -126 -163l-46 64c59 27 85 54 85 97c0 49 -43 87 -104 87c-36 0 -69 -12 -86 -23zM241 1449h95c0 -92 60 -171 182 -171c123 0 183 79 183 171
h95c-1 -117 -84 -257 -278 -257s-278 139 -277 257z" />
    <glyph glyph-name="abrevedotbelow" unicode="&#x1eb7;" horiz-adv-x="1034" 
d="M755 146c-43 -78 -142 -163 -315 -163c-203 0 -341 122 -341 314c0 178 124 294 361 295h295v124c0 155 -93 235 -248 235c-151 0 -231 -74 -246 -190h-120c14 176 135 299 372 299c216 0 368 -117 368 -328v-732h-122v146h-4zM467 92c161 0 288 104 288 256v139h-291
c-164 0 -234 -78 -234 -187c0 -136 108 -208 237 -208zM440 -279c0 49 35 84 79 84c47 0 82 -35 82 -84c0 -46 -35 -82 -82 -82c-44 0 -79 36 -79 82zM241 1449h95c0 -92 60 -171 182 -171c123 0 183 79 183 171h95c-1 -117 -84 -257 -278 -257s-278 139 -277 257z" />
    <glyph glyph-name="ainvertedbreve" unicode="&#x203;" horiz-adv-x="1034" 
d="M755 146c-43 -78 -142 -163 -315 -163c-203 0 -341 122 -341 314c0 178 124 294 361 295h295v124c0 155 -93 235 -248 235c-151 0 -231 -74 -246 -190h-120c14 176 135 299 372 299c216 0 368 -117 368 -328v-732h-122v146h-4zM467 92c161 0 288 104 288 256v139h-291
c-164 0 -234 -78 -234 -187c0 -136 108 -208 237 -208zM241 1207c-1 118 83 256 277 256s274 -140 275 -256h-95c0 92 -57 171 -180 171s-183 -79 -183 -171h-94z" />
    <glyph glyph-name="acaron" unicode="&#x1ce;" horiz-adv-x="1034" 
d="M755 146c-43 -78 -142 -163 -315 -163c-203 0 -341 122 -341 314c0 178 124 294 361 295h295v124c0 155 -93 235 -248 235c-151 0 -231 -74 -246 -190h-120c14 176 135 299 372 299c216 0 368 -117 368 -328v-732h-122v146h-4zM467 92c161 0 288 104 288 256v139h-291
c-164 0 -234 -78 -234 -187c0 -136 108 -208 237 -208zM262 1503h108l147 -218h3l146 218h109l-218 -310h-77z" />
    <glyph glyph-name="adotaccent" unicode="&#x227;" horiz-adv-x="1034" 
d="M755 146c-43 -78 -142 -163 -315 -163c-203 0 -341 122 -341 314c0 178 124 294 361 295h295v124c0 155 -93 235 -248 235c-151 0 -231 -74 -246 -190h-120c14 176 135 299 372 299c216 0 368 -117 368 -328v-732h-122v146h-4zM467 92c161 0 288 104 288 256v139h-291
c-164 0 -234 -78 -234 -187c0 -136 108 -208 237 -208zM426 1306c0 52 41 92 90 92c52 0 93 -40 93 -92c0 -51 -41 -90 -93 -90c-49 0 -90 39 -90 90z" />
    <glyph glyph-name="adotbelow" unicode="&#x1ea1;" horiz-adv-x="1034" 
d="M755 146c-43 -78 -142 -163 -315 -163c-203 0 -341 122 -341 314c0 178 124 294 361 295h295v124c0 155 -93 235 -248 235c-151 0 -231 -74 -246 -190h-120c14 176 135 299 372 299c216 0 368 -117 368 -328v-732h-122v146h-4zM467 92c161 0 288 104 288 256v139h-291
c-164 0 -234 -78 -234 -187c0 -136 108 -208 237 -208zM440 -279c0 49 35 84 79 84c47 0 82 -35 82 -84c0 -46 -35 -82 -82 -82c-44 0 -79 36 -79 82z" />
    <glyph glyph-name="ahookabove" unicode="&#x1ea3;" horiz-adv-x="1034" 
d="M755 146c-43 -78 -142 -163 -315 -163c-203 0 -341 122 -341 314c0 178 124 294 361 295h295v124c0 155 -93 235 -248 235c-151 0 -231 -74 -246 -190h-120c14 176 135 299 372 299c216 0 368 -117 368 -328v-732h-122v146h-4zM467 92c161 0 288 104 288 256v139h-291
c-164 0 -234 -78 -234 -187c0 -136 108 -208 237 -208zM388 1422v80c17 11 56 22 100 22c110 0 184 -68 184 -166c0 -81 -56 -134 -129 -167l-49 66c61 27 87 56 87 100c0 48 -43 88 -106 88c-35 0 -68 -12 -87 -23z" />
    <glyph glyph-name="adblgrave" unicode="&#x201;" horiz-adv-x="1034" 
d="M755 146c-43 -78 -142 -163 -315 -163c-203 0 -341 122 -341 314c0 178 124 294 361 295h295v124c0 155 -93 235 -248 235c-151 0 -231 -74 -246 -190h-120c14 176 135 299 372 299c216 0 368 -117 368 -328v-732h-122v146h-4zM467 92c161 0 288 104 288 256v139h-291
c-164 0 -234 -78 -234 -187c0 -136 108 -208 237 -208zM357 1193l-231 280h121l202 -280h-92zM602 1193l-231 280h120l202 -280h-91z" />
    <glyph glyph-name="amacron" unicode="&#x101;" horiz-adv-x="1034" 
d="M755 146c-43 -78 -142 -163 -315 -163c-203 0 -341 122 -341 314c0 178 124 294 361 295h295v124c0 155 -93 235 -248 235c-151 0 -231 -74 -246 -190h-120c14 176 135 299 372 299c216 0 368 -117 368 -328v-732h-122v146h-4zM467 92c161 0 288 104 288 256v139h-291
c-164 0 -234 -78 -234 -187c0 -136 108 -208 237 -208zM791 1255h-545v90h545v-90z" />
    <glyph glyph-name="aogonek" unicode="&#x105;" horiz-adv-x="1034" 
d="M797 -374c-102 0 -198 54 -198 177c0 116 75 181 161 236v107h-4c-43 -78 -143 -163 -316 -163c-203 0 -341 122 -341 314c0 178 124 294 361 295h295v124c0 155 -93 235 -248 235c-151 0 -231 -74 -246 -190h-120c14 176 135 299 372 299c216 0 368 -117 368 -328v-729
c-82 -31 -168 -90 -168 -178c0 -64 46 -97 111 -97c25 0 59 3 82 10v-93c-15 -6 -51 -19 -109 -19zM467 92c161 0 288 104 288 256v139h-291c-164 0 -234 -78 -234 -187c0 -136 108 -208 237 -208z" />
    <glyph glyph-name="b" unicode="b" horiz-adv-x="1143" 
d="M613 -17c-173 0 -272 92 -324 191h-4v-174h-120v1436h125v-558h4c43 80 154 182 321 182c239 0 410 -171 410 -470v-135c0 -299 -174 -472 -412 -472zM606 96c164 0 293 126 293 370v113c0 238 -125 368 -293 368c-201 0 -318 -145 -318 -367v-114
c0 -229 121 -370 318 -370z" />
    <glyph glyph-name="blinebelow" unicode="&#x1e07;" horiz-adv-x="1143" 
d="M844 -318h-545v90h545v-90zM613 -17c-173 0 -272 92 -324 191h-4v-174h-120v1436h125v-558h4c43 80 154 182 321 182c239 0 410 -171 410 -470v-135c0 -299 -174 -472 -412 -472zM606 96c164 0 293 126 293 370v113c0 238 -125 368 -293 368c-201 0 -318 -145 -318 -367
v-114c0 -229 121 -370 318 -370z" />
    <glyph glyph-name="bdotbelow" unicode="&#x1e05;" horiz-adv-x="1143" 
d="M493 -279c0 49 35 84 79 84c47 0 82 -35 82 -84c0 -46 -35 -82 -82 -82c-44 0 -79 36 -79 82zM613 -17c-173 0 -272 92 -324 191h-4v-174h-120v1436h125v-558h4c43 80 154 182 321 182c239 0 410 -171 410 -470v-135c0 -299 -174 -472 -412 -472zM606 96
c164 0 293 126 293 370v113c0 238 -125 368 -293 368c-201 0 -318 -145 -318 -367v-114c0 -229 121 -370 318 -370z" />
    <glyph glyph-name="bdotaccent" unicode="&#x1e03;" horiz-adv-x="1143" 
d="M141 1716c0 50 40 90 90 90s90 -40 90 -90c0 -49 -40 -89 -90 -89s-90 40 -90 89zM613 -17c-173 0 -272 92 -324 191h-4v-174h-120v1436h125v-558h4c43 80 154 182 321 182c239 0 410 -171 410 -470v-135c0 -299 -174 -472 -412 -472zM606 96c164 0 293 126 293 370v113
c0 238 -125 368 -293 368c-201 0 -318 -145 -318 -367v-114c0 -229 121 -370 318 -370z" />
    <glyph glyph-name="c" unicode="c" horiz-adv-x="1035" 
d="M118 464v124c0 285 163 472 421 472c242 0 380 -162 390 -314h-125c-22 103 -115 200 -258 200c-186 0 -302 -135 -302 -367v-114c0 -228 119 -367 306 -367c158 0 240 88 260 182h124c-29 -160 -148 -297 -394 -297c-266 0 -422 197 -422 481z" />
    <glyph glyph-name="cacute" unicode="&#x107;" horiz-adv-x="1035" 
d="M118 464v124c0 285 163 472 421 472c242 0 380 -162 390 -314h-125c-22 103 -115 200 -258 200c-186 0 -302 -135 -302 -367v-114c0 -228 119 -367 306 -367c158 0 240 88 260 182h124c-29 -160 -148 -297 -394 -297c-266 0 -422 197 -422 481zM586 1193h-102l201 280
h134z" />
    <glyph glyph-name="ccaron" unicode="&#x10d;" horiz-adv-x="1035" 
d="M289 1503h108l147 -218h3l146 218h109l-218 -310h-77zM118 464v124c0 285 163 472 421 472c242 0 380 -162 390 -314h-125c-22 103 -115 200 -258 200c-186 0 -302 -135 -302 -367v-114c0 -228 119 -367 306 -367c158 0 240 88 260 182h124c-29 -160 -148 -297 -394 -297
c-266 0 -422 197 -422 481z" />
    <glyph glyph-name="ccircumflex" unicode="&#x109;" horiz-adv-x="1035" 
d="M289 1193l218 310h77l218 -310h-109l-146 218h-3l-146 -218h-109zM118 464v124c0 285 163 472 421 472c242 0 380 -162 390 -314h-125c-22 103 -115 200 -258 200c-186 0 -302 -135 -302 -367v-114c0 -228 119 -367 306 -367c158 0 240 88 260 182h124
c-29 -160 -148 -297 -394 -297c-266 0 -422 197 -422 481z" />
    <glyph glyph-name="cdotaccent" unicode="&#x10b;" horiz-adv-x="1035" 
d="M118 464v124c0 285 163 472 421 472c242 0 380 -162 390 -314h-125c-22 103 -115 200 -258 200c-186 0 -302 -135 -302 -367v-114c0 -228 119 -367 306 -367c158 0 240 88 260 182h124c-29 -160 -148 -297 -394 -297c-266 0 -422 197 -422 481zM453 1306
c0 52 41 92 90 92c52 0 93 -40 93 -92c0 -51 -41 -90 -93 -90c-49 0 -90 39 -90 90z" />
    <glyph glyph-name="ccedilla" unicode="&#xe7;" horiz-adv-x="1035" 
d="M528 -463c-58 -2 -114 7 -141 15v86c27 -8 81 -15 119 -15c62 0 132 23 132 91c0 70 -63 81 -145 81h-51v64l56 126c-240 20 -380 210 -380 479v124c0 285 163 472 421 472c242 0 380 -162 390 -314h-125c-22 103 -115 200 -258 200c-186 0 -302 -135 -302 -367v-114
c0 -228 119 -367 306 -367c158 0 240 88 260 182h124c-27 -147 -130 -277 -341 -295l-49 -110c119 0 205 -48 205 -158c0 -123 -106 -176 -221 -180z" />
    <glyph glyph-name="ccedillaacute" unicode="&#x1e09;" horiz-adv-x="1035" 
d="M586 1193h-102l201 280h134zM528 -463c-58 -2 -114 7 -141 15v86c27 -8 81 -15 119 -15c62 0 132 23 132 91c0 70 -63 81 -145 81h-51v64l56 126c-240 20 -380 210 -380 479v124c0 285 163 472 421 472c242 0 380 -162 390 -314h-125c-22 103 -115 200 -258 200
c-186 0 -302 -135 -302 -367v-114c0 -228 119 -367 306 -367c158 0 240 88 260 182h124c-27 -147 -130 -277 -341 -295l-49 -110c119 0 205 -48 205 -158c0 -123 -106 -176 -221 -180z" />
    <glyph glyph-name="d" unicode="d" horiz-adv-x="1140" 
d="M530 1061c166 0 271 -94 316 -183h4v558h126v-1436h-120v175h-4c-46 -92 -150 -192 -322 -192c-260 0 -412 191 -412 474v130c0 286 166 474 412 474zM540 948c-163 0 -296 -119 -296 -370v-114c0 -242 128 -368 298 -368c196 0 310 149 310 367v116
c0 217 -120 369 -312 369z" />
    <glyph glyph-name="ddotaccent" unicode="&#x1e0b;" horiz-adv-x="1140" 
d="M821 1716c0 50 40 90 90 90s90 -40 90 -90c0 -49 -40 -89 -90 -89s-90 40 -90 89zM530 1061c166 0 271 -94 316 -183h4v558h126v-1436h-120v175h-4c-46 -92 -150 -192 -322 -192c-260 0 -412 191 -412 474v130c0 286 166 474 412 474zM540 948
c-163 0 -296 -119 -296 -370v-114c0 -242 128 -368 298 -368c196 0 310 149 310 367v116c0 217 -120 369 -312 369z" />
    <glyph glyph-name="dcircumflexbelow" unicode="&#x1e13;" horiz-adv-x="1140" 
d="M530 1061c166 0 271 -94 316 -183h4v558h126v-1436h-120v175h-4c-46 -92 -150 -192 -322 -192c-260 0 -412 191 -412 474v130c0 286 166 474 412 474zM540 948c-163 0 -296 -119 -296 -370v-114c0 -242 128 -368 298 -368c196 0 310 149 310 367v116
c0 217 -120 369 -312 369zM316 -409l214 288h82l214 -288h-108l-146 208h-2l-146 -208h-108z" />
    <glyph glyph-name="dcommaaccent" unicode="&#x1e11;" horiz-adv-x="1140" 
d="M532 -486h-100l85 335h129zM530 1061c166 0 271 -94 316 -183h4v558h126v-1436h-120v175h-4c-46 -92 -150 -192 -322 -192c-260 0 -412 191 -412 474v130c0 286 166 474 412 474zM540 948c-163 0 -296 -119 -296 -370v-114c0 -242 128 -368 298 -368
c196 0 310 149 310 367v116c0 217 -120 369 -312 369z" />
    <glyph glyph-name="dlinebelow" unicode="&#x1e0f;" horiz-adv-x="1140" 
d="M844 -318h-545v90h545v-90zM530 1061c166 0 271 -94 316 -183h4v558h126v-1436h-120v175h-4c-46 -92 -150 -192 -322 -192c-260 0 -412 191 -412 474v130c0 286 166 474 412 474zM540 948c-163 0 -296 -119 -296 -370v-114c0 -242 128 -368 298 -368
c196 0 310 149 310 367v116c0 217 -120 369 -312 369z" />
    <glyph glyph-name="dcaron" unicode="&#x10f;" horiz-adv-x="1295" 
d="M1169 1436h120l-37 -488h-83v488zM530 1061c166 0 271 -94 316 -183h4v558h126v-1436h-120v175h-4c-46 -92 -150 -192 -322 -192c-260 0 -412 191 -412 474v130c0 286 166 474 412 474zM540 948c-163 0 -296 -119 -296 -370v-114c0 -242 128 -368 298 -368
c196 0 310 149 310 367v116c0 217 -120 369 -312 369z" />
    <glyph glyph-name="ddotbelow" unicode="&#x1e0d;" horiz-adv-x="1140" 
d="M493 -279c0 49 35 84 79 84c47 0 82 -35 82 -84c0 -46 -35 -82 -82 -82c-44 0 -79 36 -79 82zM530 1061c166 0 271 -94 316 -183h4v558h126v-1436h-120v175h-4c-46 -92 -150 -192 -322 -192c-260 0 -412 191 -412 474v130c0 286 166 474 412 474zM540 948
c-163 0 -296 -119 -296 -370v-114c0 -242 128 -368 298 -368c196 0 310 149 310 367v116c0 217 -120 369 -312 369z" />
    <glyph glyph-name="dcroat" unicode="&#x111;" horiz-adv-x="1142" 
d="M540 948c-163 0 -295 -119 -295 -370v-114c0 -242 127 -368 297 -368c196 0 308 149 308 367v116c0 217 -118 369 -310 369zM853 175c-46 -92 -151 -192 -323 -192c-260 0 -412 191 -412 474v130c0 286 166 474 412 474c166 0 268 -94 313 -183h4v320h-266v102h266v136
h130v-136h121v-102h-121v-1198h-120v175h-4z" />
    <glyph glyph-name="e" unicode="e" horiz-adv-x="1067" 
d="M543 -17c-265 0 -425 186 -425 484v116c0 289 154 477 417 477c260 0 417 -186 417 -486v-79h-708v-31c0 -228 114 -372 303 -372c150 0 236 82 263 180h127c-32 -155 -162 -289 -394 -289zM244 604h582v3c0 202 -116 344 -291 344c-176 0 -291 -142 -291 -344v-3z" />
    </font>
</defs>
</svg>
